<svg xmlns="http://www.w3.org/2000/svg" width="72.598" height="30.056" viewBox="0 0 72.598 30.056"><g transform="translate(0.026)"><path d="M13.272,3.845A5.367,5.367,0,0,0,14.5,0a5.537,5.537,0,0,0-3.554,1.806A5.065,5.065,0,0,0,9.66,5.476a4.184,4.184,0,0,0,3.612-1.631M14.5,5.826c-1.981-.117-3.67,1.107-4.6,1.107S7.5,5.884,5.932,5.884A5.845,5.845,0,0,0,.979,8.914C-1.118,12.584.4,18,2.494,20.974c.99,1.456,2.214,3.088,3.787,3.03,1.515-.058,2.1-.99,3.9-.99s2.33.99,3.962.932,2.68-1.457,3.67-2.971a11.734,11.734,0,0,0,1.631-3.379,5.278,5.278,0,0,1-.641-9.38A5.424,5.424,0,0,0,14.5,5.826"/><g transform="translate(27.99 1.9)"><path d="M47.994,2.9c4.114,0,6.949,2.973,6.949,7.228,0,4.314-2.891,7.287-7.06,7.287h-4.5v7.52H40.1V2.9ZM43.38,14.559H47.1c2.835,0,4.447-1.632,4.447-4.372,0-2.8-1.612-4.372-4.447-4.372h-3.78v8.744Zm12.4,5.888c0-2.8,2.057-4.547,5.726-4.78l4.225-.233V14.209a2.724,2.724,0,0,0-3.057-2.856,2.95,2.95,0,0,0-3.224,2.332h-3C56.61,10.77,59,8.613,62.78,8.613c3.724,0,6.115,2.04,6.115,5.3V24.994h-3V22.37h-.056A5.407,5.407,0,0,1,61,25.285C57.888,25.285,55.776,23.3,55.776,20.447Zm9.95-1.457V17.707l-3.78.233c-1.89.117-2.946.991-2.946,2.39s1.112,2.332,2.779,2.332A3.746,3.746,0,0,0,65.726,18.989Zm5.948,11.95V28.258a5.765,5.765,0,0,0,1,.058c1.445,0,2.224-.641,2.724-2.273,0-.058.278-.991.278-.991L70.118,8.963h3.391L77.4,22.079h.056L81.346,8.963h3.335L78.956,25.926c-1.334,3.906-2.835,5.13-6,5.13C72.73,31,71.952,31,71.674,30.94Z" transform="translate(-40.1 -2.9)"/></g></g></svg>