<svg xmlns="http://www.w3.org/2000/svg" width="31" height="31" viewBox="0 0 31 31"><g transform="translate(0)"><ellipse cx="15.5" cy="15.5" rx="15.5" ry="15.5" transform="translate(0)" fill="#f5f2f2"/><g transform="translate(7.999 8)"><path d="M7.5,0A7.5,7.5,0,1,0,15,7.5,7.495,7.495,0,0,0,7.5,0Zm0,1.526A10.387,10.387,0,0,1,8.933,4.5H6.068A10.386,10.386,0,0,1,7.5,1.526ZM1.695,9a5.866,5.866,0,0,1,0-3H4.226a12.334,12.334,0,0,0-.1,1.5A11.62,11.62,0,0,0,4.23,9Zm.611,1.5H4.519a12.012,12.012,0,0,0,1.035,2.674A6.013,6.013,0,0,1,2.306,10.5Zm2.212-6H2.306A6.013,6.013,0,0,1,5.554,1.826,12.014,12.014,0,0,0,4.519,4.5ZM7.5,13.474A10.587,10.587,0,0,1,6.067,10.5H8.932A10.585,10.585,0,0,1,7.5,13.474ZM9.255,9H5.745a10.42,10.42,0,0,1-.12-1.5A10.425,10.425,0,0,1,5.745,6h3.51a10.419,10.419,0,0,1,.12,1.5A10.419,10.419,0,0,1,9.255,9ZM12.69,4.5H10.478A11.913,11.913,0,0,0,9.443,1.83,6.006,6.006,0,0,1,12.69,4.5ZM9.446,13.17h0a11.983,11.983,0,0,0,1.035-2.67h2.212A6.033,6.033,0,0,1,9.446,13.17ZM10.77,9a12.331,12.331,0,0,0,.105-1.5A11.62,11.62,0,0,0,10.77,6H13.3a6,6,0,0,1,.2,1.5A5.837,5.837,0,0,1,13.3,9Z" transform="translate(0 0)" fill="#6f6e71"/></g></g></svg>