<svg xmlns="http://www.w3.org/2000/svg" width="34" height="34" viewBox="0 0 34 34"><g transform="translate(0 0)"><path d="M8.889,9a1.889,1.889,0,1,0,0,3.778H24A1.889,1.889,0,1,0,24,9Z" transform="translate(0.556 2.333)" fill="#ed702d"/><path d="M8.667,3A5.667,5.667,0,0,0,3,8.667V31.333A5.667,5.667,0,0,0,8.667,37H31.333A5.667,5.667,0,0,0,37,31.333V8.667A5.667,5.667,0,0,0,31.333,3ZM6.778,31.333V10.556H33.222V31.333a1.889,1.889,0,0,1-1.889,1.889H8.667A1.889,1.889,0,0,1,6.778,31.333Z" transform="translate(-3 -3)" fill="#ed702d" fill-rule="evenodd"/></g></svg>