<?xml version="1.0" encoding="utf-8"?>
<!-- Generator: Adobe Illustrator 24.0.2, SVG Export Plug-In . SVG Version: 6.00 Build 0)  -->
<!DOCTYPE svg PUBLIC "-//W3C//DTD SVG 1.1//EN" "http://www.w3.org/Graphics/SVG/1.1/DTD/svg11.dtd" [
	<!ENTITY ns_extend "http://ns.adobe.com/Extensibility/1.0/">
	<!ENTITY ns_ai "http://ns.adobe.com/AdobeIllustrator/10.0/">
	<!ENTITY ns_graphs "http://ns.adobe.com/Graphs/1.0/">
	<!ENTITY ns_vars "http://ns.adobe.com/Variables/1.0/">
	<!ENTITY ns_imrep "http://ns.adobe.com/ImageReplacement/1.0/">
	<!ENTITY ns_sfw "http://ns.adobe.com/SaveForWeb/1.0/">
	<!ENTITY ns_custom "http://ns.adobe.com/GenericCustomNamespace/1.0/">
	<!ENTITY ns_adobe_xpath "http://ns.adobe.com/XPath/1.0/">
]>
<svg version="1.1" id="Layer_1" xmlns:x="&ns_extend;" xmlns:i="&ns_ai;" xmlns:graph="&ns_graphs;"
	 xmlns="http://www.w3.org/2000/svg" xmlns:xlink="http://www.w3.org/1999/xlink" x="0px" y="0px" viewBox="0 0 500 500"
	 style="enable-background:new 0 0 500 500;" xml:space="preserve">
<style type="text/css">
	.st0{opacity:0.15;enable-background:new    ;}
	.st1{fill:#ED702D;}
	.st2{fill:none;stroke:#263238;stroke-width:1.9849;stroke-linecap:round;stroke-linejoin:round;}
	.st3{fill:#FFFFFF;stroke:#263238;stroke-width:1.9849;stroke-linecap:round;stroke-linejoin:round;}
	.st4{fill:#ED702D;stroke:#263238;stroke-width:1.9849;stroke-linecap:round;stroke-linejoin:round;}
	.st5{opacity:0.5;fill:#FFFFFF;enable-background:new    ;}
	.st6{opacity:0.1;enable-background:new    ;}
	.st7{fill:#BA68C8;}
	.st8{opacity:0.6;enable-background:new    ;}
	.st9{fill:#263238;}
	.st10{fill:none;stroke:#FFFFFF;stroke-width:1.9849;stroke-linecap:round;stroke-linejoin:round;}
	.st11{fill:#BFBFBF;stroke:#263238;stroke-width:1.9849;stroke-miterlimit:10;}
	.st12{fill:#999999;stroke:#263238;stroke-width:1.9849;stroke-linecap:round;stroke-linejoin:round;}
	.st13{fill:#757575;}
	.st14{clip-path:url(#SVGID_2_);}
	.st15{opacity:0.3;}
	.st16{opacity:0.2;enable-background:new    ;}
	
		.st17{opacity:0.3;fill:none;stroke:#FFFFFF;stroke-width:1.9849;stroke-linecap:round;stroke-linejoin:round;enable-background:new    ;}
	.st18{clip-path:url(#SVGID_4_);}
	.st19{opacity:0.2;fill:#ED702D;enable-background:new    ;}
	.st20{clip-path:url(#SVGID_6_);}
	.st21{clip-path:url(#SVGID_8_);}
</style>
<metadata>
	<sfw  xmlns="&ns_sfw;">
		<slices></slices>
		<sliceSourceBounds  bottomLeftOrigin="true" height="381.9" width="422.4" x="31.5" y="46.3"></sliceSourceBounds>
	</sfw>
</metadata>
<g id="Directions-bro_1_" transform="translate(-21.427 -41.836)">
	<g id="freepik--background-simple--inject-909_2_" transform="translate(25.806 29.116)" class="st0">
		<path id="Path_12149_1_" class="st1" d="M127.1,450.8c22.3,23.5,76.9,14.9,100.6,0c76.9-48.4,211.6-128.8,217.7-245.5
			c2.6-49.6-41.1-75.6-59.4-83.2c-43.8-18.3-91.9-23.8-139.4-26c-49.6-2.2-102.8-0.5-147.5,23.7c-16.9,9.1-32.9,20.9-43.8,37
			c-11,16.5-17.6,35.5-19.2,55.3c-2.7,31.6,5.8,63.3,18.6,92.3s30,55.9,45.7,83.4C110.8,405.8,108.4,430.9,127.1,450.8z"/>
	</g>
	<g id="freepik--Buildings--inject-909_2_" transform="translate(22 42.336)">
		<path id="Path_12151_1_" class="st2" d="M325,381.2c0.3-81.5,0.3-172,0-253"/>
		<path id="Path_12152_1_" class="st2" d="M340.2,103c0.2,90.1,0.2,169.3,0,259.4"/>
		<path id="Path_12153_1_" class="st2" d="M325,108.9v-33c2.4-1,5-1.4,7.5-1.3c2.6-0.2,5.2,0.3,7.5,1.3v9.2"/>
		<path id="Path_12154_1_" class="st2" d="M420,74.5l3.1,1.3l-20,17l-63,10.3l-3-0.9"/>
		<path id="Path_12155_1_" class="st2" d="M337.2,85.7l61-13.4l21.9,2.2l-18.8,16.8l-64,10.8V85.7z"/>
		<path id="Path_12156_1_" class="st2" d="M275.9,98.1l-2.6,1.5l15.5,18.5l36.2,10.1l3.9-1"/>
		<path id="Path_12157_1_" class="st2" d="M328.9,110.4l-37.6-14.5l-15.4,2.2l15.9,19l37.1,10.1L328.9,110.4z"/>
		<line id="Line_40_1_" class="st2" x1="207.6" y1="120.9" x2="207.6" y2="442.6"/>
		<path id="Path_12158_1_" class="st2" d="M119.3,96.5c29.6,7,58.8,17.4,88.3,24.5"/>
		<path id="Path_12159_1_" class="st2" d="M84.9,114.6c40.4,9.7,81.9,20,122.7,30.4"/>
		<path id="Path_12160_1_" class="st2" d="M58.5,136.4c48.9,11.4,98.8,21.8,149.1,32.6"/>
		<path id="Path_12161_1_" class="st2" d="M43.4,162c54.5,10.4,109.2,20.7,164.2,31"/>
		<line id="Line_41_1_" class="st2" x1="31.9" y1="189" x2="207.6" y2="217"/>
		<line id="Line_42_1_" class="st2" x1="31.9" y1="218.1" x2="207.6" y2="241"/>
		<path id="Path_12162_1_" class="st2" d="M36,247.7c57.2,4.8,113.8,12.4,171.6,17.4"/>
		<path id="Path_12163_1_" class="st2" d="M44.1,277.4c44.4,3.5,88.7,5.4,134,10.1c9.9-0.3,19.7,0.3,29.5,1.7"/>
		<path id="Path_12164_1_" class="st2" d="M55.1,306.6c51.3,2.5,101.3,5.3,152.5,6.5"/>
		<path id="Path_12165_1_" class="st2" d="M68.8,335.3c46.1,0.2,92.3,1.2,138.8,1.8"/>
		<path id="Path_12166_1_" class="st2" d="M84.8,363.1c40.4-0.2,82-1.2,122.8-2"/>
		<path id="Path_12167_1_" class="st2" d="M98.9,390.1c35.9-1.7,72.6-3.6,108.8-4.9"/>
		<line id="Line_43_1_" class="st2" x1="196.5" y1="132.9" x2="196.5" y2="412.8"/>
		<line id="Line_44_1_" class="st2" x1="143.7" y1="108.7" x2="143.7" y2="282.6"/>
		<line id="Line_45_1_" class="st2" x1="83.6" y1="132.1" x2="83.6" y2="324.3"/>
		<path id="Path_12168_1_" class="st2" d="M445.7,139.1l-92.3,10.7v216.4"/>
		<path id="Path_12169_1_" class="st2" d="M452.2,166.9l-86.6,7.2v172.9"/>
		<line id="Line_46_1_" class="st2" x1="452.2" y1="209" x2="368.2" y2="215"/>
		<line id="Line_47_1_" class="st2" x1="439.8" y1="245.7" x2="370.6" y2="250.2"/>
		<line id="Line_48_1_" class="st2" x1="399.6" y1="177.7" x2="399.6" y2="310.4"/>
		<path id="Path_12170_1_" class="st2" d="M120.3,421.8c2.7,5.8,6.3,11.1,10.6,15.7c22.3,23.5,77.9,14.9,101.6,0
			c7.8-4.9,15.2-10.1,24-15.7"/>
	</g>
	<g id="freepik--Map--inject-909_2_" transform="translate(43.436 89.9)">
		<path id="Path_12171_1_" class="st3" d="M320.7,214.6l-8.7,33.8l15.1,87.9h-0.1l-0.4,0.1c-6.4,1.4-75.6,16.5-79,16.2
			c-3.5-0.3-59.2-8.8-59.2-8.8l-49.2,5.8L99.8,332l-36.5,6.4L53,209.7c0,0,7.7-63,4.2-79.9c0,0,60.7,8.7,66.3,9.3
			c5.6,0.6,70.9-20,70.9-20l55.1,18.3l46.2-5.8l68.3,32C364,163.5,319.6,207.7,320.7,214.6z"/>
		<path id="Path_12172_1_" class="st4" d="M64.2,135.3l59.3,8.3l70-17.2l56,15.7l43.9-4.7l60.9,26.1c0,0-34.6,42.9-36,45.7
			s-12.4,39.2-12.4,39.2l14.7,83.7l-71,15.6l-59.7-9.6l-47.4,4.2L102.1,325l-33.4,7L57.9,211.6C57.9,211.6,67.8,162.6,64.2,135.3z"
			/>
		<path id="Path_12173_1_" class="st3" d="M270.7,180.3l9.6-2.3l46.6,19.9c2.3-2.9,4.9-6.2,7.5-9.5L283.9,167l-10.6,3l6.7-31.2
			l-8.8,0.9l-8.1,33.1l-26.2,7.3l-50.3,4.4l-20.1,10l0.9-29.4l24.6-11.6l28.6,5.5l4.9-23.7l-8.7-2.4l-2.8,17.2l-22.1-4.7l-24.3,11
			l0.8-23.8l-11.7,2.8v63.9l-29.8,14.8v-71.4l-3.4,0.8l-7.4-1l1.3,24.4H97.1l-32.3-25.3c0.2,3.6,0.2,7.5,0.1,11.5l28.7,24h24.2
			l0.9,18.2l-0.9,7.5l-59.5,15.1l0.3,3.4l58.7-14.8l-1.4,11.7l-56.4,13.9l1,11.6l29.9-7.9l2.8,35.6l-27.5,29.1l1.1,11.9l9.7-10.3
			l2.2,27.4l2.8-0.6l-1.9-30L99.8,278l9.7-2.5l38.5-12.4l-0.8,5.6l-21.4,66.4l8.2,3.5l11.2-36.2l16.6-3.1l33.3,14.4l15.4,1
			l-2.6,26.3l4.1,0.7l1.8-26.7l38.7,2.5l28-4l3.6,26.6l7.2-1.6l-3.5-26.1l28.5-4.1l-1.4-8.2l-60.7,8l-24.5-2.2l3.5-33l21.3-11.6h6.6
			l47.8,4.8l-1.7-9.7l-44.7-4.2h-10.3l5.2-31.5L270.7,180.3z M112.2,264.3L96,269.1l-2.2-33.8l25-6.6l37.3-19.3l-6.1,40.8
			L112.2,264.3z M164.8,290.1l-16.8,3.3l7-22.4l10.6-66.4l21.3-11l8.3,33.5L192,255l-9.3,42.3L164.8,290.1z M241.9,259.4l-14.6,6.9
			l-5.4,38.9l-24.5-2.2l-8.4-3.4l9.4-42l3.7-29.1h16.9l28.2-4.7L241.9,259.4z M248.4,217.2l-28.3,5.8h-22.8l-6.8-30l44.4-4.1
			l25.1-6.1L248.4,217.2z"/>
		<path id="Path_12174_1_" class="st5" d="M260,244.1l2.6-20.2l32.6,7.2l-2.7,17.2L260,244.1z"/>
		<path id="Path_12175_1_" class="st5" d="M280.2,223l6.7-18.5l24.6,9.3l-5.6,19.2L280.2,223z"/>
		<path id="Path_12176_1_" class="st5" d="M274.9,182.9h2.7l10.3,4.7l-10.3,31.2l-9.6-2.9l-3.1-0.7L274.9,182.9z"/>
		<path id="Path_12177_1_" class="st5" d="M295.2,191.1l24,9.6l-4,6.9l-22.7-6.9L295.2,191.1z"/>
		<path id="Path_12178_1_" class="st5" d="M280.2,163.5l4.7-21.4l7.7-1.2l11.3,4.5l-8,22l-10.8-4H280.2z"/>
		<path id="Path_12179_1_" class="st5" d="M300.9,169.8l5-12.3l33.6,15.3l-6.7,10.1L300.9,169.8z"/>
		<path id="Path_12180_1_" class="st5" d="M229.2,140.9L247,146l-5.4,28.4h-18.4L229.2,140.9z"/>
		<path id="Path_12181_1_" class="st5" d="M251.6,146.8l13.3-2.3l-4.9,25.2l-13,3.4L251.6,146.8z"/>
		<path id="Path_12182_1_" class="st5" d="M219.6,163.5l-1.6,12.3l-29,1.3l-17.5,9v-16.3l21.1-10.9L219.6,163.5z"/>
		<path id="Path_12183_1_" class="st5" d="M172.7,135.3l21-5.5l-1.6,12.3l-20.6,8L172.7,135.3z"/>
		<path id="Path_12184_1_" class="st5" d="M196.4,142.1l15.2,3.3l2.4-11.3l-15.7-2.7L196.4,142.1z"/>
		<path id="Path_12185_1_" class="st5" d="M130.7,145.4v18.1l22-6v-16.6L130.7,145.4z"/>
		<path id="Path_12186_1_" class="st5" d="M132.2,170.2v35.7l12.1-5.1l-1.9-22l10.2-3v-12.3L132.2,170.2z"/>
		<path id="Path_12187_1_" class="st5" d="M95.3,181.5l1.7,23l16-3.7l2.6-7.2v-12.1H95.3z"/>
		<path id="Path_12188_1_" class="st5" d="M69.4,163.5l21.1,16.3v11.3l-23.8,1.8C66.7,192.9,69.7,173.1,69.4,163.5z"/>
		<path id="Path_12189_1_" class="st5" d="M66.7,197.4l21.7-2v11l-25.5,7L66.7,197.4z"/>
		<path id="Path_12190_1_" class="st5" d="M95.3,144.6v15.6l17.7,1.3l-0.7-16.1L95.3,144.6z"/>
		<path id="Path_12191_1_" class="st5" d="M169.2,207.7l15.2-7.1l4.6,25.8l-22.8,4L169.2,207.7z"/>
		<path id="Path_12192_1_" class="st5" d="M172.7,234.4l-1.2,17.7l15.8-1.7v-20L172.7,234.4z"/>
		<path id="Path_12193_1_" class="st5" d="M218,195.4l-2.1,23.2h8.6l19.1-3.2l11-28l-20.9,6.1L218,195.4z"/>
		<path id="Path_12194_1_" class="st5" d="M196.4,196.8v6.3l15.9-0.5v-7.2L196.4,196.8z"/>
		<path id="Path_12195_1_" class="st5" d="M219.6,237.1l-1.6,18.6l20.9-3.7l2.7-21.6L219.6,237.1z"/>
		<path id="Path_12196_1_" class="st5" d="M201.3,261.4l14.7,1l-3.7,37.4l-14.1-0.4l-5.3-1.9L201.3,261.4z"/>
		<path id="Path_12197_1_" class="st5" d="M206.1,234.4l9.9,1.4l-1.9,12.5h-9.7L206.1,234.4z"/>
		<path id="Path_12198_1_" class="st5" d="M284.9,269.1l19,1.8l4.3,22.9l-23.3,0.5V269.1z"/>
		<path id="Path_12199_1_" class="st5" d="M241.6,276.7l18.4-1.5l2.6,26.8h-24L241.6,276.7z"/>
		<path id="Path_12200_1_" class="st5" d="M292.5,317.4l2.7,12.2l13-2.1l-2.3-12.7L292.5,317.4z"/>
		<path id="Path_12201_1_" class="st5" d="M250.6,322.2l25.8-3.1l1.2,14.3l-28.1,7l-15.9-1.9l5.5-17.5L250.6,322.2z"/>
		<path id="Path_12202_1_" class="st5" d="M117,280.6l21-3.8l-1.4,14.5l-5.9,14.1l-15.1,4L117,280.6z"/>
		<path id="Path_12203_1_" class="st5" d="M98.7,239.3v11.5l16.2-2.4l8.7-3.3l-0.4-14.6l-5.9,3.9L98.7,239.3z"/>
		<path id="Path_12204_1_" class="st5" d="M65,248.3l21.3-5.2l2.1,22l-20.4,4L65,248.3z"/>
		<path id="Path_12205_1_" class="st5" d="M66.5,287.5l12.2-10.8l3.2,2.9l-12.6,12.1L66.5,287.5z"/>
		<path id="Path_12206_1_" class="st5" d="M69.7,317.4l6-1.4l1.1,12l-5.9,0.9L69.7,317.4z"/>
		<path id="Path_12207_1_" class="st5" d="M85.4,324.7l-1.1-21l14.5-1.7v20.7L85.4,324.7z"/>
		<circle id="Ellipse_1412_1_" class="st5" cx="176.5" cy="268.6" r="8.1"/>
		<path id="Path_12208_1_" class="st6" d="M320.7,214.6l-8.7,33.8l15.1,87.9H327l-0.4,0.1l-79,16.2l20.5-138.4l27.4-82.6l68.3,32
			C363.9,163.5,319.6,207.7,320.7,214.6z"/>
		<path id="Path_12209_1_" class="st6" d="M249.5,137.3l-20.9,74.1l-18.2,32.2l-21.8,100l-49.2,5.8l36.2-84.3l8.6-63l10.9-82.8
			L249.5,137.3z"/>
		<path id="Path_12210_1_" class="st6" d="M123.1,139.1l-1.5,68.9l-20.7,124.6l-1-0.5l-36.5,6.4l-9.5-118.7l57.1-22.1l9.4-59
			L123.1,139.1z"/>
	</g>
	<g id="freepik--Directions--inject-909_2_" transform="translate(62.903 91.258)">
		<path id="Path_12211_1_" class="st7" d="M246.3,175c-0.3-0.3-0.8-0.5-1.2-0.3l-28.7,7.4l-48.7,3.7c-0.2,0-0.3,0.1-0.5,0.1
			l-64,32.8l0.9-20.8v-28.1c0-0.7-0.6-1.3-1.3-1.3H90c-0.7,0-1.3,0.6-1.3,1.3c0,0.7,0.6,1.3,1.3,1.3h11.6v26.7l-1,22.9
			c0,0.5,0.2,0.9,0.6,1.1c0.4,0.2,0.9,0.3,1.3,0.1l65.7-33.7l48.6-3.7c0.1,0,0.1,0,0.2,0l26.6-6.9l-11.5,40.6c0,0,0,0.1,0,0.1
			l-1.9,11.2h-1.1c-0.2,0-0.4,0.2-0.4,0.4c0,0,0,0.1,0,0.1l1.6,4.4c0.1,0.2,0.3,0.4,0.5,0.3c0.1,0,0.2-0.1,0.3-0.2l3-4.3
			c0.2-0.3,0-0.6-0.4-0.6h-0.9l1.8-10.8l12.1-42.7C246.8,175.8,246.7,175.3,246.3,175z"/>
		<path id="Path_12212_1_" class="st8" d="M246.3,175c-0.3-0.3-0.8-0.5-1.2-0.3l-28.7,7.4l-48.7,3.7c-0.2,0-0.3,0.1-0.5,0.1
			l-64,32.8l0.9-20.8v-28.1c0-0.7-0.6-1.3-1.3-1.3H90c-0.7,0-1.3,0.6-1.3,1.3c0,0.7,0.6,1.3,1.3,1.3h11.6v26.7l-1,22.9
			c0,0.5,0.2,0.9,0.6,1.1c0.4,0.2,0.9,0.3,1.3,0.1l65.7-33.7l48.6-3.7c0.1,0,0.1,0,0.2,0l26.6-6.9l-11.5,40.6c0,0,0,0.1,0,0.1
			l-1.9,11.2h-1.1c-0.2,0-0.4,0.2-0.4,0.4c0,0,0,0.1,0,0.1l1.6,4.4c0.1,0.2,0.3,0.4,0.5,0.3c0.1,0,0.2-0.1,0.3-0.2l3-4.3
			c0.2-0.3,0-0.6-0.4-0.6h-0.9l1.8-10.8l12.1-42.7C246.8,175.8,246.7,175.3,246.3,175z"/>
		<path id="Path_12213_1_" class="st9" d="M95.7,124.5L95.7,124.5c-5.4-5.4-14.1-5.4-19.5,0c0,0,0,0,0,0l0,0
			c-5.4,5.4-5.4,14.1,0,19.5l9.8,9.7l9.7-9.7C101.1,138.6,101.1,129.9,95.7,124.5C95.7,124.5,95.7,124.5,95.7,124.5z M90,138.3
			L90,138.3c-2.2,2.2-5.8,2.2-8,0c-2.2-2.2-2.2-5.8,0-8c2.2-2.2,5.8-2.2,8,0l0,0C92.3,132.4,92.3,136,90,138.3
			C90.1,138.2,90,138.3,90,138.3z"/>
		<path id="Path_12214_1_" class="st10" d="M76.2,140.3c1.1,2.2,2.6,4.2,4.5,5.7"/>
		<path id="Path_12215_1_" class="st10" d="M79.6,124.4c-4.4,2.8-6.3,8.4-4.4,13.3"/>
		<path id="Path_12216_1_" class="st10" d="M86,122.5c-1.2,0-2.4,0.2-3.5,0.5"/>
		<path id="Path_12217_1_" class="st9" d="M220.1,212.1L220.1,212.1c-5.4-5.4-14.1-5.4-19.5,0c0,0,0,0,0,0l0,0
			c-5.4,5.4-5.4,14.1,0,19.5c0,0,0,0,0,0l9.7,9.7l9.8-9.7C225.5,226.2,225.5,217.5,220.1,212.1C220.1,212.1,220.1,212.1,220.1,212.1
			z M214.3,225.9L214.3,225.9c-2.2,2.2-5.8,2.2-8,0c-2.2-2.2-2.2-5.8,0-8c2.2-2.2,5.8-2.2,8,0l0,0
			C216.6,220,216.6,223.6,214.3,225.9C214.4,225.9,214.4,225.9,214.3,225.9z"/>
		<path id="Path_12218_1_" class="st10" d="M200.6,227.9c1.1,2.2,2.6,4.2,4.5,5.7"/>
		<path id="Path_12219_1_" class="st10" d="M203.9,212c-4.7,2.8-5.9,8.3-4.4,13.3"/>
		<path id="Path_12220_1_" class="st10" d="M210.3,210.1c-1.2,0-2.4,0.2-3.5,0.5"/>
	</g>
	<g id="freepik--Character--inject-909_2_" transform="translate(41.735 131.995)">
		<path id="Path_12221_1_" class="st11" d="M322.4,172.4c-1.1,0.5-10.4,1.6-10.4,1.6c0.2-2.2,4.9-6.2,4.9-8.4
			c0.1-0.9-0.5-1.7-1.3-1.8c-0.2,0-0.4,0-0.7,0c-0.4,2.9-7.8,8.2-9.3,8.9c-1.6,0.7-5.8,14.9-8.1,17.1
			c-17.9,17.9-34.9,28.2-41.2,40.6c-4.1,7.7-10,14.1-17.3,18.8c0,0-3.7,47.1,10.3,26.2c14-20.9,19-19.7,26-29
			c7-9.3,20.6-30.6,31.3-48.5c5.4-4.6,9.7-2.5,13-5.8c0.7-0.7,0.2-3.6,1.3-5.4c1.1-1.9,2.9-5.2,2.7-7.2c-0.2-2,1.6-3.1,1.8-4.2
			C325.6,174,323.6,172,322.4,172.4z"/>
		<path id="Path_12222_1_" class="st11" d="M107.4,238c-3.6-13.4-18.1-27-31.9-48.2c-1.8-2.7-3-17.4-4.3-18.4
			c-1.4-0.9-7.5-7.7-7.3-10.6c-0.8-0.4-1.7-0.1-2.1,0.7c-0.1,0.2-0.2,0.4-0.2,0.6c-0.5,2.2,3.3,7,3,9.3c0,0-8.9-3-9.9-3.7
			c-1-0.7-3.4,0.9-3.4,2s1.5,2.6,0.9,4.5s0.4,5.6,1.1,7.6c0.7,2.1-0.4,4.7,0.2,5.6c2.6,4,7.1,2.7,11.5,8.4
			c6.7,19.7,15.7,43.3,20.6,53.9c4.9,10.6,10.1,10.4,19.4,33.8c9.4,23.4,15.5-23.5,15.5-23.5C114.3,253.9,109.8,246.3,107.4,238z"/>
		<path id="Path_12223_1_" class="st12" d="M113.3,244.3c0,0,2.4-5.7-2.1-7.5c-4.5-1.8-10.2,1.5-10.2,1.5c-4.9,1.4-8.4,5.8-8.7,10.9
			c0,0-1.9,29.6,5.1,29.7C104.4,278.9,113.3,244.3,113.3,244.3z"/>
		<path id="Path_12224_1_" class="st12" d="M243.3,245.4c0,0-0.4-4.6,5.3-4c5.7,0.6,10.3,8.7,10,20c0,0,2.6,14.4-4.4,14
			C247.3,274.9,243.3,245.4,243.3,245.4z"/>
		<path id="Path_12225_1_" class="st13" d="M134,270.9c0,0-19.3-22.5-22.8-30.3c0,0-13.3-0.4-15.1,11.2c-1,7.8-1,15.7,0,23.5
			c0,0,13.1,35.7,18.5,49.3L134,270.9z"/>
		<g>
			<defs>
				<path id="SVGID_1_" d="M134,270.9c0,0-19.3-22.5-22.8-30.3c0,0-13.3-0.4-15.1,11.2c-1,7.8-1,15.7,0,23.5
					c0,0,13.1,35.7,18.5,49.3L134,270.9z"/>
			</defs>
			<clipPath id="SVGID_2_">
				<use xlink:href="#SVGID_1_"  style="overflow:visible;"/>
			</clipPath>
			<g id="Group_16893_1_" transform="translate(22.179 40.332)" class="st14">
				<g id="Group_16888_1_" transform="translate(3.222 8.904)" class="st15">
					<path id="Path_12226_1_" class="st1" d="M101.8,213.5c-3.1,0.4-6.2,1.4-8.9,3c-0.7,0.4-1.5,0.8-2.2,1.3c-0.7,0.5-1.3,1-1.9,1.6
						c-3,3.4-5.1,7.6-5.9,12.1c-0.6,2.6-1.1,5.2-1.4,7.9c-0.5,4.6-0.7,9.3-0.6,14c-1.6-4.3-3.2-8.5-4.6-12.4l0,0
						c0.3-2.9,0.7-5.8,1.3-8.6l0,0c0.5-2.3,1.1-4.5,1.9-6.7c1.3-4,3.5-7.6,6.5-10.5c0.6-0.6,1.3-1.1,2-1.5c0.7-0.5,1.5-0.9,2.2-1.4
						c2.5-1.5,5.3-2.6,8.1-3.3L101.8,213.5z"/>
				</g>
				<g id="Group_16889_1_" transform="translate(0.08 4.269)" class="st15">
					<path id="Path_12227_1_" class="st1" d="M97.6,208.8c-2.6,0.7-5.2,1.7-7.6,2.8c-0.9,0.4-1.7,0.8-2.7,1.2
						c-0.7,0.3-1.3,0.7-1.9,1.1c-3.2,2.6-5.6,6.1-6.8,10.1c-0.8,2.2-1.4,4.4-1.8,6.7c-0.4,1.9-0.6,3.8-0.9,5.6l-2-5.5
						c0,0-0.3-2.2-0.6-5.5c0-0.4,0-0.7-0.1-1c0.6-1.8,1.2-3.5,2-5.2c1.7-3.8,4.3-7,7.6-9.4c0.7-0.5,1.4-0.9,2.1-1.2
						c0.8-0.4,1.6-0.8,2.4-1.1c2.2-1,4.6-1.9,6.9-2.7C95.4,205.9,96.4,207.4,97.6,208.8z"/>
				</g>
				<g id="Group_16890_1_" transform="translate(0.203 0.015)" class="st15">
					<path id="Path_12228_1_" class="st1" d="M90.6,203.5c-2.2,0.6-4.2,1.4-6.2,2.4c-1.5,0.8-2.9,1.7-4.3,2.7
						c-2.5,1.9-4.7,4-6.7,6.3c0.1-1.1,0.2-2.3,0.4-3.4c0.4-2.9,1.7-5.5,3.9-7.4l0,0l0.1-0.1c1-0.7,2.1-1.4,3.1-2
						c0.4-0.2,0.8-0.5,1.2-0.7l0.1,0.2c0.7-0.3,1.5-0.5,2.3-0.7c1.4-0.3,2.9-0.5,4.4-0.5C89.3,201.4,89.9,202.4,90.6,203.5z"/>
				</g>
				<g id="Group_16891_1_" transform="translate(2.428 0.514)" class="st15">
					<path id="Path_12229_1_" class="st1" d="M100,232.8l-3.8,3.4c-2.4-2.6-4.6-5.4-6.6-8.3c-1-1.4-1.9-2.8-2.9-4.2
						c-1.3-1.9-2.5-3.9-3.6-5.9c-0.9-1.5-1.7-2.9-2.5-4.4c-0.9-1.7-1.9-3.5-2.7-5.1c-0.8-1.7-1.6-3.2-2.3-4.7l0,0c1-0.8,2-1.5,3.1-2
						c0.4-0.2,0.8-0.5,1.2-0.7l0.1,0.2c0.7,1.4,1.4,2.9,2.2,4.5c0.9,1.8,1.9,3.7,2.9,5.5c0.8,1.5,1.6,2.9,2.5,4.4
						c1.1,1.8,2.2,3.6,3.3,5.3c0.9,1.4,1.9,2.8,2.8,4.2C95.6,227.6,97.7,230.3,100,232.8z"/>
				</g>
				<g id="Group_16892_1_" transform="translate(0.018 9.906)" class="st15">
					<path id="Path_12230_1_" class="st1" d="M97.5,254.6l-4.9,1.4c-2-6.1-4.7-12-7.9-17.6c-1.3-2.3-2.6-4.7-4-7l0,0
						c-1.3-2.2-2.6-4.3-3.9-6.4c-1.1-1.9-2.3-3.7-3.5-5.5c0-0.4,0-0.7-0.1-1c-0.1-2.4-0.2-5.3-0.1-8.5l2.2,3.3
						c1.1,1.6,2.2,3.3,3.3,5.1c1.3,2.1,2.7,4.2,4,6.3c1.2,1.9,2.4,3.9,3.5,5.9C90.8,238.2,94.6,246.2,97.5,254.6z"/>
				</g>
				<path id="Path_12231_1_" class="st16" d="M97.1,271.5l-4.6,12.8C87.1,270.7,74,235,74,235c-1-7.8-1-15.7,0-23.5
					c0.8-5.5,5.2-9.9,10.7-10.7c0.2,0,0.5,0.1,0.7,0.2c0,0-10.5,6.7-9.4,32.6l10.2,28.3c0,0,1.1-9.9,5.2-8.4
					C93.2,254.1,95.7,262.3,97.1,271.5z"/>
			</g>
		</g>
		<path id="Path_12233_1_" class="st2" d="M134,270.9c0,0-19.3-22.5-22.8-30.3c0,0-13.3-0.4-15.1,11.2c-1,7.8-1,15.7,0,23.5
			c0,0,13.1,35.7,18.5,49.3L134,270.9z"/>
		<path id="Path_12234_1_" class="st11" d="M175.6,250.8c-0.1,0.4-0.5,0.7-1.1,0.9c-1.8,0.5-3.8,0.6-5.7,0.4
			c-12-0.7-36.4-7.8-42.3-22c-6.2-15.2,9.7-35,26.8-35.4c9.8-0.2,18.1,11.3,20.1,24.9C174.4,226.3,180,231.7,175.6,250.8z"/>
		<path id="Path_12235_1_" class="st2" d="M167.2,228.9c-0.7,1.2-0.9,2.7-0.7,4.1"/>
		<path id="Path_12236_1_" class="st2" d="M167.3,236.8c0,0,1.7,2.4,3,1.3"/>
		<path id="Path_12237_1_" class="st9" d="M174.4,251.8c-1.8,0.5-3.8,0.6-5.7,0.4c0.2-1.8,0.7-3.8,0.9-4.9c0.5-3.3-1.2-4.3-0.5-4.5
			s0.6,2.7,2,4.2C172.5,248.4,173.6,250,174.4,251.8z"/>
		<path id="Path_12238_1_" class="st11" d="M169.7,249.3c-1.1,4-1.7,8.2-1.9,12.4c0.3,3.2,0.9,6.3,1.7,9.4l-25.9,1.5
			c0,0,3.9-18.7,1.8-25.2s16.6-4.2,16.6-4.2"/>
		<path id="Path_12239_1_" class="st9" d="M166.7,210.8c1.1-3.5,3-3.2,3-3.2s-1.3-16.9-8.5-18.7c-4.9-1.2-6.2,6.1-11.3,0.8
			c-3-3.1-7.8-3.6-11.5-1.3c-2,1.5-2,3.6-3.3,5.4c-1.4,1.8-4.2,1.8-6.3,2.2c-3.4,0.6-6.2,3.1-7.1,6.4c-0.5,2.8,2.8,4.9,2.2,7.2
			c-0.8,2.7-3.3,4.3-4.9,6.6c-1.7,2.8-2.2,6.2-1.3,9.3c1.1,4.7,3.5,6.5,7.2,8.9c1.7,1.4,3.2,3.2,4.2,5.2c3.9,6.1,8.6,10.6,16,11.8
			c14.9,2.5,21.6-11.2,21.6-11.2s-1.7-13.6-0.5-15.2c1.2-1.6,3.8,3.8,3.8,3.8C173.2,220.5,166.7,210.8,166.7,210.8z"/>
		<path id="Path_12240_1_" class="st11" d="M170.2,230.9c-0.5-1.7-0.1-8.5-2.2-7.9c-1.8,0.6-0.9,7.6,0.9,12.3
			c1.9,4.7,4.2,4.7,4.3,3.3s-1.5-2.2-1.9-4.2"/>
		<path id="Path_12241_1_" class="st17" d="M165.7,202.3c0,0,0.8-7.8-4.4-7.5c-5.3,0.2-5,7.5-5,7.5s-4.4-1.5-5.9,1
			c-1.5,2.5,0,7.7,0,7.7s-4.7,1.5-3.6,4.7c0.6,1.2,0.2,2.7-1,3.4c-0.3,0.1-0.6,0.2-0.9,0.3"/>
		<path id="Path_12242_1_" class="st17" d="M164.5,208.6c0,0-0.8,6.9-5.7,7c0,0-5.1,15.5-22.2,15.2"/>
		<path id="Path_12243_1_" class="st17" d="M151.3,193.7c-2.4-2.1-5.8-2.7-8.7-1.4c-4.8,2.3-1.6,8.7-1.6,8.7s-4.6-0.3-6.1,3.2
			s3,5.8,3,5.8s-5.1,2.7-3,4.9c2.2,2.2,0,6.5,0,6.5"/>
		<path id="Path_12244_1_" class="st17" d="M131.5,201c0,0-7.2,2.3-5.7,7.7s2.7,5.4,2.7,5.4s-5.4,1.9-5.7,5.8
			c-0.3,3.9,4.3,3.7,4.3,3.7c-0.9,2.1,0.1,4.5,2.2,5.3c0,0,0.1,0,0.1,0.1"/>
		<path id="Path_12245_1_" class="st13" d="M134,268.5c0,0,17.4-12.3,48.9,0.6l23.7-5.5c0,0,15.3,41.6,6.1,84.3
			c0,0-20.6,14.7-55,14.7c-37.3-0.1-46.6-14.7-46.6-14.7l5.3-13.6c-3.2-15.5-7.4-40.5-4.2-53.4C117.2,261.3,134,268.5,134,268.5z"/>
		<g>
			<defs>
				<path id="SVGID_3_" d="M134,268.5c0,0,17.4-12.3,48.9,0.6l23.7-5.5c0,0,15.3,41.6,6.1,84.3c0,0-20.6,14.7-55,14.7
					c-37.3-0.1-46.6-14.7-46.6-14.7l5.3-13.6c-3.2-15.5-7.4-40.5-4.2-53.4C117.2,261.3,134,268.5,134,268.5z"/>
			</defs>
			<clipPath id="SVGID_4_">
				<use xlink:href="#SVGID_3_"  style="overflow:visible;"/>
			</clipPath>
			<g id="Group_16904_1_" transform="translate(30.182 51.737)" class="st18">
				<g id="Group_16894_1_" transform="translate(43.104 0.697)" class="st15">
					<path id="Path_12246_1_" class="st1" d="M131.6,299.9c-1.4,0.7-3.1,1.4-4.9,2.2c-0.2-1.8-0.3-3.6-0.4-5.3s-0.3-3.6-0.4-5.4
						c-0.4-5.3-0.7-10.5-1-15.3c-0.1-1.9-0.2-3.7-0.3-5.4c-0.4-7.3-0.7-14-0.8-20.1c-0.1-2-0.1-3.9-0.2-5.7
						c-0.1-6.5-0.2-12.2-0.1-17.2c0-2,0-3.8,0.1-5.5c0.1-3.3,0.1-6.2,0.2-8.6l5.1-1.2c-0.1,2.1-0.2,4.6-0.2,7.5l0,0
						c0,1.8-0.1,3.7-0.1,5.7c0,4.7,0,10.3,0.1,16.5c0,1.9,0,3.9,0.1,5.9c0.2,6.2,0.4,13.1,0.8,20.6c0.1,1.8,0.2,3.6,0.3,5.5
						c0.3,4.9,0.6,10,0.9,15.4c0.1,1.8,0.3,3.6,0.4,5.4C131.4,296.4,131.5,298.1,131.6,299.9z"/>
				</g>
				<g id="Group_16895_1_" transform="translate(35.332 2.137)" class="st15">
					<path id="Path_12247_1_" class="st1" d="M124.4,213.6c-0.4,2.8-0.8,6.1-1.2,9.9c-0.2,1.7-0.4,3.6-0.5,5.5
						c-0.5,5.5-0.9,11.9-1.3,18.9c-0.1,1.8-0.2,3.7-0.2,5.7c-0.2,6.2-0.3,12.9-0.3,20c0,1.8,0,3.6,0.1,5.4c0.1,5,0.3,10.2,0.6,15.7
						c0.1,1.7,0.2,3.5,0.3,5.3c0.1,1.6,0.2,3.3,0.4,4.9c-1.6,0.4-3.3,0.8-5,1.2c-0.1-1.5-0.2-3-0.3-4.5c-0.1-1.8-0.2-3.5-0.3-5.2
						c-0.3-5.4-0.5-10.7-0.7-15.9c-0.1-1.8-0.1-3.5-0.1-5.3c-0.1-7,0-13.6,0.2-19.8c0.1-1.9,0.1-3.7,0.2-5.5
						c0.3-7.1,0.7-13.6,1.2-19.3c0.2-1.9,0.3-3.7,0.5-5.4c0.4-3.9,0.8-7.3,1.2-10.3L124.4,213.6z"/>
				</g>
				<g id="Group_16896_1_" transform="translate(26.494 0.645)" class="st15">
					<path id="Path_12248_1_" class="st1" d="M116.3,213.3c-0.5,4-1.1,9.4-1.7,15.9c-0.2,1.7-0.3,3.4-0.5,5.2
						c-0.5,6-0.9,12.7-1.3,20c-0.1,1.7-0.2,3.5-0.2,5.2c-0.3,6.3-0.4,12.9-0.4,19.8v5.2c0,5.5,0.2,11.1,0.4,16.8
						c0.1,1.7,0.1,3.4,0.2,5.1c0,1,0.1,2,0.2,3c-1.6,0.2-3.3,0.3-5,0.4c0-0.8-0.1-1.6-0.1-2.3c-0.1-1.7-0.2-3.4-0.2-5.1
						c-0.3-5.9-0.4-11.7-0.4-17.3v-5.1c0-6.9,0.2-13.5,0.4-19.8c0.1-1.7,0.1-3.5,0.2-5.1c0.3-7.3,0.8-14.1,1.3-20.1
						c0.1-1.8,0.3-3.5,0.4-5.1c0.7-7.3,1.4-13.4,1.9-17.7C113,212.5,114.6,212.9,116.3,213.3z"/>
				</g>
				<g id="Group_16897_1_" transform="translate(17.777 -0.001)" class="st15">
					<path id="Path_12249_1_" class="st1" d="M107.2,310.8c-1.8,0-3.5-0.1-5.1-0.2c0-0.3-0.1-0.6-0.1-0.9c-0.2-1.6-0.3-3.3-0.4-5.1
						c-0.4-5.9-0.5-12.3-0.6-19.1v-0.8c0-1.4,0-2.8-0.1-4.3c-0.1-6.1-0.3-12.7-0.7-19.6c-0.1-1.7-0.2-3.4-0.3-5.1
						c-0.2-2.4-0.4-4.9-0.6-7.4c-0.4-4.5-0.6-8.5-0.7-12.2c0-1.8,0-3.5,0.1-5.1c0.1-6.4,1-12.8,2.8-19c1.8-0.2,3.6-0.3,5.4-0.3
						c-2.1,6.3-3.2,13-3.2,19.7c0,1.6-0.1,3.3,0,5.1c0,3.5,0.3,7.3,0.6,11.5c0.3,2.8,0.5,5.6,0.7,8.4c0.1,1.7,0.2,3.4,0.3,5.1
						c0.4,7,0.5,13.6,0.6,19.8c0,1.2,0,2.4,0.1,3.6v1.5c0.1,6.6,0.2,12.8,0.6,18.5c0.1,1.7,0.3,3.4,0.4,5
						C107.1,310,107.1,310.4,107.2,310.8z"/>
				</g>
				<g id="Group_16898_1_" transform="translate(10.11 1.111)" class="st15">
					<path id="Path_12250_1_" class="st1" d="M98,233.7c-0.2,3.3-0.2,6.6-0.1,9.8c0.2,3.1,0.2,6.1,0.2,9c0,1.8,0,3.5-0.1,5.2
						c-0.2,5.8-0.5,11.4-0.9,17.1c0,0.5-0.1,1-0.1,1.5c-0.1,1.7-0.2,3.5-0.3,5.2c-0.3,4.7-0.5,9.6-0.6,14.9v4.1
						c0,1.9,0.1,3.8,0.2,5.5c0,0.5,0.1,1,0.1,1.5c-1.8-0.4-3.6-0.8-5.2-1.2c0-0.8-0.1-1.5-0.1-2.3c-0.1-1.8-0.1-3.8-0.1-5.8v-1.9
						c0.1-5.9,0.3-11.3,0.7-16.5c0.1-1.8,0.2-3.5,0.4-5.3v-0.2c0.4-6.1,0.8-12,0.9-18.3V251c0-2.3-0.1-4.6-0.2-7.1
						c-0.2-3.8-0.1-7.5,0.1-11.3c0.1-1.7,0.2-3.4,0.4-5.2c0.4-4.4,1-8.7,1.6-12.5c1.5-0.8,3.1-1.5,4.7-2h0c0.2-0.1,0.5-0.2,0.8-0.3
						c-0.8,4.7-1.7,10.3-2.2,16C98.2,230.3,98.1,232,98,233.7z"/>
				</g>
				<g id="Group_16899_1_" transform="translate(3.166 1.23)" class="st15">
					<path id="Path_12251_1_" class="st1" d="M98.6,214.9c0.7,0.2,1.3,0.4,1.6,0.5c-3.4,2.2-5.9,5.5-7,9.4c-0.5,1.7-0.7,3.4-0.8,5.1
						c-0.1,1.2,0,2.4,0.1,3.6c0.4,4.9,0.7,9.7,0.8,14.3c0.1,1.9,0.1,3.8,0.1,5.7c0,6.1-0.3,12.3-0.9,18.4c-0.2,1.8-0.4,3.6-0.6,5.3
						c-0.1,1-0.3,2-0.4,3c-0.6,3.8-1.2,8.3-1.7,13c-0.2,2-0.4,4-0.5,5.9c-0.1,1.3-0.2,2.7-0.3,4c-1.7-0.8-3.3-1.7-4.9-2.7
						c0.1-1.6,0.3-3.3,0.4-4.8c0.2-2.2,0.4-4.3,0.7-6.2c0.7-5.7,1.3-9.8,1.3-9.9c0.2-1.5,0.4-3,0.6-4.5c0.2-1.8,0.4-3.6,0.6-5.4
						c0.6-6.2,0.8-12.4,0.7-18.6c0-2-0.1-4-0.2-6c-0.1-3.5-0.4-7.1-0.7-10.9c-0.2-2.1-0.2-4.2,0-6.3c0.2-1.7,0.5-3.5,1.1-5.1
						c1-3.2,2.8-6,5.1-8.4C95.4,214.2,97,214.4,98.6,214.9L98.6,214.9z"/>
					<path id="Path_12252_1_" class="st7" d="M106.7,212.7"/>
				</g>
				<g id="Group_16900_1_" transform="translate(1.293 2.77)" class="st15">
					<path id="Path_12253_1_" class="st1" d="M178.3,219.3c-2.2,1.2-4.8,2.6-7.9,4c-1.6,0.7-3.3,1.4-5.1,2.2c-2.6,1-5.5,2-8.6,3
						c-1.7,0.5-3.4,1-5.2,1.4c-4,1-8.1,1.8-12.2,2.4c-1.7,0.2-3.4,0.4-5.1,0.6c-3.7,0.4-7.5,0.6-11.6,0.6h-2.6
						c-1.7,0-3.4-0.1-5.1-0.3c-2.8-0.2-5.5-0.6-8.2-1.1c-1.7-0.3-3.4-0.7-5-1.2c-2.5-0.7-5-1.5-7.5-2.5c-1.7-0.7-3.4-1.4-4.9-2.2
						c-2.4-1.2-4.8-2.6-7.1-4.2c0.6-1.6,1.5-3,2.6-4.4c1.8,1.2,3.7,2.4,5.6,3.4c1.5,0.8,3,1.5,4.7,2.2c2.3,1,4.7,1.8,7.1,2.5
						c1.6,0.5,3.2,0.9,5,1.2c2.6,0.5,5.3,0.9,7.9,1.1c1.6,0.2,3.3,0.2,5,0.3h2.5c4,0,8.1-0.2,12.1-0.7c1.7-0.2,3.5-0.4,5.1-0.7
						c4.1-0.6,8.2-1.5,12.2-2.6c1.8-0.5,3.6-1,5.2-1.6c2.9-0.9,5.7-2,8.1-3c1.9-0.8,3.5-1.5,5.1-2.3l0,0c2.5-1.2,4.6-2.4,6.4-3.4
						C177.3,215.7,177.7,217.4,178.3,219.3z"/>
				</g>
				<g id="Group_16901_1_" transform="translate(0.008 11.924)" class="st15">
					<path id="Path_12254_1_" class="st1" d="M183.4,229c-3.7,2.8-7.6,5.3-11.6,7.5c-1.6,0.9-3.2,1.8-5,2.7
						c-3.4,1.7-6.8,3.2-10.4,4.5c-1.7,0.6-3.4,1.2-5.1,1.7c-4,1.2-8.1,2.2-12.3,2.8c-1.7,0.3-3.4,0.5-5.1,0.6
						c-2.3,0.2-4.7,0.3-7.1,0.3c-1.3,0-2.6,0-3.9-0.1c-1.7-0.1-3.4-0.2-5.1-0.4c-0.3,0-0.7-0.1-1-0.1c-3-0.4-5.9-1-8.8-1.7
						c-1.7-0.5-3.4-1-5-1.5c-2.2-0.8-4.4-1.6-6.6-2.6c-1.8-0.8-3.5-1.7-5.1-2.6c-3.7-2.1-7.1-4.5-10.4-7.2c-0.1-2.4-0.1-4.7,0-6.9
						c3.1,3,6.6,5.7,10.3,8.1c1.6,1.1,3.3,2,5.2,3c2.2,1.1,4.4,2.1,6.7,3c1.6,0.6,3.3,1.2,5.1,1.7c3.1,0.9,6.2,1.5,9.3,1.9l0,0
						c1.7,0.2,3.4,0.4,5.1,0.5c3.8,0.2,7.7,0.1,11.5-0.3c1.7-0.2,3.4-0.4,5.1-0.7c4.2-0.7,8.3-1.8,12.3-3.1c1.8-0.6,3.5-1.2,5.1-1.9
						c3.4-1.4,6.8-2.9,10-4.7c1.8-0.9,3.4-1.9,5-2.8c3.7-2.2,7.3-4.7,10.7-7.4C182.8,225.2,183.1,227.1,183.4,229z"/>
				</g>
				<g id="Group_16902_1_" transform="translate(1.203 25.751)" class="st15">
					<path id="Path_12255_1_" class="st1" d="M184.3,241.5v1.1c-3.6,2-7.9,4.1-12.6,6.3c-1.6,0.7-3.2,1.4-4.9,2.1
						c-3.7,1.5-7.6,3-11.7,4.3c-1.6,0.5-3.3,1-5,1.5c-4.1,1.2-8.4,2.1-12.6,2.7c-1.7,0.2-3.4,0.4-5,0.6c-2,0.2-4,0.3-6,0.3
						c-1.3,0-2.6,0-3.9-0.1c-1.5-0.1-3.1-0.3-4.6-0.5l-0.5-0.1c-4-0.6-8-1.5-11.9-2.6c-1.7-0.5-3.3-1.1-5-1.6
						c-2.3-0.8-4.6-1.7-6.7-2.7c-1.6-0.7-3.2-1.5-4.8-2.3c-2-1-3.9-2-5.7-3.1c-0.4-2.1-0.8-4.4-1.1-6.6c2.3,1.5,4.8,2.9,7.4,4.3
						c1.6,0.8,3.2,1.6,4.8,2.4c2.1,1,4.3,1.9,6.5,2.7c1.6,0.6,3.3,1.2,5,1.7c3.7,1.2,7.6,2.1,11.4,2.8c0.4,0.1,0.8,0.1,1.3,0.2
						c1.2,0.2,2.5,0.3,3.8,0.4c3.3,0.2,6.7,0.2,10-0.2c1.7-0.2,3.4-0.4,5.1-0.6c4.2-0.7,8.4-1.6,12.5-2.8c1.7-0.5,3.4-1,5-1.6
						c4-1.3,7.8-2.8,11.5-4.4c1.7-0.7,3.3-1.5,4.9-2.2c4.9-2.3,9.2-4.6,12.8-6.6C184.3,238.3,184.3,239.9,184.3,241.5z"/>
				</g>
				<g id="Group_16903_1_" transform="translate(0.808 37.063)" class="st15">
					<path id="Path_12256_1_" class="st1" d="M183.6,248c-0.1,0.9-0.2,1.9-0.4,2.8c-0.1,0.9-0.3,2.1-0.5,3.2
						c-2.5,1.2-5.7,2.6-9.2,4.2c-1.6,0.7-3.2,1.4-4.9,2.1c-3.8,1.5-7.9,3.1-12.2,4.6c-1.6,0.6-3.3,1.1-5,1.7
						c-4.3,1.4-8.6,2.6-13,3.6c-1.7,0.4-3.3,0.7-5,1c-3.1,0.6-6.2,1-9.3,1.3H124c-1.2,0.1-2.5,0.1-3.7,0.1h-1.4
						c-4.5-0.1-9-0.9-13.3-2.3c-1.8-0.6-3.5-1.2-5.2-2c-4.9-2.2-9.4-5.1-13.6-8.5c-1.8-1.5-3.5-3-5.1-4.7l2.1-5.2
						c1,1.1,2.3,2.4,3.7,3.7c1.4,1.3,2.9,2.5,4.6,3.8c2.6,1.9,5.3,3.7,8.2,5.1c1.6,0.9,3.3,1.6,5.1,2.3c4.2,1.6,8.6,2.5,13.1,2.8
						c1.7,0.1,3.4,0,5-0.1h0.2c3.2-0.3,6.3-0.7,9.4-1.3c1.7-0.3,3.3-0.7,5-1.1c4.3-1,8.7-2.3,12.9-3.7c1.7-0.5,3.3-1.1,5-1.7
						c4.3-1.5,8.4-3.1,12.1-4.7c1.7-0.7,3.4-1.4,4.9-2.1C177.5,251,181.2,249.3,183.6,248z"/>
				</g>
				<path id="Path_12257_1_" class="st16" d="M153,217.3c-6.9,4-23.7,12.5-36.1,11.6c-10-0.8-14.2-7.4-15.1-12.9
					c0.7,0.2,1.4,0.4,2.1,0.7c0,0,17.3-12.3,48.9,0.6L153,217.3z"/>
				<path id="Path_12258_1_" class="st19" d="M130.5,310.8h-2.9C90.3,310.7,81,296.1,81,296.1l5.3-13.6c-2.3-10.6-3.9-21.3-4.9-32.1
					c2.9,6,21.1,41,47.9,40.8C148.4,291.1,139.3,302.7,130.5,310.8z"/>
				<path id="Path_12259_1_" class="st16" d="M185.5,267.2c0,6.9-0.5,13.9-1.5,20.8c-9.9-11.9-6.7-33.4-6.7-33.4
					C178.6,262.9,183,266.1,185.5,267.2z"/>
			</g>
		</g>
		<path id="Path_12261_1_" class="st2" d="M134,268.5c0,0,17.4-12.3,48.9,0.6l23.7-5.5c0,0,15.3,41.6,6.1,84.3
			c0,0-20.6,14.7-55,14.7c-37.3-0.1-46.6-14.7-46.6-14.7l5.3-13.6c-3.2-15.5-7.4-40.5-4.2-53.4C117.2,261.3,134,268.5,134,268.5z"/>
		<path id="Path_12262_1_" class="st2" d="M145.8,275.2c10.9,0.4,24.2,0.3,33.7-5.7"/>
		<path id="Path_12263_1_" class="st2" d="M139.7,274.8c0.9,0.1,2,0.2,2.9,0.2"/>
		<path id="Path_12264_1_" class="st2" d="M148.1,342.7c0.1,1.8,0.3,3.5,0.7,5.2"/>
		<path id="Path_12265_1_" class="st2" d="M145.2,277.7c-1.9,4.3-2.5,9-1.7,13.6c4.2,16,6.7,31.1,4.6,47.4"/>
		<path id="Path_12266_1_" class="st2" d="M151.2,331.7c5.5,1.4,11.2,1.4,16.7,0.2"/>
		<path id="Path_12267_1_" class="st2" d="M116.9,297.9c5.9,14.1,16.6,25.7,30.3,32.6"/>
		<path id="Path_12268_1_" class="st2" d="M114.2,289.9c0.3,1.1,0.7,2.3,1.1,3.4"/>
		<path id="Path_12269_1_" class="st13" d="M206.6,263.6c-1.8,13.5-1.6,27.1,0.6,40.6c3.5,22.6,9.1,22.4,9.1,22.4s31.6-39,40-54.8
			c0,0-2-22.6-10.9-27.5L206.6,263.6z"/>
		<g>
			<defs>
				<path id="SVGID_5_" d="M206.6,263.6c-1.8,13.5-1.6,27.1,0.6,40.6c3.5,22.6,9.1,22.4,9.1,22.4s31.6-39,40-54.8
					c0,0-2-22.6-10.9-27.5L206.6,263.6z"/>
			</defs>
			<clipPath id="SVGID_6_">
				<use xlink:href="#SVGID_5_"  style="overflow:visible;"/>
			</clipPath>
			<g id="Group_16910_1_" transform="translate(77.656 42.22)" class="st20">
				<g id="Group_16905_1_" transform="translate(14.943 1.402)" class="st15">
					<path id="Path_12270_1_" class="st1" d="M158,237.4c-1.3,1.9-2.6,3.9-4.1,6c-0.7-4.5-1.6-8.6-2.6-12.5
						c-0.5-1.9-0.9-3.7-1.4-5.4c-1.1-3.8-2.2-7.1-3.4-10.2c-0.6-1.7-1.3-3.4-2-4.9c-0.7-1.6-1.4-3.2-2.1-4.6l4.6-2.3
						c0.6,1.2,1.2,2.4,1.8,3.8c0.7,1.5,1.3,3.1,2,4.9c1.1,2.9,2.2,6.1,3.3,9.7c0.5,1.7,1,3.5,1.5,5.4
						C156.5,230.3,157.3,233.7,158,237.4z"/>
				</g>
				<g id="Group_16906_1_" transform="translate(9.002 4.359)" class="st15">
					<path id="Path_12271_1_" class="st1" d="M152.4,250.6c-1.5,2-3,4-4.5,5.9c-0.6-6.3-1.6-12.6-2.8-18.9l0,0
						c-0.4-1.9-0.8-3.7-1.2-5.5c-1-4.4-2.2-8.5-3.3-12.2c-0.5-1.7-1.1-3.4-1.6-5c-0.8-2.3-1.6-4.4-2.3-6.3l4.6-2.3
						c0.7,1.8,1.4,3.7,2.2,5.8c0.6,1.6,1.1,3.2,1.7,5c1.1,3.5,2.2,7.3,3.2,11.5c0.4,1.8,0.9,3.6,1.3,5.5
						C150.7,239.3,151.7,244.7,152.4,250.6z"/>
				</g>
				<g id="Group_16907_1_" transform="translate(2.87 7.382)" class="st15">
					<path id="Path_12272_1_" class="st1" d="M146.6,263.3c-1.5,2-3,3.8-4.3,5.5c-1.2-8.4-2.6-16.7-4.2-24.5
						c-0.4-1.8-0.7-3.6-1.1-5.4c-1.1-5.2-2.2-10.1-3.3-14.6c-0.4-1.8-0.8-3.5-1.2-5.1c-0.7-2.7-1.3-5.2-1.9-7.5l4.6-2.3
						c0.6,2.2,1.2,4.6,1.9,7.3c0.4,1.6,0.8,3.3,1.3,5.1l0,0c1,4.2,2.1,8.9,3.1,13.8c0.4,1.8,0.8,3.6,1.1,5.4l0,0
						C144,248.2,145.4,255.6,146.6,263.3z"/>
				</g>
				<g id="Group_16908_1_" transform="translate(0.033 0.903)" class="st15">
					<path id="Path_12273_1_" class="st1" d="M173,207.2c-2.2,1.7-4.6,3.6-7.2,5.5c-1.4,1-2.8,2-4.3,3.1c-2.3,1.6-4.7,3.3-7.4,5
						c-1.4,0.9-2.9,1.9-4.5,2.8c-2.7,1.6-5.5,3.2-8.4,4.8l0,0c-1.5,0.8-3,1.7-4.6,2.5c-2.8,1.5-5.7,2.9-8.7,4.3c0-2.1,0.1-4,0.2-5.7
						l0,0c2.5-1.2,4.9-2.4,7.3-3.7c1.6-0.8,3.1-1.7,4.6-2.5c2.8-1.6,5.5-3.2,8-4.7c1.5-0.9,3-1.9,4.4-2.8c2.5-1.6,4.9-3.2,7.1-4.8
						c1.5-1,2.9-2.1,4.3-3.1c2.3-1.7,4.3-3.3,6.2-4.8c0.6,0.6,1.2,1.3,1.7,2.1C172.2,205.8,172.6,206.5,173,207.2z"/>
				</g>
				<g id="Group_16909_1_" transform="translate(0.37 7.415)" class="st15">
					<path id="Path_12274_1_" class="st1" d="M177.2,215.1c-2.2,1.9-4.5,4-6.9,6.1c-1.4,1.2-2.9,2.4-4.3,3.7c-2.5,2.1-5,4.2-7.7,6.3
						c-1.5,1.2-3,2.4-4.5,3.5l0,0c-2.8,2.2-5.7,4.3-8.6,6.4l0,0c-1.5,1.1-3,2.2-4.5,3.2c-3.9,2.7-7.9,5.3-11.8,7.6
						c-0.3-1.9-0.5-3.7-0.7-5.5c3.8-2.4,7.5-4.9,11.3-7.5c1.5-1.1,3-2.1,4.5-3.2c2.9-2.1,5.8-4.3,8.6-6.5c1.5-1.2,3-2.3,4.4-3.5
						c2.6-2.1,5.1-4.2,7.5-6.2c1.5-1.2,2.9-2.4,4.3-3.6c2.5-2.2,4.9-4.3,7.2-6.3C176.5,211.4,176.9,213.4,177.2,215.1z"/>
				</g>
				<path id="Path_12275_1_" class="st16" d="M178.6,229.6c-8.4,15.8-40,54.8-40,54.8s-4.7,0.2-8.2-17.6c2.6,9.6,9.6,10.6,9.6,10.6
					l32.2-42.5c-3.4-7.3-0.5-28.2-0.4-28.8C177.2,214.1,178.6,229.6,178.6,229.6z"/>
			</g>
		</g>
		<path id="Path_12277_1_" class="st2" d="M206.6,263.6c-1.8,13.5-1.6,27.1,0.6,40.6c3.5,22.6,9.1,22.4,9.1,22.4s31.6-39,40-54.8
			c0,0-2-22.6-10.9-27.5L206.6,263.6z"/>
		<path id="Path_12278_1_" class="st13" d="M183,269.1c-9.1-6.2-19.5-10.1-30.4-11.6c-17.3-2-16.8,8.2-16.8,8.2
			c-1.5,0.6-2.2,2.3-1.7,3.8C134.8,272.4,158.2,275.1,183,269.1z"/>
		<g>
			<defs>
				<path id="SVGID_7_" d="M183,269.1c-9.1-6.2-19.5-10.1-30.4-11.6c-17.3-2-16.8,8.2-16.8,8.2c-1.5,0.6-2.2,2.3-1.7,3.8
					C134.8,272.4,158.2,275.1,183,269.1z"/>
			</defs>
			<clipPath id="SVGID_8_">
				<use xlink:href="#SVGID_7_"  style="overflow:visible;"/>
			</clipPath>
			<g id="Group_16914_1_" transform="translate(41.604 48.713)" class="st21">
				<g id="Group_16911_1_" transform="translate(4.624 -0.01)" class="st15">
					<path id="Path_12279_1_" class="st1" d="M105.3,208.7c-0.5,1.1-0.9,2.3-1.2,3.5c-0.4,1.4-0.8,3.1-1.2,5.1s-0.7,4.1-0.9,6.6
						c-1.9-0.1-3.5-0.2-5.1-0.4c0.2-2.4,0.5-4.5,0.9-6.3s0.7-3.6,1.1-5.1c0.3-1.3,0.7-2.4,1-3.4
						C101.7,208.5,103.5,208.5,105.3,208.7z"/>
				</g>
				<g id="Group_16912_1_" transform="translate(12.785 0.865)" class="st15">
					<path id="Path_12280_1_" class="st1" d="M111,210.9v2.1c-0.1,1.5-0.2,3.2-0.4,5.1c-0.1,1.4-0.3,2.9-0.6,4.6
						c-1.8,0.2-3.5,0.3-5.2,0.4c0.3-2.1,0.6-4,0.7-5.7c0.2-1.9,0.3-3.6,0.3-5.1v-2.8C107.7,209.8,109.4,210.3,111,210.9z"/>
				</g>
				<g id="Group_16913_1_" transform="translate(0.418 1.744)" class="st15">
					<path id="Path_12281_1_" class="st1" d="M140.9,218.7c-1.9,0.4-3.7,0.8-5.5,1.2c-4.4-1.2-8.6-2.1-12.5-2.7
						c-1.7-0.3-3.4-0.5-5-0.7c-4-0.5-7.6-0.8-10.9-0.9c-1.9-0.1-3.6-0.1-5.2-0.1c-3.1,0-6.1,0.2-9.2,0.5c0.3-0.3,0.6-0.5,0.9-0.7
						c0-1.7,0.7-3.4,1.8-4.7c2-0.2,4.6-0.3,7.5-0.2c1.6,0,3.4,0,5.3,0.1c3,0.2,6.4,0.4,10,0.9c1.6,0.2,3.3,0.4,5,0.7
						c3.1,0.5,6.4,1.2,9.7,2l0,0C135.8,215.3,138.4,216.9,140.9,218.7L140.9,218.7z"/>
				</g>
			</g>
		</g>
		<path id="Path_12283_1_" class="st2" d="M183,269.1c-9.1-6.2-19.5-10.1-30.4-11.6c-17.3-2-16.8,8.2-16.8,8.2
			c-1.5,0.6-2.2,2.3-1.7,3.8C134.8,272.4,158.2,275.1,183,269.1z"/>
		<path id="Path_12284_1_" class="st2" d="M154.6,264.6c1.7,0.2,3.3,0.6,5,1.1"/>
		<path id="Path_12285_1_" class="st2" d="M135.7,265.7c5.1-1.3,10.3-1.8,15.5-1.5"/>
		<path id="Path_12286_1_" class="st2" d="M105.7,264.5c0,1.7,0.1,3.3,0.3,5"/>
		<path id="Path_12287_1_" class="st2" d="M113.3,244.3c-5.2,3.4-7.1,10.9-7.5,16.7"/>
		<path id="Path_12288_1_" class="st2" d="M237.8,288.2c-1.3,1.4-2.9,2.6-4.7,3.4"/>
		<path id="Path_12289_1_" class="st2" d="M252.7,255.2c-3.2,10-6.5,21-12.6,30.2"/>
		<path id="Path_12290_1_" class="st2" d="M216.3,326.6c0,0-4.9,2.4-11.3-11"/>
		<path id="Path_12291_1_" class="st2" d="M208.2,339.4c-4.7,8.2-11.4,15.8-20.4,19.3"/>
		<path id="Path_12292_1_" class="st2" d="M211.8,331.7c-0.5,1.3-1.1,2.6-1.7,3.9"/>
	</g>
</g>
</svg>
