<?xml version="1.0" encoding="utf-8"?>
<!-- Generator: Adobe Illustrator 24.0.2, SVG Export Plug-In . SVG Version: 6.00 Build 0)  -->
<!DOCTYPE svg PUBLIC "-//W3C//DTD SVG 1.1//EN" "http://www.w3.org/Graphics/SVG/1.1/DTD/svg11.dtd" [
	<!ENTITY ns_extend "http://ns.adobe.com/Extensibility/1.0/">
	<!ENTITY ns_ai "http://ns.adobe.com/AdobeIllustrator/10.0/">
	<!ENTITY ns_graphs "http://ns.adobe.com/Graphs/1.0/">
	<!ENTITY ns_vars "http://ns.adobe.com/Variables/1.0/">
	<!ENTITY ns_imrep "http://ns.adobe.com/ImageReplacement/1.0/">
	<!ENTITY ns_sfw "http://ns.adobe.com/SaveForWeb/1.0/">
	<!ENTITY ns_custom "http://ns.adobe.com/GenericCustomNamespace/1.0/">
	<!ENTITY ns_adobe_xpath "http://ns.adobe.com/XPath/1.0/">
]>
<svg version="1.1" id="Layer_1" xmlns:x="&ns_extend;" xmlns:i="&ns_ai;" xmlns:graph="&ns_graphs;"
	 xmlns="http://www.w3.org/2000/svg" xmlns:xlink="http://www.w3.org/1999/xlink" x="0px" y="0px" viewBox="0 0 500 500"
	 style="enable-background:new 0 0 500 500;" xml:space="preserve">
<style type="text/css">
	.st0{fill:#EBEBEB;}
	.st1{fill:#DBDBDB;}
	.st2{fill:#C7C7C7;}
	.st3{fill:#A6A6A6;}
	.st4{fill:#FFFFFF;}
	.st5{opacity:0.5;fill:#EBEBEB;enable-background:new    ;}
	.st6{fill:#263238;}
	.st7{fill:#ED702D;}
	.st8{fill:#BA68C8;}
	.st9{fill:#37474F;}
	.st10{fill:#AD6359;}
	.st11{opacity:0.1;enable-background:new    ;}
	.st12{fill:#FF99BA;}
	.st13{opacity:0.1;}
	.st14{fill:#455A64;}
	.st15{opacity:0.8;fill:#FFFFFF;enable-background:new    ;}
	.st16{opacity:0.6;fill:#ED702D;enable-background:new    ;}
	.st17{fill:#C76733;}
	.st18{fill:#EB9481;}
	.st19{opacity:0.2;}
</style>
<metadata>
	<sfw  xmlns="&ns_sfw;">
		<slices></slices>
		<sliceSourceBounds  bottomLeftOrigin="true" height="295.9" width="442.8" x="23.7" y="97.6"></sliceSourceBounds>
	</sfw>
</metadata>
<g id="File_searching-cuate" transform="translate(-68.96 -36.842)">
	<g id="freepik--background-complete--inject-175" transform="translate(73.005 36.842)">
		<path id="Path_11748" class="st0" d="M444.5,291.4l-9.6,0.2l-4.8,0.1c-1.6,0-3.3,0-4.9,0h-0.3v-0.3l0-8.2v-0.4h0.4l9.6,0
			c3.2,0,6.4,0.1,9.6,0.1h0.2v0.2c0,1.4-0.1,2.8-0.1,4.1L444.5,291.4z M444.5,291.4l-0.1-4.1c0-1.4-0.1-2.7-0.1-4l0.2,0.2
			c-3.2,0-6.4,0.1-9.6,0.1l-9.6,0l0.4-0.4v8.1l-0.3-0.3c1.6,0,3.2,0,4.8,0l4.7,0.1L444.5,291.4z"/>
		<path id="Path_11749" class="st0" d="M433.7,301.7l-9.6,0.2l-4.9,0.1c-1.6,0-3.2,0-4.9,0h-0.3v-8.8h0.4l9.6,0.1
			c3.2,0,6.4,0.1,9.6,0.1h0.2v0.2c0,1.4-0.1,2.8-0.1,4.1L433.7,301.7z M433.7,301.7l-0.1-4.1c0-1.4-0.1-2.7-0.1-4l0.2,0.2
			c-3.2,0-6.4,0.1-9.6,0.1l-9.6,0l0.4-0.4v8.1l-0.3-0.3c1.6,0,3.2,0,4.8,0l4.8,0.1L433.7,301.7z"/>
		<path id="Path_11750" class="st0" d="M455.2,301.7l-9.6,0.2l-4.8,0.1c-1.6,0-3.3,0-4.9,0h-0.3v-0.3l0-8.1v-0.4h0.4l9.6,0.1
			c3.2,0,6.4,0.1,9.6,0.1h0.2v0.2c0,1.4-0.1,2.8-0.1,4.1L455.2,301.7z M455.2,301.7l-0.1-4.1c0-1.4-0.1-2.7-0.1-4l0.2,0.2
			c-3.2,0-6.4,0.1-9.6,0.1l-9.6,0l0.4-0.4v8.1l-0.3-0.3c1.6,0,3.2,0,4.8,0l4.8,0.1L455.2,301.7z"/>
		<path id="Path_11751" class="st0" d="M227.8,194.4l-9.6,0.2l-4.8,0.1h-5.2v-0.3l0-8.1v-0.4h0.4l9.6,0c3.2,0,6.4,0.1,9.6,0.1h0.2
			v0.2c0,1.4-0.1,2.8-0.1,4.1L227.8,194.4z M227.8,194.4l-0.1-4.1c0-1.4-0.1-2.7-0.1-4l0.2,0.2c-3.2,0-6.4,0.1-9.6,0.1l-9.6,0.1
			l0.4-0.4l0,8.1l-0.3-0.3c1.6,0,3.2,0,4.8,0l4.8,0.1L227.8,194.4z"/>
		<path id="Path_11752" class="st0" d="M217,204.7l-9.6,0.2l-4.9,0.1c-1.6,0-3.2,0-4.9,0h-0.3v-0.3l-0.1-8.1v-0.4h0.4l9.6,0
			c3.2,0,6.4,0.1,9.6,0.1h0.2v0.2c0,1.4-0.1,2.8-0.1,4.1L217,204.7z M217,204.7l-0.1-4.1c0-1.4-0.1-2.7-0.1-4l0.2,0.2
			c-3.2,0-6.4,0.1-9.6,0.1l-9.6,0.1l0.4-0.4l0,8.1l-0.3-0.3c1.6,0,3.2,0,4.8,0l4.8,0.1L217,204.7z"/>
		<path id="Path_11753" class="st0" d="M238.5,204.7l-9.6,0.2l-4.8,0.1c-1.6,0-3.2,0-4.9,0h-0.3v-0.3l0-8.1v-0.4h0.4l9.6,0
			c3.2,0,6.4,0.1,9.6,0.1h0.2v0.2c0,1.4-0.1,2.8-0.1,4.1L238.5,204.7z M238.5,204.7l-0.1-4.1c0-1.4-0.1-2.7-0.1-4l0.2,0.2
			c-3.2,0-6.4,0.1-9.6,0.1l-9.6,0.1l0.4-0.4l0,8.1l-0.3-0.3c1.6,0,3.2,0,4.8,0l4.8,0.1L238.5,204.7z"/>
		<path id="Path_11754" class="st0" d="M70.6,248.4l-9.6,0.2l-4.9,0.1c-1.6,0-3.2,0-4.9,0H51v-8.8h0.4l9.6,0c3.2,0,6.4,0.1,9.6,0.1
			h0.2v0.2c0,1.4-0.1,2.8-0.1,4.1L70.6,248.4z M70.6,248.4l-0.1-4.1c0-1.4-0.1-2.7-0.1-4l0.2,0.2c-3.2,0-6.4,0.1-9.6,0.1l-9.6,0.1
			l0.4-0.4l0,8.1l-0.3-0.3c1.6,0,3.2,0,4.8,0l4.8,0.1L70.6,248.4z"/>
		<path id="Path_11755" class="st0" d="M361.1,194.4l-9.6,0.2l-4.8,0.1c-1.6,0-3.3,0-4.9,0h-0.3v-0.3l0-8.1v-0.4h0.4l9.6,0
			c3.2,0,6.4,0.1,9.6,0.1h0.2v0.2c0,1.4-0.1,2.8-0.1,4.1L361.1,194.4z M361.1,194.4l-0.1-4.1c0-1.4-0.1-2.7-0.1-4l0.2,0.2
			c-3.2,0-6.4,0.1-9.6,0.1l-9.6,0l0.4-0.4l0,8.1l-0.3-0.3c1.6,0,3.2,0,4.8,0l4.8,0.1L361.1,194.4z"/>
		<path id="Path_11756" class="st0" d="M443.4,115.3l-9.6,0.2l-4.9,0.1c-1.6,0-3.2,0-4.9,0h-0.3v-8.8h0.4l9.6,0
			c3.2,0,6.4,0.1,9.6,0.1h0.2v0.2c0,1.4-0.1,2.8-0.1,4.1L443.4,115.3z M443.4,115.3l-0.1-4.1c0-1.4-0.1-2.7-0.1-4l0.2,0.2
			c-3.2,0-6.4,0.1-9.6,0.1l-9.6,0l0.4-0.4l0,8.1l-0.3-0.3c1.6,0,3.2,0,4.8,0l4.8,0.1L443.4,115.3z"/>
		<path id="Path_11757" class="st0" d="M454.1,125.6l-9.6,0.2l-4.8,0.1c-1.6,0-3.3,0-4.9,0h-0.3v-0.3l0-8.1v-0.4h0.4l9.6,0
			c3.2,0,6.4,0.1,9.6,0.1h0.2v0.2c0,1.4-0.1,2.8-0.1,4.1L454.1,125.6z M454.1,125.6l-0.1-4.1c0-1.4-0.1-2.7-0.1-4l0.2,0.2
			c-3.2,0-6.4,0.1-9.6,0.1l-9.6,0l0.4-0.4v8.1l-0.3-0.3c1.6,0,3.2,0,4.8,0l4.8,0.1L454.1,125.6z"/>
		<path id="Path_11758" class="st0" d="M49.1,115.3l-9.6,0.2l-4.8,0.1c-1.6,0-3.2,0-4.9,0h-0.3v-8.8h0.4l9.6,0.1
			c3.2,0,6.4,0.1,9.6,0.1h0.2v0.2c0,1.4-0.1,2.8-0.1,4.1L49.1,115.3z M49.1,115.3l-0.1-4.1c0-1.4-0.1-2.7-0.1-4l0.2,0.2
			c-3.2,0-6.4,0.1-9.6,0.1l-9.6,0l0.4-0.4l0,8.1l-0.3-0.3h4.8l4.8,0.1L49.1,115.3z"/>
		<path id="Path_11759" class="st0" d="M433.3,143.8c0.3,0.7,0.2,1.6-0.3,2.2c-0.1,0.2-0.3,0.3-0.4,0.5s-0.3,0.4-0.4,0.6
			c-0.4,0.7-1.2,1.1-2,1l-2.8-0.3l-0.9,9l2.8,0.3c0.8,0.1,1.5,0.6,1.8,1.4c0.2,0.4,0.3,0.8,0.6,1.2c0.4,0.7,0.3,1.6-0.1,2.2
			l-1.6,2.2l7.3,5.3l1.6-2.2c0.5-0.6,1.3-1,2.1-0.9c0.4,0.1,0.9,0.1,1.3,0.1c0.8,0,1.5,0.5,1.9,1.2l1.1,2.5l8.2-3.7l-1.2-2.5
			c-0.3-0.7-0.2-1.6,0.3-2.2c0.1-0.2,0.3-0.3,0.4-0.5c0.1-0.2,0.3-0.4,0.4-0.6c0.4-0.7,1.2-1.1,2-1l2.8,0.3l0.9-9l-2.8-0.3
			c-0.8-0.1-1.5-0.6-1.8-1.4c-0.2-0.4-0.3-0.8-0.6-1.2c-0.4-0.7-0.3-1.6,0.1-2.2l1.6-2.2l-7.4-5.3l-1.6,2.2c-0.5,0.7-1.3,1-2.1,0.9
			c-0.4-0.1-0.9-0.1-1.3-0.1c-0.8,0-1.5-0.5-1.9-1.2l-1.1-2.5l-8.2,3.7L433.3,143.8z M447.1,147.9c3.3,2.4,4.1,7,1.7,10.3
			c-2.4,3.3-7,4.1-10.3,1.7c-3.3-2.4-4.1-7-1.7-10.3c0,0,0,0,0,0C439.2,146.2,443.8,145.5,447.1,147.9z"/>
		<path id="Path_11760" class="st0" d="M39,211.4c-0.3,0.5-0.8,0.8-1.4,0.7h-0.9c-0.6,0-1.1-0.2-1.4-0.7l-1-1.7l-5.5,3.2l1,1.7
			c0.3,0.5,0.3,1.1-0.1,1.6c-0.2,0.3-0.3,0.5-0.5,0.8c-0.3,0.5-0.8,0.8-1.3,0.8H26v6.3h1.9c0.6,0,1.1,0.3,1.3,0.8
			c0.1,0.3,0.3,0.6,0.5,0.8c0.3,0.5,0.3,1.1,0.1,1.6l-1,1.7l5.4,3.2l1-1.7c0.3-0.5,0.8-0.8,1.4-0.7h0.9c0.6,0,1.1,0.2,1.4,0.7l1,1.7
			l5.5-3.2l-1-1.7c-0.3-0.5-0.3-1.1,0.1-1.6c0.2-0.3,0.3-0.5,0.5-0.8c0.3-0.5,0.8-0.8,1.3-0.8h1.9v-6.3h-1.9c-0.6,0-1.1-0.3-1.3-0.8
			c-0.1-0.3-0.3-0.6-0.5-0.8c-0.3-0.5-0.3-1.1-0.1-1.6l1-1.7l-5.5-3.2L39,211.4z M42.3,220.9c2.9,0,5.2-2.3,5.2-5.2
			c0-2.9-2.3-5.2-5.2-5.2s-5.2,2.3-5.2,5.2C37.1,218.6,39.4,220.9,42.3,220.9L42.3,220.9z"/>
		<path id="Path_11761" class="st0" d="M414.3,115.9c-0.3,0.4-0.9,0.7-1.5,0.6l-0.5-0.1l-0.5-0.1c-0.6,0-1.1-0.4-1.3-0.9l-0.7-1.8
			l-5.8,2.4l0.7,1.8c0.2,0.5,0.1,1.1-0.3,1.6c-0.2,0.2-0.4,0.5-0.6,0.7c-0.3,0.5-0.9,0.7-1.5,0.7l-1.9-0.3l-0.8,6.3l1.9,0.3
			c0.6,0.1,1,0.5,1.2,1c0.1,0.3,0.2,0.6,0.4,0.9c0.2,0.5,0.2,1.1-0.1,1.6L402,132l5,3.8l1.2-1.5c0.3-0.4,0.9-0.6,1.5-0.5l0.5,0.1
			l0.5,0c0.6,0,1.1,0.4,1.3,0.9l0.7,1.8l5.8-2.4l-0.7-1.8c-0.2-0.5-0.1-1.1,0.3-1.6c0.2-0.2,0.4-0.5,0.6-0.7
			c0.3-0.5,0.9-0.7,1.5-0.6l1.9,0.2l0.8-6.3l-1.9-0.2c-0.6-0.1-1-0.5-1.2-1c-0.1-0.3-0.2-0.6-0.4-0.9c-0.2-0.5-0.2-1.1,0.2-1.6
			l1.2-1.5l-5-3.8L414.3,115.9z M416.4,125.8c-0.4,2.8-3,4.8-5.8,4.4c-2.8-0.4-4.8-3-4.4-5.8c0.4-2.8,3-4.8,5.8-4.4
			c1.4,0.2,2.6,0.9,3.4,2C416.2,123,416.6,124.4,416.4,125.8L416.4,125.8z"/>
		<rect id="Rectangle_6634" x="361.9" y="215.7" class="st0" width="71.2" height="132.4"/>
		<rect id="Rectangle_6635" x="358.5" y="212.1" class="st1" width="78.1" height="3.7"/>
		<rect id="Rectangle_6636" x="436.6" y="212.1" class="st0" width="24.6" height="3.7"/>
		<rect id="Rectangle_6637" x="433.1" y="215.7" class="st1" width="24.1" height="132.4"/>
		<path id="Path_11762" class="st2" d="M425.4,301h-55.9v-31.6h55.9V301z M369.7,300.8h55.5v-31.2h-55.5V300.8z"/>
		<rect id="Rectangle_6638" x="389.7" y="278.7" class="st2" width="10.9" height="6.3"/>
		<path id="Path_11763" class="st2" d="M403.9,284.5h-11.1V279h11.1V284.5z M393,284.4h10.7v-5.1H393V284.4z"/>
		<path id="Path_11764" class="st2" d="M425.4,340.7h-55.9v-31.6h55.9V340.7z M369.7,340.5h55.5v-31.2h-55.5V340.5z"/>
		<rect id="Rectangle_6639" x="389.7" y="318.3" class="st2" width="10.9" height="6.3"/>
		<path id="Path_11765" class="st2" d="M403.9,324.2h-11.1v-5.5h11.1V324.2z M393,324h10.7v-5.1H393V324z"/>
		<rect id="Rectangle_6640" x="369.7" y="229.9" class="st3" width="55.7" height="31.4"/>
		<rect id="Rectangle_6641" x="377.5" y="221.8" class="st2" width="42.4" height="30.7"/>
		<path id="Path_11766" class="st2" d="M392.5,218.6h-15v3.2h15.8L392.5,218.6z"/>
		<path id="Path_11767" class="st3" d="M419.8,252.5h-42.4l-3.3-28.2h42.4L419.8,252.5z"/>
		<path id="Path_11768" class="st3" d="M388.8,221.4h-15l0.3,2.9H390L388.8,221.4z"/>
		<rect id="Rectangle_6642" x="342.8" y="229.9" class="st0" width="55.7" height="31.4"/>
		<path id="Path_11769" class="st2" d="M398.6,261.4h-55.9v-31.6h55.9V261.4z M342.9,261.2h55.5v-31.3h-55.5V261.2z"/>
		<rect id="Rectangle_6643" x="362.9" y="239" class="st2" width="10.9" height="6.3"/>
		<path id="Path_11770" class="st2" d="M377.1,244.9H366v-5.5h11.1V244.9z M366.2,244.7h10.7v-5.1h-10.7V244.7z"/>
		<rect id="Rectangle_6644" x="398.7" y="234.6" class="st1" width="26.7" height="26.7"/>
		<circle id="Ellipse_1408" class="st0" cx="242.5" cy="136.6" r="30.1"/>
		<circle id="Ellipse_1409" class="st1" cx="243.9" cy="137.3" r="28.7"/>
		<circle id="Ellipse_1410" class="st4" cx="243.9" cy="137.3" r="26.9"/>
		<path id="Path_11771" class="st5" d="M270.2,131.6c-12.3,7.4-32.4,19.6-43.6,26.3c-3.2-2.7-5.7-6.1-7.3-9.9l37.2-34.5
			C263.5,117.2,268.5,123.8,270.2,131.6z"/>
		<path id="Path_11772" class="st5" d="M270.8,138.2c-0.1,3-0.7,5.9-1.8,8.7l-33.6,15.9c-1.5-0.5-2.9-1.1-4.2-1.8
			C241.3,155.2,259.9,144.5,270.8,138.2z"/>
		<rect id="Rectangle_6645" x="243.6" y="112.3" class="st2" width="0.5" height="4.1"/>
		
			<rect id="Rectangle_6646" x="232.2" y="115.4" transform="matrix(0.866 -0.5 0.5 0.866 -27.5711 131.9397)" class="st2" width="0.5" height="4.1"/>
		
			<rect id="Rectangle_6647" x="224" y="122.8" transform="matrix(0.4983 -0.867 0.867 0.4983 4.3044 257.0406)" class="st2" width="0.5" height="4.1"/>
		<rect id="Rectangle_6648" x="218.9" y="137" class="st2" width="4.1" height="0.5"/>
		
			<rect id="Rectangle_6649" x="222" y="148.5" transform="matrix(0.8659 -0.5002 0.5002 0.8659 -44.3425 131.9862)" class="st2" width="4.1" height="0.5"/>
		
			<rect id="Rectangle_6650" x="230.4" y="156.9" transform="matrix(0.4994 -0.8664 0.8664 0.4994 -19.7798 280.0273)" class="st2" width="4.1" height="0.5"/>
		<rect id="Rectangle_6651" x="243.6" y="158.2" class="st2" width="0.5" height="4.1"/>
		
			<rect id="Rectangle_6652" x="255.1" y="155.1" transform="matrix(0.866 -0.5 0.5 0.866 -44.3544 148.7208)" class="st2" width="0.5" height="4.1"/>
		
			<rect id="Rectangle_6653" x="263.5" y="146.7" transform="matrix(0.5 -0.866 0.866 0.5 3.0596 302.7523)" class="st2" width="0.5" height="4.1"/>
		<rect id="Rectangle_6654" x="264.8" y="137" class="st2" width="4.1" height="0.5"/>
		
			<rect id="Rectangle_6655" x="261.7" y="125.5" transform="matrix(0.8659 -0.5002 0.5002 0.8659 -27.5626 148.7649)" class="st2" width="4.1" height="0.5"/>
		
			<rect id="Rectangle_6656" x="253.3" y="117.2" transform="matrix(0.4997 -0.8662 0.8662 0.4997 26.0255 279.9523)" class="st2" width="4.1" height="0.5"/>
		<path id="Path_11773" class="st2" d="M244.3,114.2l0.9,24.9l-2.6,0l1-24.9L244.3,114.2z"/>
		<path id="Path_11774" class="st3" d="M259.8,128.6L243,139.3l-1.2-2.2l17.7-9.1L259.8,128.6z"/>
		<path id="Path_11775" class="st2" d="M244.8,137.3c0,0.5-0.4,0.9-0.9,0.9c-0.5,0-0.9-0.4-0.9-0.9c0-0.5,0.4-0.9,0.9-0.9
			c0.2,0,0.4,0.1,0.6,0.3C244.7,136.8,244.8,137,244.8,137.3z"/>
	</g>
	<g id="freepik--Floor--inject-175" transform="translate(68.96 197.709)">
		<path id="Path_11776" class="st6" d="M23.7,187.3l55.3-0.2l55.3-0.1l110.7-0.1l110.7,0.1l55.3,0.1l55.3,0.2l-55.3,0.2l-55.3,0.1
			l-110.7,0.1l-110.7-0.1L79,187.5L23.7,187.3z"/>
	</g>
	<g id="freepik--Shadow--inject-175" transform="translate(74.395 203.395)">
		<ellipse id="Ellipse_1411" class="st0" cx="241.1" cy="213" rx="214.4" ry="22.9"/>
	</g>
	<g id="freepik--Plant--inject-175" transform="translate(69.361 139.142)">
		<path id="Path_11777" class="st7" d="M56.3,170.8c0.5,3.8,0.4,7.7-0.6,11.4c-0.4,1.7-1,3.4-1.7,5c-1.1,2-1.7,4.2-1.6,6.4
			c0.2,0.1-0.5,0.1-0.6-0.1c-6.1-3.5-13.9-4.1-18.6-9.8c-2.1-2.8-3.4-6-3.9-9.5c-0.7-3.8-0.6-7.7,0.2-11.5c0.7-3.2,2.7-5.9,5.5-7.6
			c3.2-1.4,6.8-1.6,10.1-0.5C52,156.9,55.4,164.2,56.3,170.8z"/>
		<path id="Path_11778" class="st6" d="M59.5,215.9c-0.8-2.8-1.7-5.5-2.5-8.3c-1.7-5.4-3.4-10.8-5.3-16.1c-1.2-3.2-2.4-6.3-3.6-9.5
			c0.1-2,0.4-3.9,0.7-5.9c0.5-2.4,1.2-4.6,1.9-7c0-0.1-0.2-0.2-0.2-0.1c-1.4,3.2-3.2,7.3-3.2,11c-1.5-3.5-3.1-7-4.8-10.5
			c-0.2-2.9-0.1-5.8,0.3-8.7c0-0.1-0.1-0.1-0.1-0.1c0,0-0.1,0-0.1,0.1c-0.5,2.5-0.7,5.1-0.6,7.7c-1.3-2.6-2.7-5.1-4.2-7.6
			c-0.1-0.2-0.4,0-0.3,0.2c2.3,4.4,4.4,8.9,6.4,13.5c-2.8-2.4-6-4.3-9.5-5.5c-0.2-0.1-0.3,0.2-0.1,0.2c3.8,1.6,7.3,4,10.3,6.8
			c1.4,3.3,2.8,6.7,4.1,10.1c-4-3.7-8.8-6.3-14.1-7.5c-0.2-0.1-0.2,0.2-0.1,0.3c5.6,1.9,10.6,5,14.8,9.1c0.5,1.4,1,2.7,1.5,4.1
			c1.9,5.2,3.7,10.5,5.4,15.8c0.8,2.5,1.6,5.1,2.4,7.6c0.9,2.7,1.5,5.6,2.6,8.3c0.1,0.3,0.6,0.2,0.5-0.1
			C61.1,221.1,60.3,218.5,59.5,215.9z"/>
		<path id="Path_11779" class="st6" d="M49.4,165.5c-1.1,1.7-1.8,3.5-2.2,5.5c0,0,0,0,0,0c0,0,0,0,0,0c0.7-1.8,1.5-3.6,2.4-5.4
			C49.7,165.5,49.4,165.3,49.4,165.5z"/>
		<path id="Path_11780" class="st6" d="M38.5,178.2c-1.7-0.9-3.5-1.6-5.5-1.8c-0.1,0-0.1,0.1,0,0.1c0.9,0.4,1.8,0.6,2.7,1
			c0.9,0.3,1.8,0.7,2.7,1.1c0.1,0,0.2-0.1,0.2-0.1C38.5,178.3,38.5,178.2,38.5,178.2L38.5,178.2z"/>
		<path id="Path_11781" class="st6" d="M35.4,162.9c-0.6-0.4-1.1-0.8-1.8-1.1c0,0-0.1,0-0.1,0.1c0,0,0,0.1,0,0.1
			c0.5,0.4,1.1,0.8,1.7,1.1C35.4,163.2,35.5,163,35.4,162.9z"/>
		<path id="Path_11782" class="st7" d="M76.9,191.5c-4.4,1.3-8.8,2.5-13.2,3.8c-0.4,0.1-7.8-14.1-5.1-21.4
			c2.6-6.7,8.1-11.9,14.9-14.2c3.3-1.3,6.8-1.7,10.3-1.2c2.9,0.8,5.1,3,6,5.8c1.3,3.8,0.9,8.2,0.2,12.1c-0.6,3.6-2,7-4.3,9.9
			C83.3,188.9,80.3,190.7,76.9,191.5z"/>
		<path id="Path_11783" class="st6" d="M83.2,178c-2.8,1.4-5.7,2.5-8.6,3.4c-2,0.5-3.9,1.2-5.7,2.1c1.9-4.1,3.9-8.2,6-12.2
			c2.9-0.7,5.7-2.1,8-4.1c0,0,0-0.1,0-0.2c0,0-0.1,0-0.2,0c-2.4,1.5-4.9,2.8-7.5,3.8c0.6-1.1,1.2-2.2,1.8-3.2
			c0.2-0.3-0.2-0.6-0.4-0.3c-2.3,3.3-4.4,6.8-6.2,10.5c-0.5-3.2-0.6-6.4-0.5-9.6c0,0,0-0.1,0-0.1c0,0-0.1,0-0.1,0c0,0,0,0,0,0
			c-0.6,3.5-0.5,7.1,0.1,10.5c-1.5,3.1-2.9,6.2-4.2,9.4c-0.5-1.9-1.2-3.8-1.6-5.7c-0.7-2.8-0.9-5.6-0.6-8.4c0-0.1-0.1-0.1-0.1,0
			c-0.8,5.2-0.1,10.6,1.8,15.5c-0.7,1.9-1.5,3.8-2.1,5.8c-3.3,9.8-5.3,20.1-5.8,30.5c0,0.1,0.1,0.2,0.2,0.2c0.1,0,0.1-0.1,0.2-0.2
			c1.2-10.2,3.4-20.3,6.6-30.1c1.3-3.8,2.7-7.5,4.4-11.2c2.6-0.8,5.2-1.8,7.7-2.7c2.5-0.8,5-1.9,7.1-3.5c0,0,0-0.1,0-0.1
			C83.3,178,83.3,178,83.2,178L83.2,178z"/>
		<path id="Path_11784" class="st6" d="M87.3,173.9c-2.7,1-5.2,2.3-7.9,3.3c-0.1,0-0.1,0.2,0.1,0.2c2.9-0.5,5.6-1.6,7.9-3.3
			C87.5,174,87.4,173.9,87.3,173.9z"/>
		<path id="Path_11785" class="st6" d="M65.4,168.1c0-0.1-0.2-0.2-0.2-0.1c-0.9,2.4-1.1,5.1-0.5,7.6c0,0.1,0.1,0.1,0.1,0.1
			c0,0,0.1,0,0.1-0.1C64.8,173.1,65,170.6,65.4,168.1z"/>
		<path id="Path_11786" class="st6" d="M76.5,162.4c-0.9,1.2-1.3,2.7-1.2,4.2c0,0.1,0.2,0.1,0.2,0c0.3-1.4,0.9-2.7,1.3-4.1
			c0-0.1,0-0.2-0.1-0.2C76.6,162.3,76.5,162.3,76.5,162.4L76.5,162.4z"/>
		<path id="Path_11787" class="st7" d="M24.7,197.8c1.3,4.1,4.4,9.7,9.2,9.8c3.1,0,6.3-0.3,9.5-0.4c3.4-0.1,6.7,0,10.1,0.2
			c-0.2-6.1-3.4-11.7-8.5-15c-2.4-1.2-5-2-7.6-2.4c-2.9-0.7-6-1-9-0.9c-1.9,0.1-3.4,0.5-4.1,2.4C23.7,193.5,23.9,195.8,24.7,197.8z"
			/>
		<path id="Path_11788" class="st6" d="M28.2,192.7c2,0.5,4,1.1,5.9,1.7c-0.5-0.6-1.1-1.1-1.6-1.6c-0.9-0.7-1.8-1.3-2.7-1.9
			c-0.1-0.1,0-0.2,0.1-0.2c1.9,0.8,3.6,2.1,4.8,3.8c2.5,0.8,4.9,1.7,7.3,2.6c1.6,0.7,3.2,1.5,4.6,2.4c-0.5-1-1-2-1.7-2.9
			c-1.1-1.3-2.5-2.3-3.9-3.2c-0.1,0-0.1-0.1,0-0.2c0-0.1,0.1-0.1,0.2,0l0,0c3,1.3,5.3,3.8,6.3,6.8c1.7,1.2,3.2,2.6,4.6,4.2
			c5.4,6.1,9.6,14.2,9.6,22.4c0,0.2-0.3,0.3-0.3,0.1c-1.4-8.1-4.9-15.7-10.2-21.9c-0.4-0.4-0.8-0.9-1.2-1.3
			c-1.5-0.2-2.9-0.3-4.4-0.3c-1.7,0-3.4,0.3-5.2,0.4c-2.9,0.5-5.8,0-8.5-1.2c-0.1-0.1,0-0.3,0.1-0.2c5.7,2.1,11.7-0.6,17.3,0.7
			c-2.4-2.3-5.3-4.2-8.4-5.4l-0.5-0.2c-3.6,0.4-7.5,1.4-11.1,0.2c0,0-0.1-0.1,0-0.1c0,0,0.1-0.1,0.1-0.1c3.4,0.9,6.7-0.2,10.1-0.4
			c-3.7-1.5-7.4-2.6-11.1-4C27.8,192.9,27.8,192.6,28.2,192.7z"/>
		<path id="Path_11789" class="st6" d="M26.5,196.3c1.8,0.2,3.5,0.4,5.3,0.4c0,0,0,0,0,0c0,0,0,0,0,0c-1.8,0.3-3.6,0.2-5.4-0.3
			C26.4,196.4,26.5,196.3,26.5,196.3z"/>
		<path id="Path_11790" class="st6" d="M38.5,192.8c1,0.4,1.9,1.1,2.6,1.8c0,0,0.1,0.1,0,0.1c0,0-0.1,0.1-0.1,0l0,0
			c-0.4-0.3-0.9-0.6-1.4-0.9c-0.4-0.2-0.9-0.5-1.3-0.8c-0.1-0.1-0.1-0.2,0-0.2C38.4,192.8,38.5,192.8,38.5,192.8L38.5,192.8z"/>
		<path id="Path_11791" class="st8" d="M67.1,205.9c-0.1,0.1,0.1,0.3,0.2,0.1l0,0c0,0,0.1,0.1,0.1,0.1c3.3,0.8,6.6,1.4,9.9,1.7
			c2.7,0.2,5.8,0.4,8.1-1.2c3.2-2.1,5.3-7.7,3.5-11.3c-2-4.2-8.2-1.9-11.2-0.4C73.1,197.3,69.3,201.1,67.1,205.9z"/>
		<path id="Path_11792" class="st6" d="M64.8,207.9c1.8-1.7,3.8-3.2,5.9-4.5c1.5-2.4,3.6-4.5,6-6.1c0.1-0.1,0.2,0.1,0.1,0.2
			c-1.9,1.5-3.6,3.3-5,5.3c2.4-1.3,4.9-2.4,7.4-3.4c0.9-1.7,2.3-3.1,4-4c0,0,0.1,0,0,0.1c-1.4,1.1-2.6,2.3-3.6,3.8
			c1.5-0.6,3-1.1,4.6-1.6c0.1,0,0.2,0.2,0.1,0.2c-2.7,1.1-5.5,2.2-8.2,3.5c3.3,0.5,6.6,0.5,9.9,0c0,0,0.1,0,0.1,0c0,0,0,0.1,0,0.1
			c0,0,0,0,0,0c-3.4,1-7,1.1-10.5,0.2c-1.7,0.8-3.4,1.8-5,2.8c1.3-0.1,2.7,0,4,0.3c2.3,0.5,4.7,0.8,7.1,0.8c0,0,0.1,0.1,0.1,0.1
			c0,0,0,0.1-0.1,0.1c-4.1,0.7-8-1.2-12-0.7c-4.5,3-8.1,7.2-10.4,12.1c-1.7,3.5-2.6,7.2-4,10.8c0,0.1-0.1,0.1-0.2,0.1
			c-0.1,0-0.1-0.1-0.1-0.2C56.1,220.4,59.6,213.4,64.8,207.9z"/>
		<path id="Path_11793" class="st6" d="M77.1,198.2c0.3-0.5,0.6-0.9,1-1.3c0.4-0.4,0.8-0.7,1.2-0.9c0,0,0.1,0,0,0.1
			c-0.3,0.4-0.8,0.7-1.2,1c-0.4,0.4-0.7,0.8-1,1.2c0,0-0.1,0-0.1,0C77.1,198.3,77.1,198.2,77.1,198.2L77.1,198.2z"/>
		<path id="Path_11794" class="st6" d="M83.9,200.4c0.6-0.2,1.2-0.1,1.9-0.3c0.6-0.1,1.2-0.3,1.8-0.5c0,0,0.1,0,0.1,0.1
			c0,0,0,0.1,0,0.1c-1.1,0.7-2.4,1-3.7,0.9C83.8,200.6,83.8,200.5,83.9,200.4C83.8,200.4,83.8,200.4,83.9,200.4z"/>
		<path id="Path_11795" class="st9" d="M47.9,219.1l0.5,6.1l1.8,20.6h16.1l2.3-20.6l0.7-6.1H47.9z"/>
		<path id="Path_11796" class="st6" d="M47.9,219.1l0.5,6.1h20.2l0.7-6.1H47.9z"/>
		<rect id="Rectangle_6657" x="46.3" y="217.4" class="st9" width="24.6" height="5"/>
	</g>
	<g id="freepik--character-2--inject-175" transform="translate(241.56 89.524)">
		<path id="Path_11797" class="st10" d="M286.5,317.9c-0.2-1.6-18.5-41.1-20.1-42.1c-0.6-0.4-6.6,1.9-13.6,4.9l-0.2,0.1
			c-1.5,0.6-28.3,7.8-28.3,7.8l11.9,25.8l27.9-8l0.4-0.2c0,0,13.8,12,15.7,12.9C282.1,320.2,286.6,319.6,286.5,317.9z"/>
		<path id="Path_11798" class="st0" d="M247.4,282.4l12.3,25.4l4.4-1.3l0.4-0.2c0,0,13.8,12,15.7,12.9s6.5,0.3,6.3-1.2
			c-0.2-1.6-18.5-41.1-20.1-42.1c-0.6-0.4-6.6,1.9-13.6,4.9l-0.2,0.1C252.1,281,250.2,281.6,247.4,282.4z"/>
		<path id="Path_11799" class="st7" d="M286.6,318.2c-0.2-1.6-18.5-41.5-20.2-42.6c-0.6-0.4-6.6,1.9-13.7,5l11.8,25.8
			c0,0,13.8,12.1,15.8,13.1C282.2,320.4,286.8,319.8,286.6,318.2z"/>
		<path id="Path_11800" class="st6" d="M284.7,318.3c-3.2-6.6-15.7-33.6-18.4-40.4c0-0.1,0-0.1,0,0c3.4,6.5,15.6,33.6,18.5,40.4
			C284.9,318.4,284.8,318.5,284.7,318.3z"/>
		<path id="Path_11801" class="st6" d="M277.6,317.5c-0.7-1.5-0.8-3.2-0.2-4.8c0.5-1.4,1.6-2.5,2.9-3.1c0,0,0.1,0.1,0,0.1
			c-2.5,1.7-3.6,4.9-2.6,7.8C277.7,317.5,277.7,317.5,277.6,317.5z"/>
		<path id="Path_11802" class="st6" d="M266.3,308.6c-1.5-2.8-1.6-6-0.3-8.9c0.1-0.1,0.2,0,0.2,0.1c-0.1,2.9,0,5.8,0.5,8.7
			c0,0.1,0,0.2-0.1,0.2C266.4,308.7,266.3,308.7,266.3,308.6L266.3,308.6z"/>
		<path id="Path_11803" class="st6" d="M268,310.3c-1.4-2.8-1.6-6-0.3-8.9c0.1-0.1,0.2,0,0.2,0.1c-0.1,2.9,0,5.8,0.5,8.7
			c0,0.1,0,0.2-0.1,0.2C268.2,310.4,268.1,310.3,268,310.3L268,310.3L268,310.3z"/>
		<path id="Path_11804" class="st6" d="M269.8,311.9c-1.5-2.8-1.6-6-0.3-8.9c0.1-0.1,0.2,0,0.2,0.1c-0.2,2.9,0,5.8,0.5,8.7
			c0,0.1,0,0.2-0.1,0.2C270,312.1,269.9,312.1,269.8,311.9C269.8,312,269.8,312,269.8,311.9L269.8,311.9z"/>
		<path id="Path_11805" class="st6" d="M271.6,313.6c-1.4-2.8-1.6-6-0.3-8.9c0.1-0.1,0.2,0,0.2,0.1c-0.2,2.9,0,5.9,0.5,8.7
			c0,0.1-0.1,0.2-0.2,0.2C271.6,313.8,271.6,313.7,271.6,313.6L271.6,313.6z"/>
		<path id="Path_11806" class="st6" d="M260.8,282.5c-0.5-1.3,0.1-2.8,1.4-3.4c1.2-0.5,2.7,0,3.3,1.2c0.5,1.3-0.1,2.8-1.4,3.4
			C262.8,284.3,261.4,283.8,260.8,282.5z"/>
		<path id="Path_11807" class="st6" d="M264.3,312.7c1-2.4,1.6-5,1.8-7.6c0.1-0.3-0.2-0.4-0.4-0.4c0,0,0-0.1-0.1-0.1c0,0,0,0,0,0
			c-2.4,1.3-4.3,3.3-5.7,5.6c-0.8,1.4-1.1,3.6,0.7,4.4C262.2,315.6,263.6,314.1,264.3,312.7z M262.1,313.9c-3,1.1-2-2.6-1.4-3.6
			c0.4-0.6,0.9-1.2,1.4-1.8c1-1.2,2.2-2.2,3.3-3.3c-0.3,1.2-0.5,2.5-0.7,3.7C264.4,310.3,263.8,313.3,262.1,313.9L262.1,313.9z"/>
		<path id="Path_11808" class="st6" d="M259.5,296c-1.7,1-1.1,3.2-0.2,4.5c1.6,2.2,3.8,3.9,6.3,5c0,0,0.1,0,0.1,0c0,0,0,0,0,0
			c0.2,0,0.5-0.2,0.4-0.4c-0.5-2.6-1.4-5-2.6-7.3C262.6,296.3,261,295,259.5,296z M264.2,301.4c0.4,1.2,0.7,2.4,1.1,3.6
			c-1.2-1-2.5-1.9-3.6-3c-0.5-0.5-1.1-1.1-1.5-1.7c-0.7-0.9-2.1-4.5,1-3.7C262.9,297.1,263.8,300,264.2,301.4L264.2,301.4z"/>
		<path id="Path_11809" class="st9" d="M188.9,204.4c0,0,0.5,15.5,2.8,23.1c0,0,2.5,1.3,3.3,1.8c0,0-19.2,46-18.1,63.8
			c0.4,5.8,6.9,15.4,13.6,19.5c11.8,7.3,69.2,0.9,69.2,0.9l-8.3-34.5c0,0-36.3,2-37.2,0.1c-1.2-2.5,6.1-21.8,11.8-37.6
			c0.6-1.6,6.4-7.5,5.7-18.1c-0.5-6.6-2.2-13-5-18.9L188.9,204.4z"/>
		<path id="Path_11810" class="st6" d="M244.7,282.8c-7.9-0.1-14.4,0.5-22.3,0.5h-9c-0.7,0-1.4,0-2.1-0.2c-0.6-0.1-1.2-0.4-1.6-0.9
			c-0.4-0.8-0.4-1.8-0.1-2.6c0.4-1.9,0.9-3.7,1.3-5.6c2-7.5,4.6-14.8,7-22.1c1.3-3.8,2.5-7.6,3.8-11.3c0.3-0.9,0.6-1.8,1-2.7
			c0.4-0.8,0.8-1.6,1.2-2.4c0.9-1.5,1.6-3,2.1-4.7c2.1-7,0.1-14.3-2.4-21c-0.3-0.9-0.7-1.8-1-2.7c0-0.1-0.1,0-0.1,0
			c2.3,7,5,14.3,3.5,21.8c-0.4,1.8-1,3.5-1.8,5c-0.4,0.8-0.9,1.6-1.3,2.4c-0.4,0.8-0.8,1.7-1.1,2.6c-1.3,3.7-2.5,7.5-3.8,11.2
			c-2.5,7.4-5.1,14.9-7.2,22.4c-0.5,1.9-1,3.8-1.4,5.7c-0.3,1.4-1,3.3,0.2,4.5c1,0.7,2.2,1.1,3.5,1h5.9c8,0,24.6-0.7,25.6-0.7
			C244.7,283,244.8,282.9,244.7,282.8C244.7,282.8,244.7,282.8,244.7,282.8L244.7,282.8z"/>
		<path id="Path_11811" class="st6" d="M253.5,311.8c-0.8-4-1.5-8.1-2.4-12.1c-0.9-4-1.9-8-2.9-12c-0.3-1.1-0.6-2.2-0.9-3.4
			c-0.1-0.5-0.3-1.1-0.4-1.6c-0.1-0.5-0.3-1.1-0.5-1.6c0,0,0-0.1,0-0.1c0,0-0.1,0-0.1,0c0,0,0,0,0,0c0.1,1,0.3,2.1,0.6,3.1
			c0.2,1,0.4,1.9,0.6,2.9c0.4,2,0.8,4,1.3,6c0.9,4,1.9,8,2.9,11.9c0.6,2.2,1.2,4.5,1.7,6.7C253.3,311.9,253.4,311.9,253.5,311.8
			C253.5,311.9,253.5,311.9,253.5,311.8L253.5,311.8z"/>
		<path id="Path_11812" class="st6" d="M183.5,260.8l40.7-14.8c0.6-1.6,1.1-3.1,1.7-4.6c0.6-1.5,6.4-7.5,5.7-18.1
			c-0.5-6.6-2.2-13-5-18.9h-37.7c0,0,0.5,15.5,2.8,23.1c0,0,2.5,1.3,3.3,1.8C195,229.3,188.7,244.5,183.5,260.8z"/>
		<path id="Path_11813" class="st10" d="M121.6,319.8c1.5,0.5,45-1,46.7-2.1c0.6-0.4,0.8-6.8,0.7-14.4V303c0-1.6-0.7-28.1-0.7-28.1
			l-30.5,0.9l3.1,27.8v0.5c0,0-16.4,8-18.1,9.4C121.2,314.9,120,319.4,121.6,319.8z"/>
		<path id="Path_11814" class="st0" d="M121.6,319.8c1.5,0.5,45-1,46.7-2.1c0.6-0.4,0.8-6.8,0.7-14.4V303c0-0.4,0-2.6-0.1-5.8
			l-28.5,1.1l0.6,5.4v0.5c0,0-16.4,8-18.1,9.4S120,319.4,121.6,319.8z"/>
		<path id="Path_11815" class="st8" d="M121.2,320c1.6,0.5,45.5-1,47.1-2.1c0.6-0.4,0.8-6.8,0.7-14.6l-28.3,0.9
			c0,0-16.6,8.1-18.2,9.5S119.7,319.5,121.2,320z"/>
		<path id="Path_11816" class="st6" d="M121.8,318.2c7.4-0.4,37.1-1.5,44.4-1.3c0.1,0,0.1,0,0,0c-7.3,0.6-37,1.4-44.4,1.4
			C121.6,318.4,121.6,318.2,121.8,318.2z"/>
		<path id="Path_11817" class="st6" d="M125.3,312c1.7-0.1,3.3,0.5,4.5,1.7c1.1,1,1.7,2.4,1.8,3.9c0,0-0.1,0.1-0.1,0
			C130.9,314.5,128.4,312.3,125.3,312C125.3,312.1,125.3,312,125.3,312C125.3,312,125.3,312,125.3,312L125.3,312z"/>
		<path id="Path_11818" class="st6" d="M137.9,305c3.1-0.3,6.2,0.9,8.3,3.1c0.1,0.1-0.1,0.2-0.1,0.2c-2.6-1.3-5.4-2.2-8.2-2.9
			c-0.1,0-0.2-0.1-0.2-0.2C137.8,305.1,137.8,305,137.9,305L137.9,305z"/>
		<path id="Path_11819" class="st6" d="M135.7,306c3.1-0.3,6.2,0.9,8.3,3.1c0.1,0.1-0.1,0.2-0.1,0.2c-2.6-1.3-5.4-2.2-8.2-2.9
			c-0.1,0-0.2-0.1-0.2-0.2C135.5,306,135.6,306,135.7,306L135.7,306z"/>
		<path id="Path_11820" class="st6" d="M133.5,306.9c3.1-0.3,6.2,0.9,8.3,3.1c0.1,0.1-0.1,0.2-0.1,0.2c-2.6-1.3-5.4-2.2-8.2-2.9
			c-0.1,0-0.2-0.1-0.2-0.2C133.3,307,133.4,306.9,133.5,306.9L133.5,306.9z"/>
		<path id="Path_11821" class="st6" d="M131.2,307.9c3.1-0.3,6.2,0.9,8.3,3.1c0.1,0.1-0.1,0.2-0.1,0.2c-2.6-1.3-5.4-2.2-8.2-2.9
			c-0.1,0-0.2-0.1-0.2-0.2C131,308,131.1,307.9,131.2,307.9L131.2,307.9L131.2,307.9z"/>
		<path id="Path_11822" class="st6" d="M164.1,310c1.4,0,2.6,1.2,2.5,2.6c0,1.3-1.1,2.4-2.4,2.5c-1.4,0-2.6-1.2-2.5-2.6
			C161.7,311.2,162.7,310.1,164.1,310z"/>
		<path id="Path_11823" class="st6" d="M134.9,301.6c1.8,1.8,4,3.4,6.3,4.6c0.2,0.1,0.4,0,0.5-0.2c0,0,0-0.1,0-0.1
			c0,0,0.1,0,0.1-0.1c0,0,0,0,0,0c-0.3-2.7-1.3-5.3-2.9-7.4c-1-1.3-2.9-2.4-4.3-1.1C133.1,298.5,133.9,300.4,134.9,301.6z
			 M134.7,299.1c0.2-3.2,3.2-0.8,3.8,0.1c0.4,0.6,0.8,1.3,1.1,2c0.7,1.4,1.3,2.8,1.8,4.3c-1-0.7-2.1-1.4-3.1-2.1
			C137.1,302.5,134.6,300.9,134.7,299.1L134.7,299.1z"/>
		<path id="Path_11824" class="st6" d="M152.2,303.6c-0.3-1.9-2.5-2.3-4-1.9c-2.6,0.7-5.1,2-7,3.9c0,0,0,0.1,0,0.1c0,0,0,0,0,0
			c-0.1,0.2,0,0.4,0.1,0.5c0,0,0.1,0,0.1,0c2.5,0.5,5.2,0.7,7.8,0.5C150.6,306.4,152.4,305.4,152.2,303.6z M145.3,305.9
			c-1.2-0.1-2.5-0.3-3.7-0.4c1.3-0.8,2.7-1.5,4.1-2.2c0.7-0.3,1.4-0.6,2.1-0.8c1.1-0.3,4.9-0.2,3,2.4
			C149.8,306.3,146.8,306,145.3,305.9L145.3,305.9z"/>
		<path id="Path_11825" class="st9" d="M138.4,301.5h34.1c0,0-6.1-46.4-4-49.4c0.9-1.3,45.1,3.1,58-10.9
			c11.8-12.8-0.2-36.8-0.2-36.8H190c0,0-0.7,10.3-2.7,14.4c-0.8,1.8-41.4-0.7-47.7,10.8C131.1,245.1,138.4,301.5,138.4,301.5z"/>
		<path id="Path_11826" class="st6" d="M168.9,295.1c-3.8-0.1-7.7-0.3-11.6-0.3s-7.7,0.1-11.6,0.2c-1.1,0-4.3,0.2-4.8,0.2
			c-0.5,0-1.1,0.1-1.6,0.1c0,0,0,0,0,0.1c0,0,0,0,0,0c0.8,0.1,9.6,0.2,11.5,0.2c3.8,0,7.7-0.1,11.5-0.2c2.2-0.1,4.4-0.2,6.6-0.2
			C169,295.3,169,295.1,168.9,295.1z"/>
		<path id="Path_11827" class="st6" d="M191.5,215.5c0.2-1.1,0.3-2.2,0.4-3.3c0.3-2.5,0.6-5,0.6-7.5c0-0.2-0.3-0.2-0.3,0
			c-0.2,1.9-0.4,3.9-0.6,5.8c-0.2,2-0.4,3.9-0.7,5.8c-0.1,0.6-0.3,1.5-1.1,1.5c-1,0-1.2-1.3-1.2-2c-0.2-1.8-0.2-3.6-0.1-5.4
			c0.1-2.1,0.4-4.1,0.6-6.2c0,0,0-0.1-0.1-0.1c0,0-0.1,0-0.1,0.1c-1.1,4-1.4,8.1-1,12.2c0,0.8,0.6,1.6,1.3,1.9h0c0,0,0,0,0,0.1v0.3
			c0,0.1,0,0.2,0,0.3v0.6c0,0.1,0.1,0.1,0.1,0.1c0.1,0,0.1-0.1,0.1-0.1c0.1,0,0.1,0,0.1-0.1c0.1-0.4,0.1-0.8,0-1.2
			c0.5,0,0.9-0.2,1.2-0.6C191.3,217.1,191.5,216.3,191.5,215.5z"/>
		<path id="Path_11828" class="st6" d="M187.8,218.5c2.8,1.9,5.4,4.1,7.8,6.4c0.1,0.1,0,0.2-0.1,0.2c-2.7-2.1-5.4-4.1-7.9-6.3
			C187.4,218.6,187.6,218.3,187.8,218.5z"/>
		<path id="Path_11829" class="st6" d="M217.7,220.4c-0.8,0-1.6-0.1-2.3-0.2c-0.7-0.1-1.4-0.3-2-0.5c-1.4-0.3-2.6-0.9-3.7-1.8
			c-0.9-1.1-1.6-2.3-2.1-3.6c-0.6-1.4-1.1-2.8-1.2-4.3c0-0.1-0.1-0.1-0.1,0c0.1,1.5,0.4,3.1,0.8,4.6c0.2,0.8,0.5,1.5,0.9,2.2
			c0.8,2.2,2.9,3.7,5.3,3.9c1.5,0.3,3.1,0.3,4.6,0C217.8,220.6,217.8,220.4,217.7,220.4z"/>
		<path id="Path_11830" class="st6" d="M164.8,249.9c0.2-0.8,0.8-1.5,1.7-1.6c1-0.1,1.9-0.1,2.9-0.1c2.3,0,4.5,0.1,6.8,0.1
			c9,0.2,17.9-0.5,26.7-2c4.3-0.8,8.5-2.1,12.5-3.8c3.6-1.3,6.7-3.6,8.9-6.6c2.4-3.6,2.6-8.3,2.6-12.6c-0.1-4.6-0.8-9.1-2.2-13.4
			c-0.3-1.1-0.7-2.2-1.2-3.3c0-0.1,0.1-0.1,0.1-0.1c1.8,4.1,3,8.5,3.5,13c0.3,2.2,0.4,4.4,0.3,6.6c0,2.2-0.3,4.3-0.8,6.4
			c-2.3,7.9-11.2,11.2-18.4,13.2c-8.7,2.2-17.6,3.3-26.5,3.2c-4.5,0.1-9,0-13.5-0.1c-0.9,0-2.3-0.3-2.8,0.6
			c-0.2,0.5-0.4,1.1-0.4,1.6c-0.1,0.6-0.2,1.3-0.2,1.9c-0.1,2.4-0.1,4.8,0.1,7.2c0.3,4.9,0.6,9.7,1,14.5c0.4,4.9,0.9,9.7,1.3,14.6
			c0.1,1.2,0.2,2.4,0.3,3.6c0,0.1-0.1,0.1-0.1,0.1c-0.1,0-0.1-0.1-0.1-0.1c-1.2-9.6-2.1-19.3-2.8-28.9c-0.2-2.4-0.3-4.8-0.4-7.2
			C164.1,254.6,164.3,252.2,164.8,249.9z"/>
		<path id="Path_11831" class="st6" d="M186.6,251.7c3,0,6-0.3,9-0.7c2.8-0.3,5.6-0.7,8.5-1.2c4.9-0.7,9.8-1.9,14.5-3.6
			c2.5-1,4.9-2.3,7-4c0,0,0.1,0,0.1,0c0,0,0,0.1,0,0.1c0,0,0,0,0,0c-3.6,3.2-7.9,5.5-12.6,6.6c-5.3,1.4-10.8,2.3-16.3,2.9
			c-3.4,0.3-6.8,0.4-10.2,0.3C186.5,252,186.4,251.9,186.6,251.7C186.5,251.8,186.5,251.7,186.6,251.7L186.6,251.7z"/>
		<path id="Path_11832" class="st10" d="M197.8,161.9c-4.7,10.7-20.7,26.9-26.1,28.6c-6.6,2.1-22.3-8.1-28.5-14.3
			c-2.6-2.6,6.6-15.2,10.9-14.9c2.4,0.1,15.3,11.4,17.2,10.5c4.7-2.3,11.1-6.9,20.2-13.1C196.6,155.2,200.8,155.2,197.8,161.9z"/>
		<path id="Path_11833" class="st10" d="M159.6,164.9c-1.4-2.2-3.1-4.4-4.8-6.4c-1.8-1.7-10.8-5.8-11.8-3.9c-1.3,2.5,3.5,5.8,6,7.2
			c0,0-2.9,5.7-0.1,8.8S159.6,164.9,159.6,164.9z"/>
		<path id="Path_11834" class="st10" d="M145.2,177.8c-4.3-2.3-8.4-4.9-12.3-7.8c-2-1.9-7.5-7.9-6.1-9.6c1.3-1.7,3-0.1,3-0.1
			s-1.9-2.9-0.4-4.5c1.5-1.6,4.1,1,4.1,1s-1.7-3.1-0.2-4.6c1.6-1.5,3.8,1.6,3.8,1.6s-1.7-2.8,0.1-3.4c2.2-0.8,4.8,4.6,7.2,6.6
			c0.5,0.4,11.7,8.2,11.7,8.2L145.2,177.8z"/>
		<path id="Path_11835" class="st6" d="M136.9,153.6c1.4,3.3,3.9,6.1,7.1,7.7c0.1,0,0,0.2-0.1,0.1c-3.8-1.9-6-3.4-7.3-7.8
			C136.6,153.5,136.8,153.4,136.9,153.6z"/>
		<path id="Path_11836" class="st6" d="M133.3,156.5c1.9,3.3,4.5,6.1,7.7,8.2c0,0,0,0.1,0,0.1c0,0-0.1,0-0.1,0
			c-3.8-2.4-6-3.9-7.8-8.2C133.1,156.5,133.2,156.4,133.3,156.5z"/>
		<path id="Path_11837" class="st6" d="M130,160.4c2,3.2,4.8,5.9,8.2,7.6c0,0,0,0.1,0,0.1c0,0-0.1,0-0.1,0c-3.6-1.4-6.6-4.1-8.2-7.7
			C129.8,160.3,129.8,160.2,130,160.4z"/>
		<path id="Path_11838" class="st6" d="M142.8,155.4c0.5,3.1,3.9,4.6,6.3,6.1c0.1,0.1,0.2,0.2,0.1,0.4c0,0,0,0-0.1,0.1
			c-1.1,2.5-1.9,6.2-0.4,8.7c0,0,0,0.1,0,0.1c0,0-0.1,0-0.1,0l0,0c-1.9-2.4-1.5-6.2-0.1-8.8C146.1,160.4,142.7,158.7,142.8,155.4
			C142.8,155.4,142.8,155.4,142.8,155.4z"/>
		<path id="Path_11839" class="st7" d="M179.3,165.5l7.9,15.2c0,0,10.8-15.4,12.7-20.8c2.1-6.1-1.5-5.8-7-3.2
			C188.1,159.2,183.6,162.2,179.3,165.5z"/>
		<path id="Path_11840" class="st6" d="M182.3,164.7c1.3,1.8,4.3,7.7,4.8,8.7c0.3,0.5,1.2,2.6,1.5,3.1c0,0.1-0.1,0.1-0.1,0
			c-0.5-1-1.1-1.9-1.7-2.9C186.4,172.7,183.1,166.8,182.3,164.7C182.3,164.7,182.3,164.7,182.3,164.7
			C182.3,164.7,182.3,164.7,182.3,164.7L182.3,164.7z"/>
		<path id="Path_11841" class="st11" d="M199.8,159.9c-1.9,5.4-12.7,20.8-12.7,20.8l-4-7.8l15.2-18
			C200.3,154.9,201.1,156.3,199.8,159.9z"/>
		<path id="Path_11842" class="st7" d="M231.9,209.8l-45.7,6.3c0.1,0.9-2.4-36.1,6.4-59.3c0.6-1.6,7.6-4.2,11.1-1.7
			C219.5,166,232,210.4,231.9,209.8z"/>
		<path id="Path_11843" class="st11" d="M203.4,154.9l-10.4,1.5c0.9-0.8,2-1.3,3.2-1.6l4.2-0.6C201.5,154.2,202.5,154.5,203.4,154.9
			z M206.1,157l-14.1,2c-0.1,0.4-0.3,0.8-0.4,1.2l15.6-2.2C206.8,157.6,206.4,157.3,206.1,157L206.1,157z M209.1,160.2l-18.3,2.5
			c-0.1,0.4-0.2,0.8-0.3,1.2l19.6-2.7C209.7,160.9,209.4,160.5,209.1,160.2L209.1,160.2z M211.6,163.4l-21.8,3l-0.3,1.2l22.9-3.2
			C212.1,164.1,211.9,163.8,211.6,163.4z M213.8,166.7l-24.8,3.4c-0.1,0.4-0.2,0.8-0.2,1.2l25.7-3.5L213.8,166.7z M215.8,170.1
			l-27.5,3.8c-0.1,0.4-0.1,0.8-0.2,1.2l28.3-3.9C216.2,170.8,216,170.4,215.8,170.1L215.8,170.1z M217.6,173.4l-29.9,4.1
			c-0.1,0.4-0.1,0.8-0.2,1.2l30.6-4.2C218,174.1,217.8,173.8,217.6,173.4L217.6,173.4z M219.3,176.8l-32,4.4
			c-0.1,0.4-0.1,0.8-0.1,1.2l32.7-4.5C219.6,177.5,219.5,177.1,219.3,176.8L219.3,176.8z M220.9,180.2l-34,4.7
			c0,0.4-0.1,0.8-0.1,1.2l34.6-4.8L220.9,180.2z M222.4,183.6l-35.8,4.9l-0.1,1.2l36.4-5C222.7,184.3,222.5,183.9,222.4,183.6
			L222.4,183.6z M223.8,187l-37.5,5.2c0,0.4,0,0.8-0.1,1.2l38-5.2L223.8,187z M225.2,190.4l-39,5.4c0,0.4,0,0.8-0.1,1.2l39.5-5.5
			C225.5,191.1,225.3,190.8,225.2,190.4L225.2,190.4z M226.5,193.8l-40.4,5.6v1.2l40.9-5.6L226.5,193.8z M227.7,197.2L186,203v1.2
			l42.1-5.8C228,198,227.9,197.6,227.7,197.2L227.7,197.2z M228.9,200.7l-43,5.9v1.2l43.3-6L228.9,200.7z M230.1,204.1l-44.1,6v1.2
			l44.4-6.1L230.1,204.1z M231.2,207.6l-45.1,6.2c0,0.4,0,0.8,0.1,1.2l45.4-6.3C231.4,208.4,231.3,208,231.2,207.6L231.2,207.6z"/>
		<path id="Path_11844" class="st10" d="M195,162.8c2.2,0.2,6.4-3,7.5-6.3c0.1-0.2-0.6-2.4-1.4-5c-0.4-1.6-0.9-3.4-1.2-5.1
			c-0.1-0.3-10,4.4-10,4.4c1,2,1.7,4.1,2.2,6.2c0,0.2,0.1,0.5,0.1,0.7v0.1C192.3,159.2,192.6,162.6,195,162.8z"/>
		<path id="Path_11845" class="st6" d="M192.2,157.7v0.1c0.4,0,0.7-0.1,1.1-0.1c6.1-1.2,6.4-9.2,6.3-11.2c-1.8,0.6-9.6,4.3-9.6,4.3
			c1,2,1.7,4.1,2.2,6.2C192.2,157.3,192.2,157.5,192.2,157.7z"/>
		<path id="Path_11846" class="st10" d="M199.6,133.2c1.7,3.6,1.3,14.6-1,17.4c-3.3,4-9.6,5.3-13.2,1.1c-3.5-4.1-2.7-18.4-0.1-21
			C189.2,126.8,197.2,127.9,199.6,133.2z"/>
		<path id="Path_11847" class="st6" d="M190.1,141.1C190.1,141.1,190.2,141.2,190.1,141.1c0,0.8,0.1,1.7,0.7,1.9v0
			C190,143,189.9,141.8,190.1,141.1z"/>
		<path id="Path_11848" class="st6" d="M190.8,140.4c1.2-0.1,1.2,2.3,0.1,2.4S189.8,140.4,190.8,140.4z"/>
		<path id="Path_11849" class="st6" d="M185.8,141.3C185.8,141.3,185.7,141.3,185.8,141.3c-0.1,0.8-0.1,1.7-0.8,1.9v0
			C185.8,143.1,186,142,185.8,141.3z"/>
		<path id="Path_11850" class="st6" d="M185.1,140.5c-1.2-0.1-1.3,2.3-0.2,2.4C186.1,143,186.1,140.6,185.1,140.5z"/>
		<path id="Path_11851" class="st6" d="M191.7,139.3c-0.3-0.1-0.6-0.2-0.9-0.3c-0.3-0.1-0.7-0.2-0.9-0.5c-0.1-0.2-0.1-0.5,0.1-0.6
			c0.4-0.3,0.9-0.3,1.3-0.1c0.4,0.1,0.8,0.4,1.1,0.8c0.1,0.3,0,0.6-0.2,0.7C192,139.3,191.9,139.3,191.7,139.3L191.7,139.3z"/>
		<path id="Path_11852" class="st6" d="M184.2,139.3c0.3-0.1,0.6-0.2,0.9-0.3c0.3,0,0.7-0.2,0.9-0.4c0.1-0.2,0.1-0.4,0-0.6
			c-0.3-0.3-0.8-0.4-1.2-0.2c-0.5,0.1-0.9,0.4-1.1,0.7c-0.2,0.3-0.1,0.6,0.2,0.7C184,139.3,184.1,139.3,184.2,139.3L184.2,139.3z"/>
		<path id="Path_11853" class="st6" d="M190.8,148c-0.2,0.2-0.3,0.4-0.6,0.4c-0.3,0-0.5-0.1-0.8-0.2l0,0c0.2,0.3,0.6,0.5,0.9,0.4
			C190.7,148.6,190.9,148.3,190.8,148C190.9,148,190.9,148,190.8,148z"/>
		<path id="Path_11854" class="st6" d="M190.1,145.8c-0.4,0.6-1,1-1.7,1.1c-0.3,0.1-0.6,0.1-0.9,0.1h-0.3c-0.1,0-0.1-0.1-0.2-0.2
			l0,0c0,0,0,0,0-0.1l0,0v-1.5c-0.2,0.1-1.3,0.6-1.2,0.3c0-2.6,0.4-5.1,0.9-7.7c0-0.1,0.1-0.1,0.1,0c0,2.4-0.5,4.7-0.5,7.1
			c0.4-0.2,0.8-0.3,1.2-0.4c0.1,0-0.1,1.7-0.1,1.9l0,0c0.9,0.1,1.9-0.2,2.6-0.8C190,145.7,190.1,145.7,190.1,145.8z"/>
		<path id="Path_11855" class="st6" d="M187.8,146.7c0.3,0.4,0.7,0.7,1.2,0.9c0.3,0.1,0.6,0.1,0.8,0c0.6-0.2,0.6-0.7,0.5-1.2
			c-0.1-0.3-0.1-0.5-0.3-0.7C189.4,146.3,188.6,146.6,187.8,146.7z"/>
		<path id="Path_11856" class="st12" d="M189,147.6c0.3,0.1,0.6,0.1,0.8,0c0.6-0.2,0.6-0.7,0.5-1.2C189.7,146.5,189.1,147,189,147.6
			z"/>
		<path id="Path_11857" class="st6" d="M183.8,134.3c0.4-0.9,0.9-1.9,1.5-2.1c0.6-0.2,0.9,1.2,2.2,1.3c1.7,0.1,2.6-1.5,5-1.7
			c3.5-0.3,5.1,2.6,5.2,7.6c0.1,4.4,2.8,4.8,2.8,4.8s1.5-9.8-1.2-13c-3.5-3.6-9.1-4.3-13.3-1.5C184.3,130.8,183.8,134.3,183.8,134.3
			z"/>
		<path id="Path_11858" class="st10" d="M198.2,142.4c0,0,2-3.8,3.7-3.1c1.7,0.7,0.5,5.9-1.3,6.9c-0.9,0.5-2.1,0.3-2.6-0.6
			c0,0,0-0.1-0.1-0.1L198.2,142.4z"/>
		<path id="Path_11859" class="st6" d="M201.5,140.8L201.5,140.8c-1.1,0.8-1.9,2-2.1,3.3c0.2-0.5,0.8-0.8,1.4-0.6
			c0.1,0,0.1,0,0.1,0.1v0.1c-0.5-0.1-1,0.1-1.2,0.6c-0.2,0.4-0.4,0.7-0.5,1.1c0,0.1-0.3,0.1-0.2-0.1l0,0
			C198.8,143.7,199.8,141.2,201.5,140.8z"/>
		<path id="Path_11860" class="st7" d="M188.7,128c1.3-0.7,2.8-1.3,4.3-1.6c1.7-0.3,7-0.3,8.4,0.7c1.4,1,2,6,2.1,6.7
			c0.1,0.7,0,5.2-1.5,6.4c-1.5,1.2-2.2-6.4-4.9-8.7C194.5,129.2,188.7,128,188.7,128z"/>
		<path id="Path_11861" class="st11" d="M188.7,128c0,0,5.7,1.2,8.4,3.5c2.7,2.3,3.3,9.9,4.9,8.7c0.7-0.6,1.1-1.5,1.2-2.4
			c-0.6-2.8-1.8-5.5-3.6-7.8c-2.2-2.1-5.1-3.2-8.1-3.2C190.6,127.1,189.6,127.5,188.7,128z"/>
		<path id="Path_11862" class="st7" d="M201.9,144.8c-1-3.7-2.7-7.2-5-10.2c-2.4-2.9-8.7-4.4-9.7-4.2c-2.1,0.3-2.5,1.3-2.9,1.2
			c-0.4-0.2,1.6-2.7,2.2-3.1c0.9-0.5,1.9-0.8,2.9-0.9c0.9,0,6.7,0.2,9,2.5c2.2,2.3,5.7,9,5.2,10.8c-0.1,0.4-0.6,0.7-0.8,1.3
			c-0.2,0.8-0.3,1.7-0.5,2.3S201.9,144.9,201.9,144.8z"/>
		<path id="Path_11863" class="st6" d="M196.3,133.2c0.5-0.3,0.9-0.7,1.3-1.1c0.4-0.4,0.8-0.9,1.1-1.3h0.1c-0.3,0.6-0.6,1.1-1,1.5
			C197.3,132.7,196.8,133,196.3,133.2C196.3,133.3,196.2,133.2,196.3,133.2z"/>
		<path id="Path_11864" class="st6" d="M201.8,142.7c0.1-0.1,0.1-0.3,0.2-0.4c0.1-0.2,0.1-0.3,0.2-0.5c0-0.3,0.1-0.7,0.2-1
			c0.1-0.3,0.3-0.5,0.4-0.7c0.2-0.2,0.3-0.5,0.3-0.8c0,0,0.1-0.1,0.1,0c-0.1,0.6-0.3,1.1-0.6,1.6c-0.1,0.3-0.2,0.7-0.2,1.1
			C202.3,142.2,202.1,142.6,201.8,142.7C201.9,142.8,201.7,142.8,201.8,142.7z"/>
		<path id="Path_11865" class="st6" d="M200.9,140.6c0.2-0.2,0.4-0.5,0.5-0.7c0.1-0.3,0.3-0.5,0.4-0.8c0.1-0.3,0.2-0.5,0.3-0.8
			c0.1-0.3,0.3-0.6,0.4-0.9c0,0,0.1,0,0.1,0c-0.1,0.3-0.2,0.7-0.3,1c-0.1,0.3-0.2,0.6-0.3,0.8c-0.1,0.3-0.3,0.5-0.4,0.7
			C201.4,140.2,201.2,140.4,200.9,140.6C200.9,140.6,200.9,140.6,200.9,140.6z"/>
		<path id="Path_11866" class="st6" d="M200.1,138.7c0.4-0.4,0.7-0.8,1-1.3c0.3-0.5,0.5-1,0.7-1.5h0.1c-0.1,0.5-0.3,1.1-0.6,1.6
			c-0.1,0.2-0.3,0.5-0.5,0.7C200.6,138.4,200.3,138.6,200.1,138.7C200.1,138.7,200,138.7,200.1,138.7z"/>
		<path id="Path_11867" class="st6" d="M199.1,136.9c0.2-0.2,0.4-0.4,0.5-0.6c0.2-0.2,0.3-0.5,0.5-0.7c0.2-0.2,0.3-0.5,0.4-0.7
			c0.2-0.2,0.3-0.5,0.3-0.8h0.1c0,0.3-0.1,0.6-0.2,0.8c-0.1,0.3-0.2,0.6-0.4,0.8c-0.2,0.3-0.3,0.5-0.5,0.7
			C199.7,136.6,199.4,136.8,199.1,136.9C199.1,137,199.1,136.9,199.1,136.9z"/>
		<path id="Path_11868" class="st6" d="M198.4,134.5c0.2-0.2,0.3-0.4,0.5-0.6c0.2-0.2,0.3-0.4,0.5-0.6c0.2-0.2,0.3-0.5,0.4-0.7h0.1
			c-0.1,0.3-0.2,0.5-0.3,0.7c-0.1,0.2-0.3,0.5-0.4,0.7c-0.2,0.2-0.3,0.4-0.5,0.6c-0.2,0.2-0.4,0.4-0.6,0.5c0,0-0.1,0-0.1-0.1
			C198.1,134.8,198.2,134.7,198.4,134.5z"/>
		<path id="Path_11869" class="st6" d="M194.7,132.2c0.2-0.3,0.4-0.5,0.6-0.7c0.2-0.2,0.4-0.5,0.7-0.7c0.4-0.4,0.9-0.8,1.5-1.2
			c0,0,0.1,0,0,0.1C196.5,130.5,195.6,131.3,194.7,132.2C194.7,132.2,194.6,132.2,194.7,132.2z"/>
		<path id="Path_11870" class="st6" d="M193.3,130.5c0.2-0.3,0.4-0.5,0.6-0.7c0.5-0.4,1.1-0.8,1.7-1.1c0,0,0.1,0,0,0.1
			c-0.5,0.4-1,0.7-1.5,1.2c-0.2,0.2-0.5,0.4-0.7,0.6c-0.2,0.2-0.4,0.5-0.6,0.7h0C193,131,193.1,130.8,193.3,130.5z"/>
		<path id="Path_11871" class="st6" d="M191.6,129.8c0.2-0.3,0.4-0.5,0.6-0.7c0.4-0.4,0.9-0.7,1.4-1c0,0,0.1,0,0,0.1
			c-0.5,0.3-0.9,0.7-1.3,1.1C192.1,129.5,191.9,129.7,191.6,129.8c-0.1,0.3-0.3,0.5-0.5,0.7h0C191.2,130.3,191.4,130.1,191.6,129.8z
			"/>
		<path id="Path_11872" class="st6" d="M190.3,128.9c0.2-0.2,0.4-0.4,0.6-0.5c0.2-0.2,0.4-0.3,0.7-0.4v0.1c-0.4,0.4-0.8,0.7-1.2,1.1
			c-0.3,0.4-0.6,0.7-0.9,1.2h0C189.7,129.7,189.9,129.3,190.3,128.9L190.3,128.9z"/>
		<path id="Path_11873" class="st6" d="M188.8,128.7c0.4-0.4,0.8-0.7,1.3-0.9c0,0,0.1,0,0,0.1c-0.4,0.3-0.8,0.6-1.2,1
			c-0.3,0.4-0.6,0.8-0.9,1.3h0C188.1,129.6,188.4,129.1,188.8,128.7z"/>
		<path id="Path_11874" class="st6" d="M186.9,129.7c0-0.1,0.1-0.2,0.2-0.3c0.1-0.2,0.3-0.4,0.4-0.6c0.3-0.4,0.7-0.7,1.1-1
			c0,0,0.1,0,0,0.1c-0.4,0.3-0.7,0.6-1,1c-0.1,0.2-0.3,0.4-0.4,0.6c-0.1,0.1-0.1,0.2-0.2,0.3c0,0.1-0.1,0.2-0.2,0.3h-0.1
			C186.8,129.9,186.8,129.8,186.9,129.7L186.9,129.7z"/>
		<path id="Path_11875" class="st6" d="M185.7,129.9c0.1-0.2,0.2-0.3,0.3-0.5c0.1-0.2,0.3-0.3,0.4-0.4c0.1-0.1,0.3-0.3,0.4-0.4
			c0.1-0.1,0.1,0,0,0c-0.1,0.1-0.3,0.3-0.4,0.5l-0.3,0.4l-0.3,0.5c-0.1,0.2-0.2,0.3-0.3,0.5h0C185.5,130.3,185.6,130.1,185.7,129.9z
			"/>
		<path id="Path_11876" class="st10" d="M209.9,163.7c4.5,10.1,14.6,30.9,12,38.7c-3.4,10.2-21.1,21.5-25.8,24.7
			c-2,1.4-12-11.4-11.3-13.9c0.6-2.5,18.4-16.4,19.4-18.1s-2.1-19.5-2.8-28.9C200.5,154.4,206,155.1,209.9,163.7z"/>
		<path id="Path_11877" class="st10" d="M180.2,220c0.5-1.1,0-1.4-2-0.4c-2,1-9,6.5-10.7,3.8c-1.7-2.6,8.3-10.2,11.7-11.6
			c3.1-1,6.3-1.8,9.5-2.3C187,211.4,183.4,216.3,180.2,220z"/>
		<path id="Path_11878" class="st10" d="M201,223.1c-4.8,5.1-10.6,11.8-18.2,13.9c-0.8,0.3-1.8,0.2-2.6-0.1c-3.4,1-4.9-0.3-4.9-0.3
			c-1.8,0.2-3.5-0.4-4.8-1.5c0,0-4,1.2-5.1-1.1c-1.2-2.6,4.6-3.7,7.5-6.3c6.6-6,14.1-16.3,15.8-18.2L201,223.1z"/>
		<path id="Path_11879" class="st6" d="M184,226.3c-3.9,3.8-8.5,6.8-13.6,8.8c0,0,0,0.1,0,0.1c0,0,0,0,0.1,0
			C175.8,233.6,180.5,230.5,184,226.3C184.2,226.3,184.1,226.2,184,226.3z"/>
		<path id="Path_11880" class="st6" d="M188.2,229.7c-3.9,3.1-8.3,5.4-13,7v0.1c4.9-1,9.4-3.4,13-6.9
			C188.4,229.7,188.3,229.6,188.2,229.7z"/>
		<path id="Path_11881" class="st6" d="M190.5,231.6c-3.1,2.3-6.6,4.1-10.2,5.4v0c3.8-1,7.3-2.8,10.3-5.4
			C190.7,231.6,190.6,231.5,190.5,231.6z"/>
		<path id="Path_11882" class="st7" d="M201.9,179.2l16.9,0.8c0,0-7.8-16.9-11.6-21.2c-4.2-4.9-5.8-1.7-6.3,4.4
			C200.9,168.6,201.2,173.9,201.9,179.2z"/>
		<path id="Path_11883" class="st6" d="M202.7,176.2c2.2-0.2,8.7,0.2,9.9,0.2c0.6,0,2.9,0.2,3.4,0.2c0.1,0,0.1,0.1,0,0.1
			c-1.1,0-2.2,0-3.3,0C211.6,176.7,204.8,176.6,202.7,176.2C202.6,176.3,202.6,176.2,202.7,176.2z"/>
		<path id="Path_11884" class="st6" d="M211.3,165.2C211.3,165.1,211.3,165.1,211.3,165.2c0.1-0.1,0.1-0.1,0.1-0.1
			c0.8,1.4,1.6,2.7,2.4,4.1c-0.2-0.8-0.5-1.6-0.9-2.3c0,0,0-0.1,0.1,0c0.5,0.8,0.8,1.7,1,2.7c0.5,1,1.1,1.9,1.6,2.9
			c1.3,2.5,2.7,5,3.8,7.5c0,0.1,0,0.2-0.1,0.3c0,0-0.1,0-0.1,0c-0.6,0-1.2-0.1-1.8-0.2c-0.1,0-0.1-0.1,0-0.1c0.5,0,1-0.1,1.5-0.1
			c-1.3-2.4-2.5-4.8-3.8-7.2C213.8,170.3,212.5,167.7,211.3,165.2z"/>
		<path id="Path_11885" class="st6" d="M200.9,172c-0.2-0.9-0.4-1.8-0.5-2.6l0,0c0.2,0.6,0.3,1.3,0.4,1.9c-0.1-1.3-0.1-2.6-0.1-3.9
			l0,0c0.3,2,0.4,4,0.7,5.9s0.4,3.9,0.6,5.8c0.4,0.1,0.8,0.2,1.2,0.2c0,0,0.1,0,0.1,0c0,0,0,0.1,0,0.1c0,0,0,0,0,0h-1.3
			c-0.1,0-0.2-0.1-0.2-0.2c0,0,0,0,0,0C201.3,176.9,201,174.5,200.9,172z"/>
	</g>
	<g id="freepik--Lines--inject-175" transform="translate(246.999 92.424)">
		<path id="Path_11886" class="st6" d="M142.9,134.3c-0.3-1.1-0.4-2.1-0.4-3.2c0-1.1,0.1-2.2,0.4-3.2
			C143.4,130,143.4,132.2,142.9,134.3L142.9,134.3z"/>
		<path id="Path_11887" class="st6" d="M136.3,136.2c-1.5-1.6-2.6-3.5-3.2-5.6c0.7,0.8,1.4,1.7,1.9,2.6
			C135.6,134.2,136,135.1,136.3,136.2z"/>
		<path id="Path_11888" class="st6" d="M131.6,141.1c-1-0.3-2-0.7-3-1.3c-0.9-0.5-1.8-1.2-2.6-1.9c1,0.3,2,0.7,3,1.3
			C130,139.7,130.8,140.3,131.6,141.1z"/>
		<path id="Path_11889" class="st6" d="M130,147.7c-1.1,0.3-2.1,0.4-3.2,0.4c-1.1,0-2.2-0.1-3.2-0.4c1.1-0.3,2.1-0.4,3.2-0.4
			C127.9,147.3,128.9,147.4,130,147.7L130,147.7z"/>
		<path id="Path_11890" class="st6" d="M131.9,154.2c-0.8,0.8-1.7,1.4-2.6,1.9c-0.9,0.6-1.9,1-3,1.3c0.8-0.7,1.7-1.4,2.6-1.9
			C129.8,155,130.8,154.5,131.9,154.2z"/>
		<path id="Path_11891" class="st6" d="M136.8,159c-0.3,1-0.7,2-1.3,3c-0.5,0.9-1.2,1.8-1.9,2.6c0.3-1,0.7-2,1.3-3
			C135.4,160.6,136,159.7,136.8,159L136.8,159z"/>
		<path id="Path_11892" class="st6" d="M143.4,160.6c0.3,1.1,0.4,2.1,0.4,3.2c0,1.1-0.1,2.2-0.4,3.2
			C142.9,164.9,142.9,162.7,143.4,160.6L143.4,160.6z"/>
		<path id="Path_11893" class="st6" d="M149.9,158.7c0.7,0.8,1.4,1.7,1.9,2.6c0.6,0.9,1,1.9,1.3,3c-0.8-0.8-1.4-1.7-1.9-2.6
			C150.7,160.8,150.2,159.8,149.9,158.7z"/>
		<path id="Path_11894" class="st6" d="M154.6,153.8c1,0.3,2,0.7,3,1.3c0.9,0.5,1.8,1.2,2.6,1.9
			C158.1,156.4,156.2,155.3,154.6,153.8z"/>
		<path id="Path_11895" class="st6" d="M156.3,147.2c2.1-0.5,4.3-0.5,6.4,0c-1.1,0.3-2.1,0.4-3.2,0.4
			C158.4,147.6,157.3,147.5,156.3,147.2L156.3,147.2z"/>
		<path id="Path_11896" class="st6" d="M154.4,140.7c1.6-1.5,3.5-2.6,5.6-3.2C158.4,138.9,156.5,140,154.4,140.7z"/>
		<path id="Path_11897" class="st6" d="M149.5,135.9c0.3-1,0.7-2,1.3-3c0.5-0.9,1.2-1.8,1.9-2.6c-0.3,1-0.7,2-1.3,3
			C150.9,134.3,150.2,135.2,149.5,135.9L149.5,135.9z"/>
	</g>
	<g id="freepik--Folder--inject-175" transform="translate(136.929 85.987)">
		<rect id="Rectangle_6658" x="77.6" y="200" class="st7" width="180.3" height="130.7"/>
		<path id="Path_11898" class="st7" d="M141.3,186.5H77.6V200H145L141.3,186.5z"/>
		<g id="Group_16879" transform="translate(10.132 39.862)" class="st13">
			<rect id="Rectangle_6659" x="67.5" y="160.2" width="180.3" height="130.7"/>
			<path id="Path_11899" class="st7" d="M132.8,148.2H69.1v13.5h67.4L132.8,148.2z"/>
		</g>
		<path id="Path_11900" class="st0" d="M222.7,273.8c-35.2-10.1-69.6-20-103.5-29.9c8.5-39.8,32.4-78.8,34-119.3
			c35.2,9.5,69.6,19,103.4,28.5C248,193.7,224.1,233.1,222.7,273.8z"/>
		<path id="Path_11901" class="st1" d="M222.7,273.8c-35.2-10-69.6-19.9-103.5-29.7l-0.2-0.1l0-0.2c8.5-39.8,32.3-78.9,33.9-119.3
			v-0.3l0.3,0.1c35.2,9.5,69.6,19,103.5,28.6l0.2,0.1l-0.1,0.2C248.1,193.7,224.2,233.1,222.7,273.8z M222.7,273.8
			c1.4-40.8,25.2-80.2,33.7-120.7c0.1,0.1,0.1,0.2,0.2,0.3c-33.9-9.5-68.2-19-103.4-28.4l0.4-0.2c-1.7,40.4-25.6,79.4-34.1,119.2
			l-0.2-0.2C153.1,253.7,187.5,263.7,222.7,273.8z"/>
		<path id="Path_11902" class="st14" d="M217.1,199.9c-5.6,14.2-21.2,21.8-35.9,17.4c-14.8-4.4-22.6-19.1-17.5-33
			c5.4-14.2,20.8-21.9,35.3-17.5C214,171,222.4,185.8,217.1,199.9z"/>
		<path id="Path_11903" class="st1" d="M190.5,192c-6.1,6.9-12.2,13.8-18.2,20.8c-8.9-6.6-12.4-18.2-8.5-28.6
			c5.4-14.2,20.8-21.8,35.3-17.5c14.9,4.3,23.3,19.3,18,33.2C208.2,197.2,199.3,194.6,190.5,192z"/>
		<path id="Path_11904" class="st1" d="M190.4,192c5.3,7.1,10.5,14.2,15.9,21.4c-7.4,4.9-16.6,6.4-25.1,3.9
			c-14.8-4.3-22.5-19.2-17.5-33c5.4-14.2,20.8-21.8,35.3-17.5c14.9,4.3,23.3,19.3,18,33.2C208.2,197.2,199.3,194.6,190.4,192z"/>
		<path id="Path_11905" class="st7" d="M190.5,192l-28,4.7c-0.6-4.2-0.2-8.5,1.3-12.5c5.4-14.2,20.8-21.8,35.3-17.5
			c14.9,4.3,23.3,19.3,18,33.2C208.2,197.2,199.3,194.6,190.5,192z"/>
		<path id="Path_11906" class="st1" d="M161.2,142.2c14.3,4,28.5,7.9,42.6,11.9c-0.2,1-0.5,2.1-0.7,3.1c-14-4-28.2-8-42.4-11.9
			C160.8,144.3,161,143.2,161.2,142.2z"/>
		<path id="Path_11907" class="st1" d="M157.9,221.8c18.8,5.5,37.8,11.1,56.8,16.7c-0.3,1-0.6,2.1-0.8,3.1
			c-19.1-5.6-38.1-11.2-57-16.7C157.3,223.9,157.6,222.9,157.9,221.8z"/>
		<path id="Path_11908" class="st1" d="M155.5,229.6c18.9,5.6,38,11.2,57.2,16.8c-0.2,1-0.5,2.1-0.7,3.1
			c-19.3-5.6-38.4-11.2-57.4-16.8C154.9,231.6,155.2,230.6,155.5,229.6z"/>
		<path id="Path_11909" class="st1" d="M153.3,237.3c19.1,5.6,38.4,11.2,57.8,16.9c-0.2,1-0.4,2.1-0.5,3.1
			c-19.5-5.7-38.9-11.3-58-16.9C152.7,239.3,153,238.3,153.3,237.3z"/>
		<path id="Path_11910" class="st8" d="M146.8,221.9l-6.8-2c0.3-1,0.7-2,1-3.1l6.8,2C147.5,219.9,147.1,220.9,146.8,221.9z"/>
		<path id="Path_11911" class="st14" d="M144.4,229.6l-6.9-2c0.3-1,0.6-2,1-3.1l6.9,2C145,227.6,144.7,228.6,144.4,229.6z"/>
		<path id="Path_11912" class="st1" d="M142.2,237.4l-7-2c0.3-1,0.6-2,0.9-3.1l6.9,2C142.7,235.3,142.5,236.3,142.2,237.4z"/>
		<path id="Path_11913" class="st7" d="M255.3,182.7c-0.4,46.5-0.8,92.5-1.3,138c-57,3.4-117.8-16-173.6-5.4
			c0.3-46.5,0.8-92.5,1.3-138C138.7,173.9,199.4,193.2,255.3,182.7z"/>
		<path id="Path_11914" class="st15" d="M255.3,182.7c-0.4,46.5-0.8,92.5-1.3,138c-57,3.4-117.8-16-173.6-5.4
			c0.3-46.5,0.8-92.5,1.3-138C138.7,173.9,199.4,193.2,255.3,182.7z"/>
		<path id="Path_11915" class="st1" d="M105.6,299.7c0.3-25.2,0.6-50.4,1-75.3c1.5,0,2.9,0,4.4,0.1c-0.3,24.9-0.7,50-1,75.1
			C108.5,299.6,107,299.6,105.6,299.7z"/>
		<path id="Path_11916" class="st1" d="M116.7,299.5c0.3-25,0.7-50,1-74.8c1.5,0.1,3,0.1,4.5,0.2c-0.4,24.8-0.7,49.7-1.1,74.6
			C119.7,299.5,118.2,299.5,116.7,299.5z"/>
		<path id="Path_11917" class="st1" d="M128,299.8c0.4-24.9,0.7-49.7,1.1-74.4l4.5,0.3c-0.4,24.7-0.8,49.5-1.1,74.3
			C131,299.9,129.5,299.8,128,299.8z"/>
		<path id="Path_11918" class="st1" d="M139.3,300.4c0.6-36.3,1.1-72.4,1.7-108.4l4.5,0.5c-0.6,36-1.2,72.1-1.7,108.3
			C142.3,300.6,140.8,300.5,139.3,300.4z"/>
		<path id="Path_11919" class="st1" d="M150.6,301.3c0.6-36.1,1.2-72.2,1.8-108.2l4.5,0.5c-0.6,36-1.2,72-1.8,108.1
			C153.6,301.6,152.1,301.4,150.6,301.3z"/>
		<path id="Path_11920" class="st1" d="M162,302.4c0.6-36,1.2-72,1.8-108l4.5,0.5c-0.6,36-1.2,72-1.8,108L162,302.4z"/>
		<path id="Path_11921" class="st1" d="M173.4,303.6c0.6-36,1.2-72,1.8-108l4.5,0.5c-0.6,36.1-1.2,72.1-1.8,108.1L173.4,303.6z"/>
		<path id="Path_11922" class="st1" d="M184.8,304.9c0.6-36,1.2-72.1,1.7-108.2c1.5,0.1,3,0.3,4.5,0.4c-0.6,36.2-1.1,72.3-1.7,108.3
			C187.8,305.2,186.3,305,184.8,304.9z"/>
		<path id="Path_11923" class="st1" d="M196.2,306.1c0.6-36.1,1.1-72.2,1.7-108.5c1.5,0.1,3,0.2,4.5,0.3
			c-0.5,36.4-1.1,72.6-1.7,108.7L196.2,306.1z"/>
		<path id="Path_11924" class="st1" d="M207.5,307.1c0.6-36.2,1.1-72.5,1.6-108.9c1.5,0.1,3,0.1,4.5,0.1c-0.5,36.6-1,73-1.6,109.2
			L207.5,307.1z"/>
		<path id="Path_11925" class="st1" d="M218.9,307.9c0.5-36.3,1-72.8,1.5-109.5c1.5,0,2.9,0,4.4,0c-0.5,36.8-0.9,73.4-1.5,109.8
			C221.9,308.1,220.4,308,218.9,307.9z"/>
		<path id="Path_11926" class="st1" d="M230.2,308.4c0.5-36.5,1-73.3,1.4-110.3c1.5-0.1,2.9-0.2,4.4-0.3c-0.4,37.1-0.9,74-1.4,110.6
			C233.1,308.4,231.6,308.4,230.2,308.4z"/>
		<rect id="Rectangle_6660" x="82.9" y="187.1" class="st0" width="168.8" height="131.5"/>
		<path id="Path_11927" class="st1" d="M251.6,187.1l0.2,131.5v0.2h-0.2l-168.8,0.1h-0.4v-0.4l0.1-131.5v-0.3h0.3L251.6,187.1z
			 M251.6,187.1l-168.8,0.3l0.3-0.3l0.1,131.5l-0.4-0.4l168.8,0.1l-0.2,0.2L251.6,187.1z"/>
		<path id="Path_11928" class="st2" d="M118.9,304.1l-0.1-51.4l0.1-51.4l0.1,51.4L118.9,304.1z"/>
		<path id="Path_11929" class="st2" d="M123.1,304.1l-0.1-51.4l0.1-51.4l0.1,51.4L123.1,304.1z"/>
		<path id="Path_11930" class="st2" d="M127.3,304.1l-0.1-51.4l0.1-51.4l0.1,51.4L127.3,304.1z"/>
		<path id="Path_11931" class="st2" d="M131.5,304.1l-0.1-51.4l0.1-51.4l0.1,51.4L131.5,304.1z"/>
		<path id="Path_11932" class="st2" d="M135.7,304.1l-0.1-51.4l0.1-51.4l0.1,51.4L135.7,304.1z"/>
		<path id="Path_11933" class="st2" d="M139.9,304.1l-0.1-51.4l0.1-51.4l0.1,51.4L139.9,304.1z"/>
		<path id="Path_11934" class="st2" d="M144.1,304.1l-0.1-51.4l0.1-51.4l0.1,51.4L144.1,304.1z"/>
		<path id="Path_11935" class="st2" d="M148.3,304.1l-0.1-51.4l0.1-51.4l0.1,51.4L148.3,304.1z"/>
		<path id="Path_11936" class="st2" d="M152.4,304.1l-0.1-51.4l0.1-51.4l0.1,51.4L152.4,304.1z"/>
		<path id="Path_11937" class="st2" d="M156.6,304.1l-0.1-51.4l0.1-51.4l0.1,51.4L156.6,304.1z"/>
		<path id="Path_11938" class="st2" d="M160.8,304.1l-0.1-51.4l0.1-51.4l0.1,51.4L160.8,304.1z"/>
		<path id="Path_11939" class="st2" d="M165,304.1l-0.1-51.4l0.1-51.4l0.1,51.4L165,304.1z"/>
		<path id="Path_11940" class="st2" d="M169.2,304.1l-0.1-51.4l0.1-51.4l0.1,51.4L169.2,304.1z"/>
		<path id="Path_11941" class="st2" d="M173.4,304.1l-0.1-51.4l0.1-51.4l0.1,51.4L173.4,304.1z"/>
		<path id="Path_11942" class="st2" d="M177.6,304.1l-0.1-51.4l0.1-51.4l0.1,51.4L177.6,304.1z"/>
		<rect id="Rectangle_6661" x="164.9" y="285.5" class="st8" width="17.6" height="7.8"/>
		<rect id="Rectangle_6662" x="155.5" y="271" class="st8" width="26.9" height="7.8"/>
		<rect id="Rectangle_6663" x="145" y="256.6" class="st8" width="37.4" height="7.8"/>
		<rect id="Rectangle_6664" x="140.5" y="242.2" class="st8" width="42" height="7.8"/>
		<rect id="Rectangle_6665" x="132.5" y="227.7" class="st8" width="50" height="7.8"/>
		<rect id="Rectangle_6666" x="124.5" y="213.3" class="st8" width="57.9" height="7.8"/>
		<path id="Path_11943" class="st2" d="M116,301.4l16.6-0.2l16.6-0.1c11.1-0.1,22.2-0.1,33.2-0.1l-0.5,0.5v-25l0.1-25l0.2-25l0.3-25
			l0.3,25l0.2,25l0.1,25v25.5h-0.5c-11.1,0-22.2,0-33.2-0.1l-16.6-0.1L116,301.4z"/>
		<rect id="Rectangle_6667" x="186" y="285.5" class="st2" width="0.7" height="7.8"/>
		<rect id="Rectangle_6668" x="186" y="271.1" class="st2" width="0.7" height="7.8"/>
		<rect id="Rectangle_6669" x="186" y="256.6" class="st2" width="0.7" height="7.8"/>
		<rect id="Rectangle_6670" x="186" y="242.2" class="st2" width="0.7" height="7.8"/>
		<rect id="Rectangle_6671" x="186" y="227.7" class="st2" width="0.7" height="7.8"/>
		<rect id="Rectangle_6672" x="186" y="213.3" class="st2" width="0.7" height="7.8"/>
		<path id="Path_11944" class="st6" d="M167.1,292.4c-0.1-3.8-0.4-7.6-0.9-11.4c-0.5-3.8-1.1-7.5-2-11.2c-1.7-7.4-4.2-14.6-7.5-21.4
			c-3.3-6.8-7.6-13.1-12.7-18.7l-1-1l-1-1l-2-2c-1.5-1.2-2.8-2.5-4.4-3.6c-3-2.4-6.2-4.5-9.5-6.4l0-0.1
			c10.3,5.2,19.1,12.9,25.7,22.4c2.2,3.2,4.1,6.5,5.8,9.9c3.3,6.9,5.8,14.2,7.4,21.7C166.6,277.1,167.3,284.8,167.1,292.4
			L167.1,292.4z"/>
		<path id="Path_11945" class="st6" d="M131.6,213.5l0.3,1.1l-5.3,1.3l1.7,5.2l-1.1,0.3l-2.1-6.3L131.6,213.5z"/>
		<rect id="Rectangle_6673" x="208.6" y="199.2" class="st1" width="4.3" height="107.1"/>
		<rect id="Rectangle_6674" x="219.5" y="246" class="st1" width="4.3" height="60.3"/>
		<rect id="Rectangle_6675" x="101.5" y="222.7" class="st1" width="4.3" height="60.3"/>
		<path id="Path_11946" class="st7" d="M282.7,193.4l-0.1,131.5l-168.8-0.1l0.1-97.6l32.2-33.8L282.7,193.4z"/>
		<path id="Path_11947" class="st16" d="M273.4,190.3l-0.1,131.5l-168.8-0.1l0.1-97.6l32.2-33.8L273.4,190.3z"/>
		<path id="Path_11948" class="st17" d="M114,227.2l32.2-33.8l0,33.9L114,227.2z"/>
		<rect id="Rectangle_6676" x="142.3" y="238.9" class="st4" width="4.3" height="73.1"/>
		<rect id="Rectangle_6677" x="153.2" y="238.9" class="st4" width="4.3" height="73.1"/>
		<rect id="Rectangle_6678" x="164.1" y="238.9" class="st4" width="4.3" height="73.1"/>
		<rect id="Rectangle_6679" x="175.1" y="204.9" class="st4" width="4.3" height="107.1"/>
		<rect id="Rectangle_6680" x="186" y="204.9" class="st4" width="4.3" height="107.1"/>
		<rect id="Rectangle_6681" x="197" y="204.9" class="st4" width="4.3" height="107.1"/>
		<rect id="Rectangle_6682" x="207.9" y="204.9" class="st4" width="4.3" height="107.1"/>
		<rect id="Rectangle_6683" x="218.8" y="205" class="st4" width="4.3" height="107.1"/>
		<rect id="Rectangle_6684" x="229.8" y="205" class="st4" width="4.3" height="107.1"/>
		<rect id="Rectangle_6685" x="240.7" y="205" class="st4" width="4.3" height="107.1"/>
		<rect id="Rectangle_6686" x="251.6" y="205" class="st4" width="4.3" height="107.1"/>
		<rect id="Rectangle_6687" x="262.6" y="205" class="st4" width="4.3" height="107.1"/>
		<path id="Path_11950" class="st7" d="M255.9,330.7H75.6L61.7,210.9H242L255.9,330.7z"/>
		<path id="Path_11951" class="st7" d="M125.5,198.5H61.8l1.4,12.4h67.4L125.5,198.5z"/>
	</g>
	<g id="freepik--character-1--inject-175" transform="translate(74.897 78.38)">
		<path id="Path_11952" class="st18" d="M160.3,354.3c-1.6,0.5-48.6,0.1-50.4-1c-0.7-0.4-1-7.3-1.2-15.6c0-1.8-0.1-3.6-0.1-5.5
			l-3.5-25.1l31.4,0.2l2.7,25.1l-0.2,5.5c0,0,17.9,8.2,19.7,9.7C160.5,349.1,162,353.8,160.3,354.3z"/>
		<path id="Path_11953" class="st4" d="M160.3,354.3c-1.6,0.5-48.6,0.1-50.4-1c-0.8-0.5-1.2-10.5-1.3-21.1l30.6,0.2l-0.2,5.5
			c0,0,17.9,8.2,19.7,9.7C160.6,349,162,353.8,160.3,354.3z"/>
		<path id="Path_11954" class="st7" d="M160.3,354.3c-1.6,0.5-48.6,0.1-50.4-1c-0.7-0.4-1-7.3-1.2-15.6l30.3,0.2
			c0,0,17.9,8.2,19.7,9.7S162,353.8,160.3,354.3z"/>
		<path id="Path_11955" class="st6" d="M159.6,352.5c-7.9-0.3-39.7-0.6-47.5-0.2c-0.1,0-0.1,0,0,0c7.8,0.4,39.6,0.5,47.5,0.3
			C159.8,352.6,159.8,352.5,159.6,352.5z"/>
		<path id="Path_11956" class="st6" d="M155.7,345.9c-1.8-0.1-3.5,0.6-4.7,1.9c-1.1,1.1-1.8,2.6-1.8,4.2c0,0.1,0.1,0.1,0.1,0
			C149.9,348.7,152.5,346.3,155.7,345.9C155.7,346,155.8,345.9,155.7,345.9C155.7,345.9,155.7,345.9,155.7,345.9L155.7,345.9z"/>
		<path id="Path_11957" class="st6" d="M142,338.7c-3.3-0.2-6.6,1.1-8.8,3.6c-0.1,0.1,0.1,0.2,0.2,0.2c2.8-1.4,5.7-2.5,8.7-3.3
			c0.1,0,0.2-0.1,0.1-0.2C142.2,338.8,142.1,338.7,142,338.7L142,338.7z"/>
		<path id="Path_11958" class="st6" d="M144.5,339.7c-3.3-0.2-6.6,1.1-8.8,3.6c-0.1,0.1,0.1,0.2,0.2,0.2c2.8-1.4,5.7-2.5,8.6-3.3
			c0.1,0,0.2-0.1,0.1-0.3C144.6,339.8,144.6,339.7,144.5,339.7L144.5,339.7z"/>
		<path id="Path_11959" class="st6" d="M146.9,340.7c-3.3-0.2-6.6,1.1-8.8,3.6c-0.1,0.1,0.1,0.2,0.2,0.2c2.8-1.4,5.7-2.5,8.7-3.3
			c0.1,0,0.2-0.1,0.1-0.2C147,340.7,147,340.7,146.9,340.7L146.9,340.7z"/>
		<path id="Path_11960" class="st6" d="M149.3,341.6c-3.3-0.2-6.6,1.1-8.8,3.6c-0.1,0.1,0.1,0.2,0.2,0.2c2.8-1.4,5.7-2.5,8.7-3.3
			c0.1,0,0.2-0.1,0.1-0.2C149.5,341.7,149.4,341.6,149.3,341.6L149.3,341.6z"/>
		<path id="Path_11961" class="st6" d="M114.2,344.7c-1.5,0-2.7,1.3-2.7,2.8c0,1.4,1.2,2.6,2.6,2.7c1.5,0,2.7-1.3,2.7-2.8
			C116.8,346,115.7,344.8,114.2,344.7z"/>
		<path id="Path_11962" class="st6" d="M145.5,330.4c-1.6-1.3-3.6-0.1-4.6,1.3c-1.7,2.4-2.7,5.1-2.9,8c0,0,0,0.1,0.1,0.1
			c0,0,0,0,0,0c0,0.2,0.2,0.3,0.5,0.3c0,0,0.1,0,0.1,0c2.4-1.4,4.6-3.1,6.6-5.1C146.2,333.7,147,331.6,145.5,330.4z M141.6,337
			c-1.1,0.8-2.2,1.5-3.3,2.3c0.5-1.6,1.1-3.1,1.8-4.7c0.3-0.7,0.7-1.4,1.2-2.1c0.7-1,3.8-3.6,4.1-0.2
			C145.5,334.3,142.9,336.1,141.6,337z"/>
		<path id="Path_11963" class="st6" d="M130.1,340.8c2.8,0.2,5.6-0.1,8.3-0.7c0.2-0.1,0.3-0.3,0.3-0.5c0,0,0-0.1,0-0.1
			c0,0,0-0.1,0-0.1c0,0,0,0,0,0c-2.1-2-4.8-3.3-7.6-3.9c-1.7-0.3-4,0.1-4.3,2.1C126.5,339.6,128.5,340.5,130.1,340.8z M128.2,339
			c-2.1-2.7,2-2.9,3.2-2.6c0.8,0.2,1.5,0.5,2.3,0.8c1.6,0.6,3,1.5,4.5,2.2c-1.3,0.1-2.7,0.3-4,0.5C132.6,340,129.4,340.5,128.2,339
			L128.2,339z"/>
		<path id="Path_11964" class="st14" d="M60.4,190.7c0,0,35.7,62.5,36.6,66.9c1.5,6.7,8.6,72.9,8.6,72.9l35.1-0.2
			c0,0-5.8-58.4-11.8-77.7c-3.2-10.5-20.4-39.1-28.4-53.2c-0.7-1.3-0.5-7-0.5-7L60.4,190.7z"/>
		<path id="Path_11965" class="st6" d="M137.3,324.4c-5.4-0.1-21.9-0.6-29.2,0c-0.1,0-0.1,0.1,0,0.1c2.5,0.4,23.8,0.1,29.2,0
			c0,0,0.1,0,0.1,0c0,0,0-0.1,0-0.1S137.4,324.4,137.3,324.4C137.3,324.4,137.3,324.4,137.3,324.4z"/>
		<path id="Path_11966" class="st6" d="M66.5,196.5c2.3,3.8,4.8,7.5,7.2,11.2c2.4,3.7,4.8,7.5,7.2,11.3c4.7,7.5,9.3,15.2,13.8,22.8
			c2.2,3.5,4,7.3,5.5,11.1c1.4,3.9,2.4,7.9,3.1,11.9c0.7,4.1,1.1,8.2,1.5,12.3c0.4,4.4,0.9,8.8,1.3,13.2c0.9,9,1.8,18,2.7,26.9
			c0.1,1.1,0.2,2.2,0.3,3.3c0,0.1-0.1,0.1-0.2,0.1c-0.1,0-0.1-0.1-0.1-0.1c-1-8.9-1.8-17.9-2.7-26.8l-1.4-13.3
			c-0.4-4.1-0.8-8.3-1.4-12.4c-0.6-4.1-1.4-8.1-2.6-12c-1.3-4.1-3-8-5.1-11.7c-4.3-7.6-8.9-15.2-13.4-22.7
			c-4.6-7.5-9.2-15.1-14.1-22.5c-0.6-0.9-1.2-1.8-1.8-2.7C66.4,196.5,66.5,196.4,66.5,196.5z"/>
		<path id="Path_11967" class="st18" d="M74.5,356.9c-1.7-0.1-46.2-18.8-47.4-20.5c-0.1-0.1-0.1-0.2-0.1-0.3c0-1.5,3.2-6.9,5.8-13.9
			c0.2-0.5,1.3-2.5,3-5.3c4.5-7.7,12.4-20.9,12.4-20.9l29.1,12l-14.2,20.8l-2.2,5c0,0,13.5,14.3,14.7,16.4S76.2,357,74.5,356.9z"/>
		<path id="Path_11968" class="st4" d="M74.5,356.9c-1.7-0.1-46.2-18.8-47.4-20.5c-0.1-0.1-0.1-0.2-0.1-0.3c0-1.5,3.2-6.9,5.8-13.9
			c0.2-0.5,1.3-2.5,3-5.3l27.3,11.8l-2.2,5c0,0,13.5,14.3,14.7,16.4C76.7,352.1,76.2,357,74.5,356.9z"/>
		<path id="Path_11969" class="st7" d="M74.5,356.9c-1.7-0.1-46.2-18.8-47.4-20.5c-0.5-0.7,1.6-6.7,5.8-14.2l28,11.5
			c0,0,13.5,14.3,14.7,16.4C76.7,352.1,76.2,357,74.5,356.9z"/>
		<path id="Path_11970" class="st6" d="M74.6,354.9c-7.2-3.2-36.6-15.4-43.9-18c-0.1,0-0.1,0,0,0c7.1,3.3,36.5,15.3,43.9,18.1
			C74.7,355.1,74.7,355,74.6,354.9z"/>
		<path id="Path_11971" class="st6" d="M73.4,347.3c-1.6-0.7-3.5-0.7-5.1,0c-1.4,0.6-2.6,1.8-3.2,3.2c0,0,0.1,0.1,0.1,0
			c1.7-2.8,5.1-4,8.2-3.1C73.4,347.5,73.5,347.4,73.4,347.3C73.5,347.4,73.5,347.3,73.4,347.3L73.4,347.3z"/>
		<path id="Path_11972" class="st6" d="M63.4,335.6c-3-1.4-6.5-1.4-9.5,0c-0.1,0.1,0,0.2,0.1,0.2c3.1-0.3,6.2-0.2,9.3,0.2
			c0.1,0,0.2-0.1,0.2-0.2C63.5,335.7,63.5,335.6,63.4,335.6L63.4,335.6z"/>
		<path id="Path_11973" class="st6" d="M65.3,337.4c-3-1.4-6.5-1.4-9.5,0c-0.1,0.1,0,0.2,0.1,0.2c3.1-0.3,6.2-0.2,9.3,0.2
			c0.1,0,0.2-0.1,0.2-0.2C65.4,337.5,65.4,337.4,65.3,337.4L65.3,337.4z"/>
		<path id="Path_11974" class="st6" d="M67.2,339.2c-3-1.4-6.5-1.4-9.5,0c-0.1,0.1,0,0.2,0.1,0.2c3.1-0.3,6.2-0.2,9.3,0.2
			c0.1,0,0.2-0.1,0.2-0.2C67.3,339.3,67.3,339.2,67.2,339.2L67.2,339.2z"/>
		<path id="Path_11975" class="st6" d="M69.1,341c-3-1.4-6.5-1.4-9.5,0c-0.1,0.1,0,0.2,0.1,0.2c3.1-0.3,6.2-0.2,9.3,0.2
			c0.1,0,0.2-0.1,0.2-0.2C69.2,341.1,69.1,341,69.1,341L69.1,341z"/>
		<path id="Path_11976" class="st6" d="M35.4,330.7c-1.4-0.5-3,0.2-3.5,1.7c-0.5,1.3,0.1,2.8,1.4,3.4c1.4,0.5,3-0.2,3.5-1.7
			C37.3,332.8,36.7,331.3,35.4,330.7z"/>
		<path id="Path_11977" class="st6" d="M69.8,329.1c-1-1.8-3.3-1.4-4.8-0.5c-2.4,1.6-4.4,3.8-5.7,6.3c0,0,0,0.1,0,0.1c0,0,0,0,0,0
			c0,0.2,0.1,0.4,0.3,0.4c0,0,0.1,0,0.1,0c2.8-0.3,5.5-1.1,8-2.2C69.2,332.5,70.7,330.8,69.8,329.1z M63.7,333.8
			c-1.3,0.3-2.6,0.6-3.9,0.9c1.1-1.2,2.2-2.5,3.4-3.6c0.6-0.5,1.2-1.1,1.9-1.5c1-0.7,4.9-1.9,3.9,1.3
			C68.4,332.7,65.2,333.4,63.7,333.8L63.7,333.8z"/>
		<path id="Path_11978" class="st6" d="M51.6,333c2.5,1.2,5.2,2,7.9,2.4c0.3,0.1,0.5-0.2,0.4-0.4c0,0,0.1-0.1,0.1-0.1c0,0,0,0,0,0
			c-1.3-2.6-3.2-4.9-5.6-6.5c-1.4-0.9-3.7-1.4-4.8,0.4C48.7,330.6,50.2,332.2,51.6,333z M50.6,330.6c-0.9-3.3,2.9-2,3.9-1.2
			c0.6,0.5,1.3,1,1.8,1.6c1.2,1.2,2.2,2.5,3.3,3.7c-1.3-0.4-2.6-0.7-3.9-1C54.2,333.2,51.1,332.5,50.6,330.6L50.6,330.6z"/>
		<path id="Path_11979" class="st14" d="M65.4,327.5l-32.5-13.6c0,0,41.3-59.1,41.6-63.5c0.3-3.9-17.1-38.3-17.6-48.3
			c-0.5-9.2,3.4-18.1,10.4-24.1l32.8,14.6c-2,3.7-4.9,6.8-8.5,9c0,0,16.8,39.7,15.7,51.9C106.1,265.5,65.4,327.5,65.4,327.5z"/>
		<path id="Path_11980" class="st6" d="M66.9,321.3c-4.7-2.1-3.3-1.6-8-3.6c-2.3-1-17.5-7.5-19.8-8.1c-0.1,0-0.1,0.1,0,0.1
			c2,1.3,17.3,7.5,19.7,8.5c4.8,2,3.4,1.3,8.2,3.2C67,321.4,67,321.4,66.9,321.3C67,321.3,67,321.3,66.9,321.3L66.9,321.3z"/>
		<path id="Path_11981" class="st6" d="M97.1,200.8c-3.5,0.8-7,1.8-10.3,3.2c-0.1,0-0.1,0.1,0,0.1c0,0,0.1,0.1,0.1,0.1
			c3.5-1,7-1.9,10.4-3c0.1,0,0.2-0.2,0.1-0.3S97.2,200.7,97.1,200.8L97.1,200.8z"/>
		<path id="Path_11982" class="st6" d="M93.1,199.3c-0.3,0.6-0.6,1.2-0.9,1.8c-0.2,0.5-0.4,1-0.5,1.5c0,0.1,0.1,0.1,0.1,0.1
			c0,0,0,0,0.1,0c0.4-0.4,0.7-0.9,0.9-1.4c0.3-0.6,0.6-1.1,0.9-1.7C93.9,199.3,93.3,199,93.1,199.3z"/>
		<path id="Path_11983" class="st6" d="M93.6,196.2c0.2-0.5,0.4-1,0.6-1.5s0.5-1.1,0.7-1.6c0-0.1,0.2,0,0.1,0.1
			c-0.2,0.5-0.3,1.1-0.5,1.6c-0.2,0.5-0.4,1.1-0.5,1.6c-0.3,1-0.7,2-1.2,2.9c0.6,0,1.1-0.1,1.6-0.3c0.5-0.3,0.9-0.8,1.2-1.4
			c0.3-0.6,0.6-1.2,0.9-1.7c0.4-0.6,0.7-1.3,1-1.9c0-0.1,0.2,0,0.1,0.1c-0.5,1.4-1.1,2.8-1.8,4.1c-0.3,0.5-0.6,1-1.2,1.2
			c-0.6,0.2-1.3,0.2-1.9,0.1c-0.1,0-0.2,0-0.2-0.1C92.8,198.3,93.2,197.2,93.6,196.2L93.6,196.2z"/>
		<path id="Path_11984" class="st6" d="M92.1,202.7c1.2,2.6,2.2,5.1,3.3,7.6s2.1,5,3,7.5c1.9,5.1,3.7,10.3,5.2,15.6
			c0.7,2.6,1.4,5.2,2.1,7.8c0.7,2.6,1.2,5.3,1.5,8c0.3,2.7,0,5.4-0.8,8c-0.8,2.6-1.8,5.1-3.1,7.4c-0.7,1.5-1,1.3-0.6,0.5
			c1-2.2,3.7-8.7,3.6-14.3c-0.1-2.7-0.5-5.3-1.2-7.9c-0.6-2.7-1.2-5.3-2-7.9c-1.5-5.2-3.2-10.3-4.9-15.3c-1-2.8-2.1-5.7-3.1-8.5
			s-2.1-5.4-3.2-8.5C91.9,202.7,92,202.7,92.1,202.7C92,202.7,92.1,202.7,92.1,202.7L92.1,202.7z"/>
		<path id="Path_11985" class="st6" d="M67.3,194c0.6-0.2,1.4,0.2,2,0.3c0.8,0.1,1.5,0.2,2.3,0.3c0.8,0,1.5,0,2.3-0.1
			c0.8,0,1.5-0.2,2.2-0.6c1.1-0.8,2.1-1.8,2.8-2.9c0.9-1.2,1.7-2.5,2.2-3.8c0-0.1,0.1,0,0.1,0.1c-0.3,0.8-0.4,1.6-0.8,2.3
			c-0.3,0.7-0.7,1.4-1.1,2.1c-0.7,1.3-1.7,2.4-3,3.3c-1.5,0.6-3.1,0.8-4.6,0.6c-0.9-0.1-1.7-0.2-2.6-0.4c-0.6-0.1-1.7-0.3-2-0.8
			C67.1,194.3,67.1,194.1,67.3,194C67.2,194.1,67.3,194,67.3,194L67.3,194z"/>
		<path id="Path_11986" class="st6" d="M42.3,307.8c5.5-8.1,10.9-16.2,16.1-24.4c5.3-8.2,10.5-16.5,15.6-24.8c1.3-1.9,2.5-4,3.4-6.2
			c0.7-2.3,0.6-4.8-0.3-7.1c-1.4-4.3-3-8.6-4.9-12.7c-1.8-4.2-3.8-8.3-5.8-12.4c-2.1-4.1-3.9-8.2-5.4-12.5c-1.5-4-1.8-8.4-0.7-12.6
			c1.3-4.1,3.4-8,6.1-11.4c0.7-0.9,1.3-1.8,2-2.8c0,0,0.1,0,0.1,0c0,0,0,0.1,0,0.1c-2.9,3.6-5.3,7.5-7.1,11.8
			c-0.8,2.1-1.3,4.4-1.5,6.6c0,2.3,0.3,4.6,1,6.8c1.4,4.3,3.2,8.4,5.2,12.4c1.9,4,3.9,8.2,5.8,12.4c1.9,4.2,3.6,8.4,5.1,12.8
			c0.8,1.9,1.2,4,1.3,6.1c-0.2,2.2-1,4.4-2.3,6.2c-5,8.3-10.2,16.4-15.4,24.6s-10.6,16.2-16,24.3l-2.1,3.1
			C42.4,308,42.2,307.9,42.3,307.8z"/>
		<path id="Path_11987" class="st6" d="M114.1,124.3c-2.2-3.4-6.5-4.6-10.8-4.2c-4.3,0.4-9.6,2.1-10.9,9.4c-1,5.9,0.2,11.9-0.6,18.6
			c-0.7,6.6-9.7,22,1.1,31.2c9.7,8.2,31.5,4.1,33.7-10.4c1.7-11.5-10.4-23.7-11.3-28.4S116.6,128,114.1,124.3z"/>
		<path id="Path_11988" class="st6" d="M115.4,131c-0.4,3.4-0.1,6.7,0.8,10c0.2,0.8,0.6,1.6,1.1,2.4c0.4,0.7,0.9,1.4,1.4,2.1
			c1,1.4,1.9,2.7,2.8,4.1c1.8,2.8,3.2,5.7,4.2,8.9c0.9,3.2,1.3,6.5,1,9.8c0.3-1.6,0.4-3.3,0.4-5c-0.1-1.7-0.3-3.4-0.7-5
			c-0.9-3.3-2.2-6.4-4.1-9.2c-0.9-1.4-1.9-2.8-2.9-4.1c-1-1.3-1.9-2.7-2.5-4.2c-0.5-1.6-0.9-3.2-1.1-4.8
			C115.5,134.4,115.4,132.7,115.4,131L115.4,131z"/>
		<path id="Path_11989" class="st6" d="M92.2,134.5c-0.3,3.4-0.4,6.8-0.9,10.1c-0.2,1.7-0.5,3.3-0.9,5c-0.4,1.6-1.1,3.2-1.6,4.8
			c-0.6,1.6-1.1,3.2-1.5,4.9c-0.4,1.7-0.7,3.4-0.9,5.1c-0.1,1.7,0,3.5,0.4,5.2c0.4,1.7,1.2,3.2,2.3,4.6c-0.9-1.4-1.5-3-1.8-4.7
			c-0.3-1.7-0.3-3.3-0.1-5c0.5-3.3,1.3-6.6,2.6-9.7c0.5-1.6,1.2-3.2,1.6-4.9c0.4-1.7,0.7-3.4,0.8-5.1
			C92.3,141.3,92.4,137.9,92.2,134.5L92.2,134.5z"/>
		<path id="Path_11990" class="st18" d="M97.5,151.6c-1,5.7-0.4,30.3,2.5,38.2c3.3,9.2,10.8,25.3,13.5,25.3
			c2.5,0,16.1-7.9,14.6-10.1c-1.5-2.2-11.9-18.6-13.3-21.7c-0.9-1.8-6.2-19.9-9.6-29C102,146.2,98.8,143.8,97.5,151.6z"/>
		<path id="Path_11991" class="st7" d="M96.5,167.5l15.9,1.6c0,0-6.5-16.3-9.8-20.5c-3.6-4.8-5.3-1.9-6.1,3.8
			C96.1,157.4,96.1,162.5,96.5,167.5z"/>
		<path id="Path_11992" class="st4" d="M100.7,151.2c0,0.4-0.4,0.8-0.8,0.8c-0.4,0-0.8-0.4-0.8-0.8s0.4-0.8,0.8-0.8c0,0,0,0,0,0
			C100.3,150.4,100.7,150.7,100.7,151.2z M99.9,160.5c-0.4,0-0.8,0.4-0.8,0.8c0,0.4,0.4,0.8,0.8,0.8c0.4,0,0.8-0.4,0.8-0.8
			c0-0.2-0.1-0.4-0.2-0.6C100.3,160.6,100.1,160.5,99.9,160.5L99.9,160.5z M106.8,160.5c-0.4,0-0.8,0.4-0.8,0.8
			c0,0.4,0.4,0.8,0.8,0.8s0.8-0.4,0.8-0.8C107.6,160.8,107.3,160.5,106.8,160.5L106.8,160.5z M96.4,155.4h-0.2c0,0.5,0,1-0.1,1.6
			c0.1,0,0.1,0,0.2,0c0.4,0,0.8-0.4,0.8-0.8C97.2,155.8,96.8,155.4,96.4,155.4L96.4,155.4z M103.4,155.4c-0.4,0-0.8,0.4-0.8,0.8
			s0.4,0.8,0.8,0.8c0.4,0,0.8-0.4,0.8-0.8c0,0,0,0,0,0C104.2,155.8,103.8,155.5,103.4,155.4z M96.4,165.5c0,0.7,0.1,1.2,0.1,1.6
			c0.4-0.1,0.7-0.5,0.6-0.9C97.1,165.8,96.8,165.6,96.4,165.5z M103.4,165.5c0.5,0,0.8,0.4,0.8,0.9c0,0.5-0.4,0.8-0.9,0.8
			c-0.5,0-0.8-0.4-0.8-0.9C102.5,165.9,102.9,165.5,103.4,165.5L103.4,165.5z M110.4,165.5c0.5,0,0.9,0.4,0.8,0.9
			c0,0.5-0.4,0.9-0.9,0.8c-0.5,0-0.9-0.4-0.8-0.9C109.5,165.9,109.9,165.5,110.4,165.5L110.4,165.5z"/>
		<path id="Path_11993" class="st6" d="M110.4,166.1c-0.5-0.1-5.5-0.7-6.6-0.8c-1.1-0.1-5.5-0.6-6.6-0.6c0,0,0,0,0,0s0,0,0,0
			c1.1,0.2,5.5,0.7,6.6,0.8S109.9,166.2,110.4,166.1C110.5,166.2,110.5,166.1,110.4,166.1z"/>
		<path id="Path_11994" class="st6" d="M109.7,168.9l-13.2-1.3c-0.4-5-0.4-10.1,0-15.1c0.6-4.1,1.6-6.8,3.6-6.1L109.7,168.9z"/>
		<path id="Path_11995" class="st7" d="M100.7,195.6l1.9-15.9c0,0,6-4.5,5.3-10.2c-0.3-2.9-4.3-17.8-7.5-22.3
			c-3.1-4.2-9.2-3.2-11.9-1.3c-8.6,6.1-15.7,12.7-26.4,35.6L100.7,195.6z"/>
		<path id="Path_11996" class="st4" d="M86.7,151.2c0,0.4-0.4,0.8-0.8,0.8c-0.4,0-0.8-0.4-0.8-0.8c0-0.4,0.4-0.8,0.8-0.8
			c0,0,0,0,0,0C86.4,150.4,86.7,150.7,86.7,151.2z M92.9,150.4c-0.4,0-0.8,0.4-0.8,0.8c0,0.4,0.4,0.8,0.8,0.8s0.8-0.4,0.8-0.8
			c0,0,0,0,0,0C93.7,150.7,93.3,150.4,92.9,150.4z M99.9,150.4c-0.4,0-0.8,0.4-0.8,0.8c0,0.4,0.4,0.8,0.8,0.8c0.4,0,0.8-0.4,0.8-0.8
			c0-0.2-0.1-0.4-0.2-0.6C100.3,150.5,100.1,150.4,99.9,150.4L99.9,150.4z M89.4,145.4c0,0-0.1,0-0.1,0l0,0
			c-0.2,0.1-0.3,0.2-0.5,0.3c-0.1,0.1-0.2,0.3-0.2,0.5c0,0.4,0.4,0.8,0.8,0.8c0.4,0,0.8-0.4,0.8-0.8
			C90.2,145.7,89.9,145.3,89.4,145.4C89.4,145.3,89.4,145.3,89.4,145.4L89.4,145.4z M96.4,145.4c-0.4,0-0.8,0.4-0.8,0.8
			c0,0.4,0.4,0.8,0.8,0.8c0.4,0,0.8-0.4,0.8-0.8C97.2,145.7,96.8,145.4,96.4,145.4L96.4,145.4z M79,160.5c-0.4,0-0.8,0.4-0.8,0.8
			c0,0.4,0.4,0.8,0.8,0.8c0.4,0,0.8-0.4,0.8-0.8c0-0.2-0.1-0.4-0.2-0.6C79.4,160.6,79.2,160.5,79,160.5L79,160.5z M85.9,160.5
			c-0.4,0-0.8,0.4-0.8,0.8c0,0.4,0.4,0.8,0.8,0.8c0.4,0,0.8-0.4,0.8-0.8C86.7,160.8,86.4,160.5,85.9,160.5L85.9,160.5z M92.9,160.5
			c-0.4,0-0.8,0.4-0.8,0.8c0,0.4,0.4,0.8,0.8,0.8c0.4,0,0.8-0.4,0.8-0.8C93.7,160.8,93.3,160.5,92.9,160.5L92.9,160.5z M99.9,160.5
			c-0.4,0-0.8,0.4-0.8,0.8c0,0.4,0.4,0.8,0.8,0.8c0.4,0,0.8-0.4,0.8-0.8C100.7,160.8,100.3,160.5,99.9,160.5L99.9,160.5z
			 M82.5,155.4c-0.4,0-0.8,0.4-0.8,0.8c0,0.4,0.4,0.8,0.8,0.8c0.4,0,0.8-0.4,0.8-0.8C83.2,155.8,82.9,155.4,82.5,155.4L82.5,155.4z
			 M89.4,155.4c-0.4,0-0.8,0.4-0.8,0.8c0,0.4,0.4,0.8,0.8,0.8c0.4,0,0.8-0.4,0.8-0.8C90.2,155.8,89.9,155.4,89.4,155.4L89.4,155.4z
			 M96.4,155.4c-0.4,0-0.8,0.4-0.8,0.8c0,0.4,0.4,0.8,0.8,0.8c0.4,0,0.8-0.4,0.8-0.8C97.2,155.8,96.8,155.4,96.4,155.4L96.4,155.4z
			 M103.4,155.4c-0.4,0-0.8,0.4-0.8,0.8c0,0.4,0.4,0.8,0.8,0.8c0.4,0,0.8-0.4,0.8-0.8C104.1,155.8,103.8,155.4,103.4,155.4
			L103.4,155.4z M72,170.6c0.4,0,0.8,0.4,0.8,0.8c0,0.4-0.4,0.8-0.8,0.8c-0.4,0-0.8-0.4-0.8-0.8C71.2,170.9,71.6,170.6,72,170.6
			L72,170.6z M79,170.6c0.5,0,0.9,0.4,0.8,0.9c0,0.5-0.4,0.9-0.9,0.8s-0.9-0.4-0.8-0.9C78.1,170.9,78.5,170.6,79,170.6L79,170.6z
			 M86,170.6c0.5,0,0.8,0.4,0.8,0.8c0,0.5-0.4,0.8-0.8,0.8c-0.5,0-0.8-0.4-0.8-0.8C85.1,170.9,85.5,170.6,86,170.6L86,170.6z
			 M92.9,170.6c0.4,0,0.8,0.4,0.8,0.8c0,0.4-0.4,0.8-0.8,0.8c-0.4,0-0.8-0.4-0.8-0.8C92.1,170.9,92.5,170.6,92.9,170.6L92.9,170.6z
			 M99.9,170.6c0.5,0,0.8,0.4,0.8,0.9c0,0.5-0.4,0.8-0.9,0.8c-0.5,0-0.8-0.4-0.8-0.9C99.1,170.9,99.4,170.6,99.9,170.6L99.9,170.6z
			 M106.9,170.6c0.5,0,0.8,0.4,0.8,0.8c0,0.5-0.4,0.8-0.8,0.8c-0.5,0-0.8-0.4-0.8-0.8C106,170.9,106.4,170.6,106.9,170.6
			L106.9,170.6z M75.6,165.5c0.5,0,0.9,0.4,0.9,0.9c0,0.5-0.4,0.9-0.9,0.9c-0.5,0-0.9-0.4-0.9-0.9C74.6,165.9,75,165.6,75.6,165.5
			L75.6,165.5z M82.5,165.5c0.5,0,0.9,0.4,0.8,0.9c0,0.5-0.4,0.9-0.9,0.8c-0.5,0-0.9-0.4-0.8-0.9C81.6,165.9,82,165.6,82.5,165.5
			L82.5,165.5z M89.5,165.5c0.5,0,0.9,0.4,0.9,0.9c0,0.5-0.4,0.9-0.9,0.9c-0.5,0-0.9-0.4-0.9-0.9C88.6,165.9,89,165.6,89.5,165.5
			L89.5,165.5z M96.5,165.5c0.5,0,0.9,0.4,0.9,0.9c0,0.5-0.4,0.9-0.9,0.9c-0.5,0-0.9-0.4-0.9-0.9C95.6,165.9,95.9,165.6,96.5,165.5
			L96.5,165.5z M103.4,165.5c0.5,0,0.9,0.4,0.8,0.9c0,0.5-0.4,0.9-0.9,0.8c-0.5,0-0.9-0.4-0.8-0.9
			C102.5,165.9,102.9,165.6,103.4,165.5L103.4,165.5z M65.1,180.6c0.5,0,0.9,0.4,0.9,0.9c0,0.5-0.4,0.9-0.9,0.9s-0.9-0.4-0.9-0.9
			C64.2,181,64.6,180.7,65.1,180.6L65.1,180.6z M72.1,180.6c0.5,0,0.8,0.4,0.8,0.9c0,0.5-0.4,0.8-0.9,0.8c-0.5,0-0.8-0.4-0.8-0.9
			C71.2,181,71.6,180.7,72.1,180.6L72.1,180.6z M79,180.6c0.5,0,0.9,0.4,0.9,1c0,0.5-0.4,0.9-1,0.9c-0.5,0-0.9-0.4-0.9-1
			C78.1,181.1,78.5,180.7,79,180.6L79,180.6z M86,180.6c0.5,0,0.9,0.4,0.9,0.9c0,0.5-0.4,0.9-0.9,0.9s-0.9-0.4-0.9-0.9
			C85.1,181,85.5,180.7,86,180.6L86,180.6z M93,180.6c0.5,0,0.8,0.4,0.8,0.9c0,0.5-0.4,0.8-0.9,0.8s-0.8-0.4-0.8-0.9
			C92.1,181,92.5,180.7,93,180.6L93,180.6z M99.9,180.6c0.5,0,0.9,0.4,0.9,0.9c0,0.5-0.4,0.9-0.9,0.9c-0.5,0-0.9-0.4-0.9-0.9
			C99,181,99.4,180.7,99.9,180.6L99.9,180.6z M68.6,175.6c0.5,0,0.9,0.4,0.9,0.9c0,0.5-0.4,0.9-0.9,0.9s-0.9-0.4-0.9-0.9
			C67.7,176,68.1,175.6,68.6,175.6L68.6,175.6z M75.6,175.6c0.5,0,0.9,0.4,0.9,0.9c0,0.5-0.4,0.9-0.9,0.9s-0.9-0.4-0.9-0.9
			C74.6,176,75,175.6,75.6,175.6L75.6,175.6z M82.5,175.6c0.5,0,0.9,0.4,0.8,0.9c0,0.5-0.4,0.9-0.9,0.8c-0.5,0-0.9-0.4-0.8-0.9
			C81.6,176,82,175.6,82.5,175.6L82.5,175.6z M89.5,175.6c0.5,0,0.9,0.4,0.9,0.9c0,0.5-0.4,0.9-0.9,0.9s-0.9-0.4-0.9-0.9
			C88.6,176,89,175.6,89.5,175.6L89.5,175.6z M96.5,175.6c0.5,0,0.9,0.4,0.9,0.9c0,0.5-0.4,0.9-0.9,0.9c-0.5,0-0.9-0.4-0.9-0.9
			C95.6,176,95.9,175.6,96.5,175.6L96.5,175.6z M103.4,175.6c0.5,0,0.9,0.4,0.8,0.9c0,0.5-0.4,0.9-0.9,0.8c-0.5,0-0.9-0.4-0.8-0.9
			C102.5,176,102.9,175.6,103.4,175.6L103.4,175.6z M92.9,190.7c-0.4,0-0.8,0.4-0.8,0.8s0.4,0.8,0.8,0.8c0.4,0,0.8-0.4,0.8-0.8
			c0,0,0,0,0,0C93.7,191.1,93.4,190.7,92.9,190.7L92.9,190.7z M99.9,190.7c-0.4,0-0.8,0.4-0.8,0.8c0,0.4,0.4,0.8,0.8,0.8
			s0.8-0.4,0.8-0.8C100.7,191.1,100.3,190.7,99.9,190.7C99.9,190.7,99.9,190.7,99.9,190.7L99.9,190.7z M75.5,185.7
			c-0.3,0-0.6,0.1-0.7,0.4l1.5,0.5c0-0.1,0-0.1,0-0.2C76.2,186.1,75.9,185.7,75.5,185.7L75.5,185.7z M82.5,185.7
			c0-0.4,0.4-0.8,0.8-0.8c0.4,0,0.8,0.4,0.8,0.8s-0.4,0.8-0.8,0.8C82.8,186.5,82.5,186.1,82.5,185.7L82.5,185.7z M89.4,185.7
			c0-0.4,0.4-0.8,0.8-0.8c0.4,0,0.8,0.4,0.8,0.8c0,0.4-0.4,0.8-0.8,0.8C89.8,186.5,89.4,186.1,89.4,185.7L89.4,185.7z M96.4,185.7
			c0-0.4,0.4-0.8,0.8-0.8c0.4,0,0.8,0.4,0.8,0.8s-0.4,0.8-0.8,0.8C96.7,186.5,96.4,186.1,96.4,185.7L96.4,185.7z"/>
		
			<rect id="Rectangle_6688" x="88.6" y="199.2" transform="matrix(0.9248 -0.3804 0.3804 0.9248 -68.8932 57.925)" class="st2" width="47" height="8.1"/>
		<path id="Path_11997" class="st6" d="M66,215.6l4.6,11.3l0,0l30.4-12.5l0,0l-4.6-11.3l0,0L66,215.6z"/>
		<path id="Path_11998" class="st9" d="M134.1,162.4c10.4-17.4,32.9-23.1,50.3-12.7c17.4,10.4,23.1,32.9,12.7,50.3
			s-32.9,23.1-50.3,12.7c0,0,0,0,0,0C129.4,202.4,123.7,179.9,134.1,162.4z M137.8,164.6c8.9,10.7,24.8,12.2,35.6,3.4
			c10.7-8.9,12.2-24.8,3.4-35.6c-8.9-10.7-24.8-12.2-35.6-3.4C130.4,137.9,128.9,153.8,137.8,164.6L137.8,164.6z"/>
		<path id="Path_11999" class="st9" d="M161.8,218.8c-20.9-2.1-36.1-20.7-34-41.5c2.1-20.9,20.7-36.1,41.5-34
			c20.9,2.1,36.1,20.7,34,41.5c-1.6,15.9-12.9,29.1-28.4,33.1C170.6,218.9,166.2,219.3,161.8,218.8z M169.3,145.8
			c-19.5-2-37,12.2-39,31.7c-2,19.5,12.2,37,31.7,39c19.5,2,37-12.2,39-31.7c0.1-1.4,0.2-2.8,0.2-4.2
			C200.9,162.6,187.2,147.7,169.3,145.8L169.3,145.8z M162.2,214.6c-18.5-1.9-31.9-18.4-30-36.9c0.5-4.9,2.1-9.5,4.5-13.7l0,0
			c9.5-15.9,30.1-21.1,46-11.6c15.9,9.5,21.1,30.1,11.6,46C187.7,209.7,175.2,216,162.2,214.6L162.2,214.6z M138.7,165.1
			c0-7,5.7-12.6,12.7-12.6c7,0,12.6,5.7,12.6,12.7c0,7-5.7,12.6-12.7,12.6C144.3,177.8,138.7,172.1,138.7,165.1L138.7,165.1z"/>
		<g id="Group_16880" transform="translate(68.794 19.221)" class="st19">
			<path id="Path_12001" class="st0" d="M100.3,131c-17-1.9-32.4,10.3-34.5,27.3L100.3,131z"/>
			<path id="Path_12002" class="st0" d="M125.6,149.8l-47.2,37.4c2,1.5,4.2,2.7,6.5,3.6c2.6,1.1,5.4,1.8,8.2,2.2l34.9-27.6
				C128.5,160.1,127.7,154.7,125.6,149.8L125.6,149.8z"/>
			<path id="Path_12003" class="st0" d="M111.7,134.5l-45,35.6c0.5,2,1.3,3.9,2.2,5.7l47.9-37.9
				C115.2,136.6,113.5,135.5,111.7,134.5z"/>
			<path id="Path_12004" class="st0" d="M123.6,146l-48.5,38.4c0.3,0.3,0.5,0.5,0.8,0.8l48.3-38.2C124,146.7,123.8,146.3,123.6,146z
				"/>
			<path id="Path_12005" class="st0" d="M125,175.5l-21.5,17.1c0.9-0.2,1.8-0.4,2.7-0.7l17.5-13.8
				C124.2,177.1,124.6,176.3,125,175.5z"/>
		</g>
		<path id="Path_12006" class="st18" d="M85.6,147.6c-4.6,3.2-24.4,19.2-26.8,28.5c-1.5,5.7,8.7,25.6,11.4,30.4
			c1.2,2.1,15.5-5,16-7.5c0.5-2.5-9.8-20.5-9.9-22.4c0,0,9.2-14.8,14.1-22.7C94.9,146.3,94.1,141.7,85.6,147.6z"/>
		<path id="Path_12007" class="st18" d="M92.1,212.5c1.6,2.5,5.8,4.5,4.4,6.2c-1.3,1.5-4.1-0.1-4.1-0.1s2.5,2.9,0.7,4.1
			c-1.8,1.2-4.5-1.2-4.5-1.2s2.2,2.3,0.3,3.4s-4.6-0.5-4.6-0.5s0.2,1.1-1.5,1.3c-2.4,0.2-6.1-3.6-7.6-6c-2.1-4.6-3.9-9.3-5.4-14.1
			l15.7-9.5c0,0,4.6,3.2,6.7,5.1c2.1,1.9,7.4,10.1,5.5,11.6c-1.9,1.5-5.6-4.4-6.8-5.6c-1.2-1.2-1.7-1.2-1.6-0.2
			C90,208.8,91,210.7,92.1,212.5z"/>
		<path id="Path_12008" class="st6" d="M92.3,218.4c-3.1-2-5.5-4.9-6.7-8.4c0-0.1-0.2-0.1-0.1,0c1.3,4.2,2.5,6.6,6.7,8.6
			C92.4,218.7,92.5,218.5,92.3,218.4z"/>
		<path id="Path_12009" class="st6" d="M88.7,221.5c-3.1-2.4-5.5-5.5-7.1-9.1c0-0.1-0.1,0-0.1,0.1c1.8,4.3,3,6.7,7,9.2
			C88.7,221.8,88.9,221.7,88.7,221.5z"/>
		<path id="Path_12010" class="st6" d="M84.3,224.3c-3-2.5-5.2-5.8-6.4-9.5c0,0-0.1,0-0.1,0c0,0,0,0,0,0.1c0.8,3.9,3.1,7.3,6.4,9.5
			C84.4,224.5,84.5,224.5,84.3,224.3z"/>
		<path id="Path_12011" class="st7" d="M84.9,164.9l-14.7-6.3c0,0,13.6-11.1,18.5-13.2c5.5-2.4,5.5,1,3.5,6.3
			C90.2,156.3,87.7,160.7,84.9,164.9z"/>
		<path id="Path_12012" class="st4" d="M79.8,151.2c0,0.4-0.4,0.7-0.8,0.7c-0.1,0-0.1,0-0.2,0L79.8,151.2z M85.9,150.4
			c-0.4,0-0.8,0.4-0.8,0.8c0,0.4,0.4,0.8,0.8,0.8c0.4,0,0.8-0.4,0.8-0.8c0-0.2-0.1-0.4-0.2-0.6C86.4,150.5,86.2,150.4,85.9,150.4z
			 M92.1,151.2c0,0.2,0.1,0.3,0.2,0.5c0.2-0.4,0.3-0.8,0.4-1.2C92.4,150.5,92.1,150.8,92.1,151.2z M89.4,145.4
			c-0.4,0-0.8,0.4-0.8,0.8c0,0.4,0.4,0.8,0.8,0.8c0.4,0,0.8-0.4,0.8-0.8c0-0.2-0.1-0.4-0.2-0.6C89.8,145.4,89.6,145.4,89.4,145.4z
			 M79,160.5c-0.4,0-0.8,0.4-0.8,0.8c0,0.4,0.4,0.8,0.8,0.8c0.4,0,0.8-0.4,0.8-0.8c0-0.2-0.1-0.4-0.2-0.6
			C79.4,160.6,79.2,160.5,79,160.5L79,160.5z M85.9,160.5c-0.4,0-0.8,0.4-0.8,0.8c0,0.4,0.4,0.8,0.8,0.8c0.4,0,0.8-0.4,0.8-0.8
			C86.7,160.8,86.4,160.5,85.9,160.5L85.9,160.5z M75.5,155.4c-0.4,0-0.8,0.4-0.8,0.8c0,0.4,0.4,0.8,0.8,0.8c0.4,0,0.8-0.4,0.8-0.8
			C76.3,155.8,75.9,155.4,75.5,155.4L75.5,155.4z M82.5,155.4c-0.4,0-0.8,0.4-0.8,0.8c0,0.4,0.4,0.8,0.8,0.8c0.4,0,0.8-0.4,0.8-0.8
			C83.2,155.8,82.9,155.4,82.5,155.4L82.5,155.4z M89.4,155.4c-0.4,0-0.8,0.4-0.8,0.8c0,0.4,0.4,0.8,0.8,0.8l0,0
			c0.1,0,0.2,0,0.3-0.1l0.5-0.9C90.1,155.7,89.8,155.4,89.4,155.4L89.4,155.4z"/>
		<path id="Path_12013" class="st6" d="M73.4,156.9c0.5,0.1,5.1,2,6.1,2.5c1,0.4,5.1,2.2,6,2.7c0,0,0,0.1,0,0.1
			c-1.1-0.3-5.2-2.1-6.2-2.5C78.4,159.2,73.9,157.2,73.4,156.9C73.3,156.9,73.4,156.9,73.4,156.9z"/>
		<path id="Path_12014" class="st6" d="M83.7,164.4c0.5,0.2,1.2,0.4,1.2,0.4c1-1.5,5.7-9.7,6.8-11.7h0.1c-0.6,1.2-1.2,2.3-1.7,3.4
			l0.3-0.4c0.3-0.5,0.7-0.9,1-1.4c0,0,0.1,0,0.1,0c-0.3,0.5-0.6,1-1,1.5c-0.2,0.3-0.5,0.6-0.8,0.9c-0.3,0.7-0.7,1.3-1,1.9
			c-1.1,2-2.2,4.1-3.4,5.9C84.6,165,84.2,164.7,83.7,164.4C83.6,164.4,83.7,164.4,83.7,164.4z"/>
		<path id="Path_12015" class="st18" d="M128.2,210.2c-0.9,0.9-2.3,1-3.4,0.4c0.2,1.5-0.4,3-1.5,4c-1,0.6-2.9-0.4-2.9-0.4
			c0.1,1.3-0.5,2.5-1.6,3.2c-1,0.4-2.2,0.3-3.1-0.4c0,0-0.8,2.2-2.5,2.6c-3.5,0.7-11.5-10.8-8.5-15.6c1.4-2.2,3.2,0.7,3.2,0.7
			s-1.6-4.8,0.7-6.6c2.3-1.7,4.4,2.2,4.4,2.2s-1.5-4.7,1.1-6.2c2.7-1.6,4.2,2.7,4.2,2.7s-0.1-3.8,2.2-4.5c3.7-1.2,3.4,7.2,5.8,9.3
			l5.4-2.3C131.7,199.5,130,208.5,128.2,210.2z"/>
		<path id="Path_12016" class="st6" d="M115.4,216.9C115.4,216.9,115.4,217,115.4,216.9c-3.8-3.2-6.4-7.5-7.6-12.3
			c0-0.2,0.2-0.3,0.3-0.1C109.9,208.9,112.3,213.1,115.4,216.9z"/>
		<path id="Path_12017" class="st6" d="M120.4,214.3C120.4,214.3,120.4,214.4,120.4,214.3c-4.1-3.6-6.8-8.5-7.5-13.9
			c0-0.2,0.2-0.4,0.2-0.2C113.7,203.8,117.5,210.8,120.4,214.3z"/>
		<path id="Path_12018" class="st6" d="M118.4,196.5c0.9,5.1,3,9.9,6.2,14c0,0.1,0,0.1-0.1,0.1c-2.1-2-3.8-4.3-4.9-7
			c-1.1-2.2-1.6-4.6-1.5-7.1C118.2,196.4,118.4,196.4,118.4,196.5z"/>
		<path id="Path_12019" class="st6" d="M107.8,204.4c-0.3-1-0.5-2-0.6-3c-0.1-1.1,0.2-2.1,0.8-3c0.3-0.4,0.8-0.7,1.4-0.9
			c0.6-0.1,1.1,0,1.6,0.3c0.9,0.6,1.6,1.4,2.1,2.4l-0.5,0.2c-0.3-1-0.4-2.1-0.3-3.1c0-1.1,0.5-2.1,1.2-2.9c0.4-0.4,0.9-0.7,1.4-0.8
			c0.6-0.1,1.2,0,1.6,0.3c0.8,0.7,1.5,1.5,1.8,2.6l-0.3,0.1c0-0.5,0.1-1,0.3-1.5c0.1-0.5,0.3-1,0.6-1.4c0.3-0.4,0.6-0.8,1.1-1.1
			c0.4-0.2,1-0.3,1.5-0.2c-0.5,0-1,0.1-1.4,0.3c-0.4,0.3-0.7,0.6-0.9,1.1c-0.4,0.9-0.7,1.8-0.7,2.8l0,0.7l-0.3-0.7
			c-0.3-0.9-0.9-1.7-1.7-2.3c-0.4-0.3-0.8-0.3-1.3-0.2c-0.5,0.1-0.9,0.4-1.2,0.7c-0.6,0.7-1,1.6-1,2.6c-0.1,1,0,2,0.3,2.9l0.5,2
			l-1-1.8c-0.4-0.9-1.1-1.6-1.9-2.2c-0.4-0.3-0.8-0.4-1.3-0.3c-0.5,0.1-0.9,0.4-1.2,0.7c-0.6,0.8-0.9,1.7-0.9,2.7
			C107.4,202.5,107.5,203.5,107.8,204.4L107.8,204.4z"/>
		<path id="Path_12020" class="st18" d="M94.5,147.2c-0.1,0.7,1.6,5.6,5,6.3c1.8,0.3,2.9-4.4,2.9-4.4l0.2-0.4l3.2-5.4l-5.4-6.6
			l-0.8-0.9c0,0-0.8,1.5-1.7,3.4l-0.1,0.3c-0.1,0.1-0.1,0.2-0.2,0.3c-0.1,0.3-0.3,0.6-0.4,0.9s-0.2,0.4-0.3,0.7l-0.3,0.7
			C95.7,143.8,95.1,145.5,94.5,147.2L94.5,147.2z"/>
		<path id="Path_12021" class="st6" d="M97.9,139.2c0.1,3.7,1.8,7.1,4.7,9.4l3.2-5.4l-5.4-6.6l-0.8-0.9
			C99.6,135.8,98.8,137.3,97.9,139.2z"/>
		<path id="Path_12022" class="st18" d="M117.1,137.6c-2.7,10.6-9.4,10.2-11.7,9.6c-2.1-0.5-9.1-2.6-7.5-13.5
			c1.6-10.9,7.4-13,12.2-12C115,122.7,119.9,127,117.1,137.6z"/>
		<path id="Path_12023" class="st6" d="M98.4,133.1c2.5,0.9,3.8-3,3.8-3s2.9,0.7,4.7-3.7c0.5,2.2,1.9,4.1,4,5.1
			c0.7,0.4-1.2-2.6-1.2-2.6s2.2,4,8.6,5c0.5,0.1,1.8-6.6-2.2-10.4c-3.2-3.4-8.4-4.3-12.5-2.1c-2,0.3-3.7,1.6-4.6,3.4
			C97.4,127.9,97.4,132.7,98.4,133.1z"/>
		<path id="Path_12024" class="st18" d="M99.7,134.3c0,0-1.1-4-2.9-3.7c-1.8,0.3-1.7,5.6-0.2,6.8c0.7,0.7,1.9,0.7,2.6-0.1
			c0,0,0,0,0.1-0.1L99.7,134.3z"/>
		<path id="Path_12025" class="st6" d="M96.9,132.1L96.9,132.1c0.9,1,1.4,2.3,1.3,3.6c-0.1-0.6-0.6-0.9-1.2-0.8c-0.1,0-0.1,0-0.2,0
			c0,0,0,0.1,0,0.1c0.5,0,0.9,0.3,1,0.8c0.1,0.4,0.2,0.8,0.2,1.2c0,0.1,0.2,0.1,0.2,0l0,0C98.9,135.4,98.5,132.8,96.9,132.1z"/>
		<path id="Path_12026" class="st6" d="M115.3,136.3c-0.2-0.1-0.4-0.2-0.7-0.4c-0.2-0.2-0.5-0.2-0.6-0.5c-0.1-0.2,0-0.4,0.2-0.5
			c0.3-0.2,0.7-0.1,1,0.1c0.3,0.2,0.6,0.4,0.7,0.7c0.1,0.2,0,0.5-0.2,0.5C115.5,136.4,115.4,136.4,115.3,136.3L115.3,136.3z"/>
		<path id="Path_12027" class="st6" d="M108.9,132.9c0.2,0.1,0.5,0.1,0.7,0.1c0.3,0.1,0.5,0.1,0.8,0c0.2-0.1,0.2-0.3,0.2-0.4
			c-0.2-0.3-0.5-0.5-0.8-0.6c-0.3-0.1-0.7,0-1,0.1c-0.2,0.1-0.2,0.4-0.1,0.6C108.7,132.8,108.8,132.8,108.9,132.9L108.9,132.9z"/>
		<path id="Path_12028" class="st6" d="M109.5,136C109.5,136,109.5,136,109.5,136c-0.3,0.8-0.6,1.6-1.3,1.6v0
			C109,137.8,109.5,136.7,109.5,136z"/>
		<path id="Path_12029" class="st6" d="M109.1,135.1c-1.1-0.4-1.9,1.8-0.9,2.2S110.1,135.5,109.1,135.1z"/>
		<path id="Path_12030" class="st6" d="M108.6,135.1c-0.2,0.1-0.5,0.2-0.8,0.2s-0.4-0.4-0.5-0.7h0c-0.2,0.4-0.1,0.9,0.3,1.2
			c0.4,0.2,0.9,0,1.1-0.5C108.8,135.2,108.7,135,108.6,135.1z"/>
		<path id="Path_12031" class="st6" d="M107.6,141.7c0.1,0.2,0.2,0.5,0.4,0.6c0.3,0.1,0.5,0.1,0.8,0.1v0c-0.3,0.2-0.7,0.2-1,0
			c-0.3-0.2-0.4-0.5-0.3-0.8C107.5,141.7,107.6,141.7,107.6,141.7z"/>
		<path id="Path_12032" class="st6" d="M111.4,140.2c0,0-0.2,1.1-0.4,1.6c0,0.1-0.1,0-0.3,0l0,0c-0.9-0.1-1.7-0.8-2-1.7
			c0,0,0-0.1,0-0.1c0,0,0.1,0,0.1,0c0.5,0.6,1.2,1.1,2,1.3c0.1-0.1,0.3-1.9,0.4-1.9c0.4,0.2,0.7,0.4,1,0.6c0.5-2.3,0.6-4.7,1.2-6.9
			c0,0,0.1-0.1,0.1,0c0,0,0,0,0,0c-0.1,2.5-0.4,5.1-0.9,7.5C112.5,141,111.6,140.3,111.4,140.2z"/>
		<path id="Path_12033" class="st6" d="M115.9,137.8c-0.3-0.3-0.7-0.4-1.2-0.4c-0.2,0-0.4,0-0.7,0.1c-0.2,0.1-0.4,0.2-0.6,0.4
			l-0.3,0.3l0.4,0.1c0.3,0.1,0.6,0.1,0.9,0.2c0.3,0.1,0.5,0.3,0.7,0.5c-0.1-0.3-0.3-0.6-0.6-0.8c-0.3-0.2-0.6-0.3-0.9-0.4l0.1,0.4
			c0.3-0.2,0.6-0.4,0.9-0.4C115.1,137.7,115.5,137.7,115.9,137.8z"/>
		<path id="Path_12034" class="st6" d="M114.3,139c-0.3-0.2-0.5-0.3-0.8-0.6c-0.1-0.1-0.2-0.3-0.2-0.4c0.1-0.1,0.2-0.3,0.3-0.4
			c-0.1,0.1-0.3,0.2-0.4,0.3c0,0.2,0.1,0.4,0.2,0.5C113.7,138.8,114,138.9,114.3,139L114.3,139z"/>
	</g>
	<g id="freepik--speech-bubble--inject-175" transform="translate(137.619 61.749)">
		<path id="Path_12035" class="st4" d="M102.2,130.9c-1,10-10,17.2-19.9,16.2c-3.9-0.4-7.5-2-10.4-4.7l-9.1,1.3l4.5-7.8
			c-3.8-9.3,0.6-19.9,9.9-23.7c9.3-3.8,19.9,0.6,23.7,9.9C102.1,124.8,102.6,127.9,102.2,130.9z"/>
		<path id="Path_12036" class="st6" d="M102.2,130.9c-0.3,3.3-1.6,6.5-3.6,9.2c-1,1.3-2.2,2.5-3.6,3.5c-1.3,1-2.8,1.8-4.4,2.4
			c-1.6,0.6-3.2,1-4.9,1.2c-0.8,0.1-1.7,0.1-2.5,0c-0.8,0-1.7-0.1-2.5-0.3c-3.4-0.6-6.5-2.2-9-4.5l0.2,0.1l-9.1,1.4l-0.7,0.1
			l0.3-0.6l4.5-7.9v0.3c-3.8-9.4,0.6-20.1,10-23.9s20.1,0.6,23.9,10C102.1,124.8,102.6,127.9,102.2,130.9L102.2,130.9z M102.2,130.9
			c1-9.9-6.1-18.7-16-19.8c-4.3-0.4-8.5,0.6-12,3.1c-2.2,1.6-4.1,3.6-5.4,5.9c-1.3,2.4-2.1,5-2.3,7.7c-0.2,2.7,0.3,5.4,1.3,7.9
			l0.1,0.2l-0.1,0.2l-4.6,7.8l-0.3-0.5l9.1-1.3H72l0.1,0.1c2.4,2.3,5.4,3.8,8.7,4.5c0.8,0.1,1.6,0.2,2.5,0.3c0.8,0.1,1.7,0.1,2.5,0
			c1.7-0.1,3.3-0.5,4.8-1.1c1.6-0.6,3-1.4,4.4-2.4c0.7-0.5,1.3-1,1.9-1.6c0.6-0.6,1.1-1.2,1.7-1.9
			C100.6,137.4,101.8,134.2,102.2,130.9z"/>
		<path id="Path_12037" class="st7" d="M85.5,131.7v2.1c0,0.8-0.7,1.5-1.5,1.5c0,0,0,0-0.1,0c-0.9,0-1.6-0.7-1.6-1.6v-3.4
			c0-0.9,0.7-1.5,1.6-1.6c2,0,3.6-1.6,3.6-3.6c0-2-1.6-3.6-3.6-3.6c-1.3,0-2.4,0.7-3.1,1.7c-0.4,0.8-1.4,1-2.1,0.6c0,0,0,0,0,0
			c-0.7-0.4-1-1.4-0.5-2.1c0,0,0,0,0,0c1.8-3.2,5.9-4.3,9.1-2.4c3.2,1.8,4.3,5.9,2.4,9.1C88.8,130.1,87.3,131.2,85.5,131.7
			L85.5,131.7z M85.5,138.6v0.6c0,0.8-0.6,1.5-1.5,1.6c0,0-0.1,0-0.1,0c-0.9,0-1.6-0.7-1.6-1.6v-0.6c0-0.9,0.7-1.6,1.6-1.6
			C84.8,137.1,85.5,137.7,85.5,138.6C85.5,138.6,85.5,138.6,85.5,138.6z"/>
	</g>
</g>
</svg>
