<svg xmlns="http://www.w3.org/2000/svg" xmlns:xlink="http://www.w3.org/1999/xlink" width="28" height="28" viewBox="0 0 28 28"><defs><linearGradient id="a" x1="0.212" x2="0.899" y2="1" gradientUnits="objectBoundingBox"><stop offset="0" stop-color="#2ae7e8"/><stop offset="1" stop-color="#00b4b5"/></linearGradient><linearGradient id="b" x1="0.5" x2="0.5" y2="1" gradientUnits="objectBoundingBox"><stop offset="0" stop-color="#fff" stop-opacity="0.678"/><stop offset="1" stop-color="#fff"/></linearGradient></defs><g transform="translate(-307 -521)"><rect width="28" height="28" rx="10" transform="translate(307 521)" fill="url(#a)"/><path d="M3,14.074H4.242v.311H3.621v.621h.621v.311H3v.621H4.863V13.453H3Zm.621-5.589h.621V6H3v.621h.621ZM3,10.347H4.118L3,11.651v.559H4.863v-.621H3.745l1.118-1.3V9.726H3ZM6.105,6.621V7.863H14.8V6.621Zm0,8.695H14.8V14.074H6.105Zm0-3.726H14.8V10.347H6.105Z" transform="translate(312 524)" fill="url(#b)"/></g></svg>