<svg xmlns="http://www.w3.org/2000/svg" width="20" height="20" viewBox="0 0 20 20"><path d="M8.952,18.24a.954.954,0,0,1,.265-.663.836.836,0,0,1,.637-.278.864.864,0,0,1,.65.278.931.931,0,0,1,.265.663.87.87,0,0,1-.265.636.9.9,0,0,1-1.274,0A.827.827,0,0,1,8.952,18.24Zm2.628,0a.954.954,0,0,1,.265-.663.836.836,0,0,1,.637-.278h4.287l-3.026-3.022a.787.787,0,0,1-.279-.623A.92.92,0,0,1,15.044,13l3.013,3.009V11.759a.911.911,0,0,1,.279-.663A.893.893,0,0,1,19,10.818a.836.836,0,0,1,.637.278.931.931,0,0,1,.265.663V16.04l3.039-3.048a.877.877,0,0,1,.637-.278.906.906,0,0,1,.65.278.958.958,0,0,1,.239.649.849.849,0,0,1-.239.623L21.2,17.286h4.287a.828.828,0,0,1,.624.278.931.931,0,0,1,.265.663.906.906,0,0,1-.889.888H21.2l3.039,3.035a.849.849,0,0,1,.239.623.958.958,0,0,1-.239.649.906.906,0,0,1-.65.278.856.856,0,0,1-.637-.278l-3.039-3.048v4.294a.9.9,0,0,1-.265.649.872.872,0,0,1-.637.265.956.956,0,0,1-.664-.265.862.862,0,0,1-.279-.649V20.4l-3.013,3.009a.929.929,0,0,1-1.579-.649.806.806,0,0,1,.279-.623L16.809,19.1h-4.3a.872.872,0,0,1-.637-.265A.678.678,0,0,1,11.58,18.24Zm.013,6.415a.854.854,0,0,1,.279-.636.789.789,0,0,1,.624-.278.885.885,0,0,1,.65.278.875.875,0,0,1,.279.636.854.854,0,0,1-.279.636.885.885,0,0,1-.65.278.789.789,0,0,1-.624-.278A.834.834,0,0,1,11.593,24.655Zm0-12.869a.854.854,0,0,1,.279-.636.789.789,0,0,1,.624-.278.885.885,0,0,1,.65.278.875.875,0,0,1,.279.636.9.9,0,0,1-.279.649.885.885,0,0,1-.65.278.789.789,0,0,1-.624-.278A.9.9,0,0,1,11.593,11.785Zm6.437,15.52a.826.826,0,0,1,.279-.623.933.933,0,0,1,.664-.265.872.872,0,0,1,.637.265.862.862,0,0,1,.265.623.9.9,0,0,1-.265.649.872.872,0,0,1-.637.265.956.956,0,0,1-.664-.265A.842.842,0,0,1,18.03,27.305Zm0-18.171a.862.862,0,0,1,.279-.649.933.933,0,0,1,.664-.265.872.872,0,0,1,.637.265.9.9,0,0,1,.265.649.862.862,0,0,1-.265.623.872.872,0,0,1-.637.265.956.956,0,0,1-.664-.265A.826.826,0,0,1,18.03,9.135Zm6.463,15.52a.854.854,0,0,1,.279-.636.789.789,0,0,1,.624-.278.885.885,0,0,1,.65.278.875.875,0,0,1,.279.636.854.854,0,0,1-.279.636.885.885,0,0,1-.65.278.789.789,0,0,1-.624-.278A.834.834,0,0,1,24.493,24.655Zm0-12.869a.854.854,0,0,1,.279-.636.789.789,0,0,1,.624-.278.885.885,0,0,1,.65.278.875.875,0,0,1,.279.636.9.9,0,0,1-.279.649.885.885,0,0,1-.65.278.789.789,0,0,1-.624-.278A.9.9,0,0,1,24.493,11.785Zm2.654,6.455a.954.954,0,0,1,.265-.663.864.864,0,0,1,.65-.278.828.828,0,0,1,.624.278.931.931,0,0,1,.265.663.906.906,0,0,1-.889.888.9.9,0,0,1-.65-.265A.862.862,0,0,1,27.147,18.24Z" transform="translate(-8.952 -8.22)" fill="#ed702d"/></svg>