<svg xmlns="http://www.w3.org/2000/svg" xmlns:xlink="http://www.w3.org/1999/xlink" width="28" height="28" viewBox="0 0 28 28"><defs><linearGradient id="a" x1="0.212" x2="0.899" y2="1" gradientUnits="objectBoundingBox"><stop offset="0" stop-color="#a8dcfe"/><stop offset="1" stop-color="#39a1fa"/></linearGradient><linearGradient id="b" x1="0.5" x2="0.5" y2="1" gradientUnits="objectBoundingBox"><stop offset="0" stop-color="#fff" stop-opacity="0.678"/><stop offset="1" stop-color="#fff"/></linearGradient></defs><g transform="translate(-307 -466)"><rect width="28" height="28" rx="10" transform="translate(307 466)" fill="url(#a)"/><g transform="translate(314.999 474)"><path d="M396.426,268.344H397.8v3.3h-1.379Zm0,0" transform="translate(-387.315 -262.178)" fill="url(#b)"/><path d="M282.809,268.344h1.379v3.3h-1.379Zm0,0" transform="translate(-276.309 -262.178)" fill="url(#b)"/><path d="M169.191,268.344h1.379v3.3h-1.379Zm0,0" transform="translate(-165.302 -262.178)" fill="url(#b)"/><path d="M55.578,268.344h1.379v3.3H55.578Zm0,0" transform="translate(-54.3 -262.178)" fill="url(#b)"/><path d="M45.708,208.689v-.345H35.578v.345a.345.345,0,0,0,.345.345h9.441A.345.345,0,0,0,45.708,208.689Zm0,0" transform="translate(-34.759 -203.557)" fill="url(#b)"/><path d="M11.435,442H.36a.345.345,0,0,0-.345.345v.919a.345.345,0,0,0,.345.345H11.435a.345.345,0,0,0,.345-.345v-.919A.345.345,0,0,0,11.435,442Zm0,0" transform="translate(-0.013 -431.843)" fill="url(#b)"/><path d="M.346,4.1H11.422A.345.345,0,0,0,11.6,3.46L6.065.051a.345.345,0,0,0-.361,0L.165,3.46A.345.345,0,0,0,.346,4.1Zm5.3-2.071h.469a.345.345,0,1,1,0,.689H5.65a.345.345,0,0,1,0-.689Zm0,0" transform="translate(0)" fill="url(#b)"/></g></g></svg>