<svg xmlns="http://www.w3.org/2000/svg" width="13.831" height="15.806" viewBox="0 0 13.831 15.806"><path d="M13.46,4.939H.37A.37.37,0,0,1,0,4.569V3.458A1.482,1.482,0,0,1,1.482,1.976H2.964V.37A.37.37,0,0,1,3.334,0H4.569a.37.37,0,0,1,.37.37V1.976H8.891V.37A.37.37,0,0,1,9.262,0H10.5a.37.37,0,0,1,.37.37V1.976h1.482a1.482,1.482,0,0,1,1.482,1.482V4.569A.37.37,0,0,1,13.46,4.939ZM.37,5.927H13.46a.37.37,0,0,1,.37.37v8.027a1.482,1.482,0,0,1-1.482,1.482H1.482A1.482,1.482,0,0,1,0,14.325V6.3A.37.37,0,0,1,.37,5.927ZM10.66,8.889l-.87-.877a.37.37,0,0,0-.524,0L5.993,11.258,4.573,9.827a.37.37,0,0,0-.524,0l-.877.87a.37.37,0,0,0,0,.524l2.55,2.571a.37.37,0,0,0,.524,0l4.413-4.378a.37.37,0,0,0,0-.524Z" fill="#adadad"/></svg>