<svg xmlns="http://www.w3.org/2000/svg" width="13.727" height="15.688" viewBox="0 0 13.727 15.688"><path d="M0,14.217a1.471,1.471,0,0,0,1.471,1.471H12.256a1.471,1.471,0,0,0,1.471-1.471V5.883H0ZM1.961,8.334a.492.492,0,0,1,.49-.49H5.393a.492.492,0,0,1,.49.49v2.942a.492.492,0,0,1-.49.49H2.451a.492.492,0,0,1-.49-.49Zm10.3-6.373H10.786V.49A.492.492,0,0,0,10.3,0H9.315a.492.492,0,0,0-.49.49V1.961H4.9V.49A.492.492,0,0,0,4.412,0H3.432a.492.492,0,0,0-.49.49V1.961H1.471A1.471,1.471,0,0,0,0,3.432V4.9H13.727V3.432A1.471,1.471,0,0,0,12.256,1.961Z" fill="#adadad"/></svg>