<svg xmlns="http://www.w3.org/2000/svg" width="49.209" height="49.21" viewBox="0 0 49.209 49.21"><circle cx="24.605" cy="24.605" r="24.605" transform="translate(0 0)" fill="#e24c4b"/><path d="M93.6,69A24.677,24.677,0,0,1,69,93.606a24.212,24.212,0,0,1-19.223-9.227,24.276,24.276,0,0,0,15.378,5.382,24.677,24.677,0,0,0,24.6-24.6,24.276,24.276,0,0,0-5.382-15.378A24.211,24.211,0,0,1,93.6,69Z" transform="translate(-44.395 -44.397)" fill="#d1403f"/><path d="M140.478,140.478a2.414,2.414,0,0,1-3.383,0l-7.843-7.843-7.843,7.843a2.392,2.392,0,0,1-3.383-3.383l7.843-7.843-7.843-7.843a2.392,2.392,0,0,1,3.383-3.383l7.843,7.843,7.843-7.843a2.392,2.392,0,0,1,3.383,3.383l-7.843,7.843,7.843,7.843A2.414,2.414,0,0,1,140.478,140.478Z" transform="translate(-104.647 -104.647)" fill="#fff"/></svg>