<svg xmlns="http://www.w3.org/2000/svg" width="20" height="20" viewBox="0 0 20 20"><circle cx="10" cy="10" r="10" transform="translate(0 0)" fill="#e24c4b"/><path d="M67.194,57.418A9.807,9.807,0,0,1,57.416,67.2a9.622,9.622,0,0,1-7.639-3.667,9.647,9.647,0,0,0,6.111,2.139,9.807,9.807,0,0,0,9.778-9.778,9.647,9.647,0,0,0-2.139-6.111A9.622,9.622,0,0,1,67.194,57.418Z" transform="translate(-47.194 -47.196)" fill="#d1403f"/><path d="M127.951,129.2a1.026,1.026,0,0,1-1.552,0l-3.6-4.02-3.6,4.02a1.026,1.026,0,0,1-1.552,0,1.343,1.343,0,0,1,0-1.734l3.6-4.02-3.6-4.02a1.343,1.343,0,0,1,0-1.734,1.026,1.026,0,0,1,1.552,0l3.6,4.02,3.6-4.02a1.026,1.026,0,0,1,1.552,0,1.343,1.343,0,0,1,0,1.734l-3.6,4.02,3.6,4.02A1.343,1.343,0,0,1,127.951,129.2Z" transform="translate(-112.801 -113.444)" fill="#fff"/></svg>