<svg xmlns="http://www.w3.org/2000/svg" width="20.789" height="20.789" viewBox="0 0 20.789 20.789"><g transform="translate(-0.086 -0.086)"><path d="M15.33,17.381a8.221,8.221,0,0,1-4.849,1.682c-5.715,0-8.981-6.531-8.981-6.531A15.063,15.063,0,0,1,5.631,7.682M8.766,6.2A7.446,7.446,0,0,1,10.481,6c5.715,0,8.981,6.531,8.981,6.531a15.1,15.1,0,0,1-1.763,2.6m-5.486-.874A2.449,2.449,0,1,1,8.75,10.8" transform="translate(0 -2.051)" fill="none" stroke="#c9d0d6" stroke-linecap="round" stroke-linejoin="round" stroke-width="2"/><path d="M1.5,1.5,19.461,19.461" transform="translate(0 0)" fill="none" stroke="#c9d0d6" stroke-linecap="round" stroke-linejoin="round" stroke-width="2"/></g></svg>