<svg xmlns="http://www.w3.org/2000/svg" width="20" height="20" viewBox="0 0 20 20"><rect width="20" height="20" fill="none"/><path d="M13.664,3.666a1.666,1.666,0,1,1,1.666,1.666A1.661,1.661,0,0,1,13.664,3.666ZM17,17.83V13.664h.925a.839.839,0,0,0,.792-1.1l-1.75-5.257a1.674,1.674,0,0,0-1.583-1.141h-.1A1.666,1.666,0,0,0,13.7,7.307l-.717,2.15A2.9,2.9,0,0,1,14.5,12v6.665h1.666A.836.836,0,0,0,17,17.83ZM10.748,9.915A1.25,1.25,0,1,0,9.5,8.665,1.248,1.248,0,0,0,10.748,9.915ZM4.916,5.333A1.666,1.666,0,1,0,3.25,3.666,1.661,1.661,0,0,0,4.916,5.333Zm1.666,12.5v-5H7A.836.836,0,0,0,7.832,12V7.832A1.671,1.671,0,0,0,6.166,6.166h-2.5A1.671,1.671,0,0,0,2,7.832V12a.836.836,0,0,0,.833.833H3.25v5a.836.836,0,0,0,.833.833H5.749A.836.836,0,0,0,6.582,17.83ZM8.665,12v2.5a.836.836,0,0,0,.833.833h0v2.5a.836.836,0,0,0,.833.833h.833A.836.836,0,0,0,12,17.83v-2.5h0a.836.836,0,0,0,.833-.833V12a1.259,1.259,0,0,0-1.25-1.25H9.915A1.259,1.259,0,0,0,8.665,12" transform="translate(-0.334 -0.334)" fill="#adadad"/></svg>