<svg xmlns="http://www.w3.org/2000/svg" width="20" height="20" viewBox="0 0 20 20"><g transform="translate(-4.5 -3.375)"><path d="M17.925,24.309a.749.749,0,0,0-1.477-.1h0l-.731,3.68a1.531,1.531,0,0,0-.037.328,1.5,1.5,0,0,0,3,0,1.564,1.564,0,0,0-.052-.394Z" transform="translate(-2.733 -6.25)" fill="#adadad"/><path d="M21.509,24.961Z" transform="translate(-4.41 -6.826)" fill="#adadad"/><path d="M25.357,25.987a1.7,1.7,0,0,0-.239-.183l-2.794-2.039a.578.578,0,0,0-.773.042.587.587,0,0,0-.08.722l2.109,2.9a1.543,1.543,0,0,0,.159.2,1.164,1.164,0,0,0,1.622,0A1.176,1.176,0,0,0,25.357,25.987Z" transform="translate(-3.628 -6.254)" fill="#adadad"/><path d="M26.191,23.555Z" transform="translate(-5.23 -6.382)" fill="#adadad"/><path d="M29.027,22.5H26.238a.362.362,0,0,0-.38.291.39.39,0,0,0,.22.413h0l2.7.834a.72.72,0,0,0,.83-.694C29.618,22.791,29.393,22.5,29.027,22.5Z" transform="translate(-5.118 -6.02)" fill="#adadad"/><path d="M9.788,23.555Z" transform="translate(-1.763 -6.382)" fill="#adadad"/><path d="M8.025,23.2h0a.393.393,0,0,0,.22-.413.353.353,0,0,0-.38-.291H5.077c-.356,0-.577.389-.577.825a.722.722,0,0,0,.816.712l2.7-.834Z" transform="translate(0 -6.02)" fill="#adadad"/><path d="M11.527,23.756,8.733,25.791a1.293,1.293,0,0,0-.239.183A1.147,1.147,0,0,0,10.116,27.6a1.274,1.274,0,0,0,.159-.2l2.109-2.887a.574.574,0,0,0-.08-.717A.582.582,0,0,0,11.527,23.756Z" transform="translate(-1.219 -6.25)" fill="#adadad"/><g transform="translate(9.499 3.375)"><path d="M20.317,7.627c0-2.7-3.394-4.252-4.5-4.252.563,3.787-4.767,5.3-5.25,8.5a3.835,3.835,0,0,0,2.25,4.252c.764-2.653,3.394-3.544,5.142-4.678C19.867,10.209,20.317,9.042,20.317,7.627Z" transform="translate(-10.51 -3.375)" fill="#adadad"/><path d="M22.261,16.767A6.434,6.434,0,0,0,22.12,13.8a6.187,6.187,0,0,1-2.212,2.156c-.4.263-.98.506-1.4.745a8.083,8.083,0,0,0-2.17,1.613,2.974,2.974,0,0,0,2.17,1.3A3.605,3.605,0,0,0,22.261,16.767Z" transform="translate(-12.454 -6.848)" fill="#adadad"/><path d="M11.115,9.886a14.166,14.166,0,0,1,1.791-1.7,6.069,6.069,0,0,0,1.289-1.467A2.18,2.18,0,0,0,12.1,5.5c.108,1.341-1.406,2.063-1.5,3.038A1.606,1.606,0,0,0,11.115,9.886Z" transform="translate(-10.537 -4.078)" fill="#adadad"/></g></g></svg>