<svg xmlns="http://www.w3.org/2000/svg" width="17" height="17" viewBox="0 0 17 17"><path d="M10.625,17a.716.716,0,0,1-.709-.718V10.535a.716.716,0,0,1,.709-.718h5.667a.715.715,0,0,1,.708.718v5.747a.715.715,0,0,1-.708.718Zm.708-1.436h4.25v-4.31h-4.25ZM.709,17A.715.715,0,0,1,0,16.282V10.535a.715.715,0,0,1,.709-.718H6.375a.715.715,0,0,1,.708.718v5.747A.715.715,0,0,1,6.375,17Zm.708-1.436h4.25v-4.31H1.417Zm9.208-8.381a.716.716,0,0,1-.709-.718V.718A.716.716,0,0,1,10.625,0h5.667A.715.715,0,0,1,17,.718V6.465a.715.715,0,0,1-.708.718Zm.708-1.436h4.25V1.436h-4.25ZM.709,7.183A.715.715,0,0,1,0,6.465V.718A.715.715,0,0,1,.709,0H6.375a.715.715,0,0,1,.708.718V6.465a.715.715,0,0,1-.708.718Zm.708-1.436h4.25V1.436H1.417Z" fill="#263238"/></svg>