<svg xmlns="http://www.w3.org/2000/svg" width="23" height="23" viewBox="0 0 23 23"><g transform="translate(-238.89 -1045.612)"><g transform="translate(240.39 1047.112)"><path d="M4.5,10l10-7,10,7V21a2.12,2.12,0,0,1-2.222,2H6.722A2.12,2.12,0,0,1,4.5,21Z" transform="translate(-4.5 -3)" fill="#adadad" stroke="#adadad" stroke-linecap="round" stroke-linejoin="round" stroke-width="3"/></g><path d="M15.962,9.135l-.409-.878L14.827,6.7a4.1,4.1,0,0,0-3.784-2.2H6.422A4.1,4.1,0,0,0,2.638,6.7L1.913,8.257,1.5,9.135A2.034,2.034,0,0,0,0,11v1.5a1.835,1.835,0,0,0,.582,1.31V15.5a1.092,1.092,0,0,0,1.164,1H2.911a1.092,1.092,0,0,0,1.164-1v-1H13.39v1a1.092,1.092,0,0,0,1.164,1h1.164a1.092,1.092,0,0,0,1.164-1V13.81a1.834,1.834,0,0,0,.582-1.31V11A2.034,2.034,0,0,0,15.962,9.135ZM4.8,7.443A1.766,1.766,0,0,1,6.422,6.5h4.621a1.766,1.766,0,0,1,1.622.943L13.39,9H4.075L4.8,7.443Zm-1.89,5.051a1.009,1.009,0,1,1,0-1.994c.7,0,1.747.9,1.747,1.5S3.61,12.494,2.911,12.494Zm11.644,0c-.7,0-1.747.1-1.747-.5s1.048-1.5,1.747-1.5a1.009,1.009,0,1,1,0,1.994Z" transform="translate(241.575 1049.707)" fill="#fff"/></g></svg>