<svg xmlns="http://www.w3.org/2000/svg" width="13.624" height="11.065" viewBox="0 0 13.624 11.065"><path d="M12.223,6.138c.009.121.009.242.009.363a7.89,7.89,0,0,1-7.944,7.944A7.89,7.89,0,0,1,0,13.192a5.776,5.776,0,0,0,.674.035,5.592,5.592,0,0,0,3.466-1.193A2.8,2.8,0,0,1,1.53,10.1a3.521,3.521,0,0,0,.527.043,2.953,2.953,0,0,0,.735-.1A2.793,2.793,0,0,1,.553,7.305V7.271a2.812,2.812,0,0,0,1.262.354A2.8,2.8,0,0,1,.951,3.891,7.937,7.937,0,0,0,6.708,6.813a3.152,3.152,0,0,1-.069-.64,2.795,2.795,0,0,1,4.832-1.91,5.5,5.5,0,0,0,1.772-.674,2.785,2.785,0,0,1-1.228,1.539,5.6,5.6,0,0,0,1.608-.432,6,6,0,0,1-1.4,1.444Z" transform="translate(0 -3.381)" fill="#16b4f2"/></svg>