<svg xmlns="http://www.w3.org/2000/svg" width="14.607" height="14.607" viewBox="0 0 14.607 14.607"><path d="M9.686,2.25A7.143,7.143,0,0,0,2.515,9.366,7.042,7.042,0,0,0,3.544,13.04L2.25,16.857,6.22,15.6a7.183,7.183,0,0,0,10.637-6.23A7.143,7.143,0,0,0,9.686,2.25Zm3.566,9.818a1.852,1.852,0,0,1-1.268.817c-.336.018-.346.261-2.179-.536A7.482,7.482,0,0,1,6.781,9.491,3.517,3.517,0,0,1,6.1,7.585a2.032,2.032,0,0,1,.7-1.491.7.7,0,0,1,.5-.209c.144,0,.238,0,.345,0s.267-.022.406.347.471,1.277.513,1.369a.332.332,0,0,1,0,.319,1.245,1.245,0,0,1-.194.3c-.1.1-.2.23-.287.308s-.195.182-.095.367a5.487,5.487,0,0,0,.971,1.3,5,5,0,0,0,1.438.956c.18.1.287.087.4-.03s.477-.513.606-.69.25-.143.415-.076,1.048.54,1.228.637.3.148.343.225A1.506,1.506,0,0,1,13.252,12.068Z" transform="translate(-2.25 -2.25)" fill="#fff"/></svg>