<svg xmlns="http://www.w3.org/2000/svg" xmlns:xlink="http://www.w3.org/1999/xlink" width="12.43" height="12.427" viewBox="0 0 12.43 12.427"><defs><linearGradient id="a" x1="0.159" y1="-0.2" x2="0.722" y2="0.911" gradientUnits="objectBoundingBox"><stop offset="0" stop-color="#f299ce"/><stop offset="0.642" stop-color="#f32828"/><stop offset="1" stop-color="#f3a200"/></linearGradient></defs><path d="M6.211,5.265A3.186,3.186,0,1,0,9.4,8.451,3.181,3.181,0,0,0,6.211,5.265Zm0,5.258A2.071,2.071,0,1,1,8.283,8.451a2.075,2.075,0,0,1-2.071,2.071Zm4.06-5.388a.743.743,0,1,1-.743-.743A.741.741,0,0,1,10.271,5.135Zm2.11.754a3.678,3.678,0,0,0-1-2.6,3.7,3.7,0,0,0-2.6-1c-1.026-.058-4.1-.058-5.127,0a3.7,3.7,0,0,0-2.6,1,3.69,3.69,0,0,0-1,2.6c-.058,1.026-.058,4.1,0,5.127a3.678,3.678,0,0,0,1,2.6,3.707,3.707,0,0,0,2.6,1c1.026.058,4.1.058,5.127,0a3.678,3.678,0,0,0,2.6-1,3.7,3.7,0,0,0,1-2.6c.058-1.026.058-4.1,0-5.125Zm-1.326,6.226A2.1,2.1,0,0,1,9.874,13.3a13.7,13.7,0,0,1-3.663.25,13.8,13.8,0,0,1-3.663-.25,2.1,2.1,0,0,1-1.181-1.181,13.7,13.7,0,0,1-.25-3.663,13.8,13.8,0,0,1,.25-3.663A2.1,2.1,0,0,1,2.548,3.607a13.7,13.7,0,0,1,3.663-.25,13.8,13.8,0,0,1,3.663.25,2.1,2.1,0,0,1,1.181,1.181,13.7,13.7,0,0,1,.25,3.663A13.688,13.688,0,0,1,11.056,12.115Z" transform="translate(0.005 -2.238)" fill="url(#a)"/></svg>