<svg xmlns="http://www.w3.org/2000/svg" width="19.842" height="15.873" viewBox="0 0 19.842 15.873"><path d="M19.594,10.913H18.105a.249.249,0,0,0-.248.248v4.464a.249.249,0,0,0,.248.248h1.488a.249.249,0,0,0,.248-.248V11.161A.249.249,0,0,0,19.594,10.913ZM17.154,2.7a.629.629,0,0,1-.288-.521V.248A.249.249,0,0,0,16.617,0H15.129a.249.249,0,0,0-.248.248V2.179A2.04,2.04,0,0,0,15.768,3.9a4.566,4.566,0,0,1,2.09,3.844v.939a.249.249,0,0,0,.248.248h1.488a.249.249,0,0,0,.248-.248V7.741A6.054,6.054,0,0,0,17.154,2.7Zm-3.761,8.213H1.488A1.488,1.488,0,0,0,0,12.4v1.984a1.488,1.488,0,0,0,1.488,1.488h11.9a.5.5,0,0,0,.5-.5V11.409A.5.5,0,0,0,13.393,10.913ZM12.4,14.385H6.945V12.4H12.4Zm2.719-10a2.714,2.714,0,0,1-1.231-2.21V.248A.249.249,0,0,0,13.641,0H12.153A.249.249,0,0,0,11.9.248V2.307a4.092,4.092,0,0,0,1.869,3.308,2.592,2.592,0,0,1,1.107,2.127v.939a.249.249,0,0,0,.248.248h1.488a.249.249,0,0,0,.248-.248V7.741A4.079,4.079,0,0,0,15.12,4.39Zm1.5,6.523H15.129a.249.249,0,0,0-.248.248v4.464a.249.249,0,0,0,.248.248h1.488a.249.249,0,0,0,.248-.248V11.161A.249.249,0,0,0,16.617,10.913Z" fill="#adadad"/></svg>