<svg xmlns="http://www.w3.org/2000/svg" width="104" height="98" viewBox="0 0 104 98"><g transform="translate(-81.312 -33.5)"><rect width="104" height="98" rx="8" transform="translate(81.312 33.5)" fill="#e6e6e6"/><g transform="translate(103.3 68.353)"><path d="M105.034,128.76h56.376a1.711,1.711,0,0,0,1.712-1.712v-17.23a.733.733,0,0,0-.225-.518L145.779,92.812a.741.741,0,0,0-1.036.023l-20.451,20.654a.721.721,0,0,1-1.036,0l-5.879-5.856a.721.721,0,0,0-1.036,0l-12.816,12.546a.733.733,0,0,0-.225.518v6.329A1.75,1.75,0,0,0,105.034,128.76Z" transform="translate(-103.3 -92.612)" fill="#babdc1"/></g><g transform="translate(103.3 61.3)"><circle cx="7.861" cy="7.861" r="7.861" transform="translate(0 0)" fill="#babdc1"/></g></g></svg>