<svg xmlns="http://www.w3.org/2000/svg" width="335" height="137" viewBox="0 0 335 137"><g transform="translate(144.638 44.118)"><path d="M8,0H327a8,8,0,0,1,8,8V137a0,0,0,0,1,0,0H0a0,0,0,0,1,0,0V8A8,8,0,0,1,8,0Z" transform="translate(-144.638 -44.118)" fill="#e6e6e6"/><path d="M41.883,11.6,34.2,11.223l-.447-5.01a1.923,1.923,0,0,0-2.133-1.7L4.065,6.772A1.9,1.9,0,0,0,2.259,8.792L4.233,30.751a1.928,1.928,0,0,0,2.133,1.7l1.4-.112-.223,4.265A2.115,2.115,0,0,0,9.625,38.8l30.74,1.462a2.136,2.136,0,0,0,2.309-1.974l1.294-24.52A2.105,2.105,0,0,0,41.883,11.6Zm-33.05.494L8.172,24.642l-1.63,2.3-1.5-16.576v-.093A1.009,1.009,0,0,1,5.937,9.4L30.243,7.4a.9.9,0,0,1,.978.736c0,.019.028.019.028.037s.028.019.028.037l.251,2.868-20.394-.978A2.148,2.148,0,0,0,8.833,12.089Zm31.1,22.061-7.9-9.266-3.483,3.194-6.444-7.524L10.686,32.725l.968-18.541v-.037a1.065,1.065,0,0,1,1.108-.838l27.118,1.3a.989.989,0,0,1,.969.95c0,.019.028.028.028.047Z" fill="#a5a7af"/><path d="M27.73,19.46a2.98,2.98,0,1,0-2.98-2.98A2.989,2.989,0,0,0,27.73,19.46Z" transform="translate(7.299 2.919)" fill="#a5a7af"/></g></svg>