<svg xmlns="http://www.w3.org/2000/svg" width="20" height="22.779" viewBox="0 0 20 22.779"><g transform="translate(0 2.779)"><rect width="20" height="20" fill="none"/><g transform="translate(0 -4.779)"><g transform="translate(0 2)"><path d="M21,22.443c2.213,0,4-1.382,4-3.095s-1.787-3.095-4-3.095a4.082,4.082,0,0,0-3.76,2.063H10.52l2.653-3.157a10.9,10.9,0,0,0,2.32,0l1.36,1.62a5.308,5.308,0,0,1,2.133-1.248l-.8-.959c3.227-1.135,5.48-3.642,5.48-6.571H5c0,2.93,2.253,5.437,5.493,6.571L5.227,20.844a.9.9,0,0,0,.387,1.424h0a1.584,1.584,0,0,0,1.84-.3l1.333-1.6H17.24A4.07,4.07,0,0,0,21,22.443Zm0-4.126a1.216,1.216,0,0,1,1.333,1.032A1.216,1.216,0,0,1,21,20.379a1.216,1.216,0,0,1-1.333-1.032A1.216,1.216,0,0,1,21,18.316Z" transform="translate(-5 -2.443)" fill="#adadad"/><path d="M9.329,6.714h.943a2.743,2.743,0,0,0-.839-2.791C9.037,3.452,8.792,3.2,9,2H8.066a2.964,2.964,0,0,0,.839,2.791A1.7,1.7,0,0,1,9.329,6.714Z" transform="translate(-4.719 -2)" fill="#adadad"/><path d="M11.809,6.714h.943a2.743,2.743,0,0,0-.839-2.791c-.4-.471-.641-.735-.434-1.923h-.933a2.964,2.964,0,0,0,.839,2.791C11.6,5.017,12.139,5.423,11.809,6.714Z" transform="translate(-2.832 -2)" fill="#adadad"/><path d="M14.329,6.714h.943a2.743,2.743,0,0,0-.839-2.791C14.037,3.452,13.792,3.2,14,2h-.933a2.964,2.964,0,0,0,.839,2.791A1.7,1.7,0,0,1,14.329,6.714Z" transform="translate(-0.914 -2)" fill="#adadad"/></g></g></g></svg>