<svg xmlns="http://www.w3.org/2000/svg" width="19.86" height="19.86" viewBox="0 0 19.86 19.86"><path d="M0,0H19.86V19.86H0Z" fill="none"/><circle cx="2" cy="2" r="2" transform="translate(2 6)" fill="#adadad"/><circle cx="2.069" cy="2.069" r="2.069" transform="translate(5.379 2.482)" fill="#adadad"/><circle cx="2.069" cy="2.069" r="2.069" transform="translate(10.344 2.482)" fill="#adadad"/><circle cx="2" cy="2" r="2" transform="translate(14 6)" fill="#adadad"/><path d="M15.038,14.108c-.72-.844-1.324-1.564-2.052-2.408a3.511,3.511,0,0,0-1.448-1.092,1.675,1.675,0,0,0-.273-.074,4.165,4.165,0,0,0-.645-.033,3.471,3.471,0,0,0-.654.041,1.675,1.675,0,0,0-.273.074,3.565,3.565,0,0,0-1.448,1.092c-.72.844-1.324,1.564-2.052,2.408C5.108,15.2,3.775,16.4,4.024,18.08A2.6,2.6,0,0,0,5.952,20c.6.124,2.532-.364,4.584-.364h.149c2.052,0,3.98.48,4.584.364A2.61,2.61,0,0,0,17.2,18.08c.257-1.688-1.076-2.888-2.16-3.972Z" transform="translate(-0.689 -1.811)" fill="#adadad"/></svg>