<svg xmlns="http://www.w3.org/2000/svg" width="20" height="20" viewBox="0 0 20 20"><path d="M3.7,14.11a2.332,2.332,0,0,0,0-4.661,2.332,2.332,0,0,0,0,4.661Zm12.709,4.007a.23.23,0,0,1,.322.051l.42.6a.251.251,0,0,1-.05.333l-3.078,2.3a.233.233,0,0,1-.323-.051l-.418-.6a.25.25,0,0,1,.05-.332Zm-3.48-2.964-1.221-2.2-.641.481,1.221,2.213Zm-2.848-5.142L5.337,1.44l-.908.006L9.438,10.5Zm4.47,4.535a2.758,2.758,0,0,1,1.233-.5h4.348c.858,0,1.3.863,1.3,1.741a1.151,1.151,0,0,1-1.3,1.3H16.223l-4.711,3.7a1.8,1.8,0,0,1-2.659-.121l-3.688-3.8a2.261,2.261,0,0,1,.257-2.855l5.1-3.738a1.184,1.184,0,0,1,1.689.149,1.258,1.258,0,0,1-.15,1.737L8.8,14.626l2.347,2.384Z" transform="translate(-1.44 -1.44)" fill="#adadad"/></svg>