<svg xmlns="http://www.w3.org/2000/svg" width="20" height="20" viewBox="0 0 20 20"><path d="M19.5,19.393H19a2.188,2.188,0,0,1-1.753-.8,1.33,1.33,0,0,0-.993-.629h-.509a1.33,1.33,0,0,0-.993.629,2.321,2.321,0,0,1-3.5,0,1.33,1.33,0,0,0-.993-.629H9.745a1.33,1.33,0,0,0-.993.629,2.186,2.186,0,0,1-1.752.8,2.188,2.188,0,0,1-1.753-.8,1.33,1.33,0,0,0-.993-.629H3.745a1.33,1.33,0,0,0-.993.629,2.186,2.186,0,0,1-1.752.8H.5c-.276,0-.5.32-.5.714v1.429c0,.395.224.714.5.714H1a3.867,3.867,0,0,0,3-1.421,3.877,3.877,0,0,0,6,0,3.877,3.877,0,0,0,6,0,3.866,3.866,0,0,0,3,1.421h.5c.276,0,.5-.32.5-.714V20.107C20,19.712,19.776,19.393,19.5,19.393ZM7,17.964V13.679h6v4.286a1.389,1.389,0,0,0,1.075-.421A2.743,2.743,0,0,1,15,16.737V6.536c0-.788.449-1.429,1-1.429s1,.641,1,1.429V7.25c0,.395.224.714.5.714h1c.276,0,.5-.32.5-.714V6.536c0-2.363-1.346-4.286-3-4.286s-3,1.922-3,4.286v4.286H7V6.536c0-.788.449-1.429,1-1.429s1,.641,1,1.429V7.25c0,.395.224.714.5.714h1c.276,0,.5-.32.5-.714V6.536C11,4.172,9.654,2.25,8,2.25S5,4.172,5,6.536v10.2a2.748,2.748,0,0,1,.925.807A1.387,1.387,0,0,0,7,17.964Z" transform="translate(0 -2.25)" fill="#adadad"/></svg>