<svg xmlns="http://www.w3.org/2000/svg" width="15.668" height="15.668" viewBox="0 0 15.668 15.668"><path d="M10.834,3a7.834,7.834,0,1,0,7.834,7.834A7.837,7.837,0,0,0,10.834,3Zm-.783,14.047a6.258,6.258,0,0,1-5.484-6.212,6.36,6.36,0,0,1,.165-1.4l3.753,3.753v.783a1.571,1.571,0,0,0,1.567,1.567Zm5.406-1.99a1.554,1.554,0,0,0-1.488-1.089h-.783v-2.35a.786.786,0,0,0-.783-.783H7.7V9.267H9.267a.786.786,0,0,0,.783-.783V6.917h1.567A1.571,1.571,0,0,0,13.184,5.35V5.029a6.253,6.253,0,0,1,2.272,10.028Z" transform="translate(-3 -3)" fill="#2d3447"/></svg>