<svg xmlns="http://www.w3.org/2000/svg" xmlns:xlink="http://www.w3.org/1999/xlink" width="28" height="28" viewBox="0 0 28 28"><defs><linearGradient id="a" x1="0.212" x2="0.899" y2="1" gradientUnits="objectBoundingBox"><stop offset="0" stop-color="#c7f9b1"/><stop offset="1" stop-color="#2dcb36"/></linearGradient><linearGradient id="b" x1="0.5" x2="0.5" y2="1" gradientUnits="objectBoundingBox"><stop offset="0" stop-color="#fff" stop-opacity="0.678"/><stop offset="1" stop-color="#fff"/></linearGradient></defs><g transform="translate(-307 -616)"><rect width="28" height="28" rx="10" transform="translate(307 616)" fill="url(#a)"/><path d="M6.87,4.839l-.986-.986a7.185,7.185,0,0,0-2.839,5.41H4.423A5.82,5.82,0,0,1,6.87,4.839Zm8.539,4.424h1.378a7.228,7.228,0,0,0-2.839-5.41l-.979.986A5.855,5.855,0,0,1,15.409,9.263Zm-1.358.345a4.2,4.2,0,0,0-3.1-4.356V4.784a1.034,1.034,0,0,0-2.068,0v.469a4.187,4.187,0,0,0-3.1,4.356v3.446L4.4,14.432v.689H15.429v-.689l-1.378-1.378ZM9.916,17.189a1.207,1.207,0,0,0,.276-.028,1.4,1.4,0,0,0,.992-.813,1.384,1.384,0,0,0,.1-.538H8.531A1.388,1.388,0,0,0,9.916,17.189Z" transform="translate(310.83 619.15)" fill="url(#b)"/></g></svg>