<svg xmlns="http://www.w3.org/2000/svg" xmlns:xlink="http://www.w3.org/1999/xlink" width="28" height="28" viewBox="0 0 28 28"><defs><linearGradient id="a" x1="0.212" x2="0.899" y2="1" gradientUnits="objectBoundingBox"><stop offset="0" stop-color="#ffc850"/><stop offset="1" stop-color="#ffb719"/></linearGradient><linearGradient id="b" x1="0.5" x2="0.5" y2="1" gradientUnits="objectBoundingBox"><stop offset="0" stop-color="#fff" stop-opacity="0.678"/><stop offset="1" stop-color="#fff"/></linearGradient></defs><g transform="translate(-307 -398)"><rect width="28" height="28" rx="10" transform="translate(307 398)" fill="url(#a)"/><path d="M6.873.4,5.387,3.416,2.065,3.9a.728.728,0,0,0-.4,1.242l2.4,2.343L3.5,10.794a.727.727,0,0,0,1.055.766L7.525,10,10.5,11.56a.728.728,0,0,0,1.055-.766l-.569-3.309,2.4-2.343a.728.728,0,0,0-.4-1.242L9.663,3.416,8.178.4A.728.728,0,0,0,6.873.4Z" transform="translate(313.559 406.001)" fill="url(#b)"/></g></svg>