<svg xmlns="http://www.w3.org/2000/svg" xmlns:xlink="http://www.w3.org/1999/xlink" width="137.947" height="29.101" viewBox="0 0 137.947 29.101"><defs><linearGradient id="a" x1="22.998" y1="8.467" x2="22.998" y2="8.05" gradientUnits="objectBoundingBox"><stop offset="0" stop-opacity="0"/><stop offset="1"/></linearGradient></defs><g transform="translate(-207.534 -178.155)"><g transform="translate(226 178.155)"><g transform="translate(115.008 18.975)"><g transform="translate(0 0)"><path d="M611.053,144.867s0,3.627-4.473,3.759V138.548h4.473Z" transform="translate(-606.58 -138.548)" fill="#ffdecc"/><path d="M611.053,144.868s-.016,3.674-4.489,3.806l.016-10.126h4.473Z" transform="translate(-606.58 -138.548)" fill="url(#a)" style="mix-blend-mode:overlay;isolation:isolate"/></g></g><g transform="translate(0 0)"><path d="M744.527,98.557v5.87c-.551-2.885-4.066-3.834-5.583-3.834l0,0H616.935a4.564,4.564,0,0,1-3.5-1.549L607.2,91.577a2.514,2.514,0,0,1,0-3.3l6.236-7.466a4.565,4.565,0,0,1,3.5-1.549H738.783c3.172,0,5.744,2.227,5.744,4.975Z" transform="translate(-625.046 -79.264)" fill="#ed702d"/></g></g><text transform="translate(217.729 193.288)" fill="#fff" font-size="12" font-family="Larsseit-Medium, Larsseit" font-weight="500"><tspan x="0" y="0">Special Discount: 80% </tspan></text></g></svg>