<svg xmlns="http://www.w3.org/2000/svg" width="20.748" height="20.748" viewBox="0 0 20.748 20.748"><g transform="translate(-0.5 -0.5)"><path d="M18.613,16.057A2.557,2.557,0,1,1,16.057,13.5,2.557,2.557,0,0,1,18.613,16.057Z" transform="translate(-5.182 -5.182)" fill="none" stroke="#8f9bb3" stroke-linecap="round" stroke-linejoin="round" stroke-width="2"/><path d="M17.18,13.431a1.406,1.406,0,0,0,.281,1.551l.051.051A1.705,1.705,0,1,1,15.1,17.445l-.051-.051a1.418,1.418,0,0,0-2.4,1.006v.145a1.7,1.7,0,1,1-3.409,0v-.077a1.406,1.406,0,0,0-.92-1.287,1.406,1.406,0,0,0-1.551.281l-.051.051A1.705,1.705,0,1,1,4.3,15.1l.051-.051a1.418,1.418,0,0,0-1.006-2.4H3.2a1.7,1.7,0,1,1,0-3.409h.077a1.406,1.406,0,0,0,1.287-.92,1.406,1.406,0,0,0-.281-1.551l-.051-.051A1.705,1.705,0,1,1,6.647,4.3l.051.051a1.406,1.406,0,0,0,1.551.281h.068A1.406,1.406,0,0,0,9.17,3.349V3.2a1.7,1.7,0,1,1,3.409,0v.077a1.418,1.418,0,0,0,2.4,1.006l.051-.051a1.705,1.705,0,1,1,2.412,2.412l-.051.051a1.406,1.406,0,0,0-.281,1.551v.068A1.406,1.406,0,0,0,18.4,9.17h.145a1.7,1.7,0,0,1,0,3.409h-.077a1.406,1.406,0,0,0-1.287.852Z" fill="none" stroke="#8f9bb3" stroke-linecap="round" stroke-linejoin="round" stroke-width="2"/></g></svg>