<svg xmlns="http://www.w3.org/2000/svg" width="20" height="20" viewBox="0 0 20 20"><path d="M15.221,6.875,9.047,13.931a.857.857,0,0,1-1.326,0l-.442-.505a1.183,1.183,0,0,1,0-1.515l0,0a5.577,5.577,0,0,1-.132-6.267,2.745,2.745,0,0,0-1.613-.532A3.28,3.28,0,0,0,2.5,8.579V22.25H0V8.579C0,5.089,2.484,2.25,5.537,2.25A5.161,5.161,0,0,1,9.282,3.921a3.968,3.968,0,0,1,4.167.939l0,0a.857.857,0,0,1,1.326,0l.442.505A1.183,1.183,0,0,1,15.221,6.875ZM15,10.107a.631.631,0,1,1-.625-.714A.674.674,0,0,1,15,10.107Zm1.25,0a.631.631,0,1,1,.625.714A.674.674,0,0,1,16.25,10.107Zm3.75,0a.631.631,0,1,1-.625-.714A.674.674,0,0,1,20,10.107Zm-6.25,1.429a.631.631,0,1,1-.625-.714A.674.674,0,0,1,13.75,11.536Zm1.875-.714a.721.721,0,1,1-.625.714A.674.674,0,0,1,15.625,10.821Zm3.125.714a.631.631,0,1,1-.625-.714A.674.674,0,0,1,18.75,11.536ZM12.5,12.964a.631.631,0,1,1-.625-.714A.674.674,0,0,1,12.5,12.964Zm1.25,0a.631.631,0,1,1,.625.714A.674.674,0,0,1,13.75,12.964Zm3.75,0a.631.631,0,1,1-.625-.714A.674.674,0,0,1,17.5,12.964Zm-5,1.429a.631.631,0,1,1,.625.714A.674.674,0,0,1,12.5,14.393Zm3.75,0a.631.631,0,1,1-.625-.714A.674.674,0,0,1,16.25,14.393ZM12.5,15.821a.631.631,0,1,1-.625-.714A.674.674,0,0,1,12.5,15.821Zm2.5,0a.631.631,0,1,1-.625-.714A.674.674,0,0,1,15,15.821ZM13.75,17.25a.631.631,0,1,1-.625-.714A.674.674,0,0,1,13.75,17.25ZM12.5,18.679a.631.631,0,1,1-.625-.714A.674.674,0,0,1,12.5,18.679Z" transform="translate(0 -2.25)" fill="#ed702d"/></svg>