<svg xmlns="http://www.w3.org/2000/svg" xmlns:xlink="http://www.w3.org/1999/xlink" width="28" height="28" viewBox="0 0 28 28"><defs><linearGradient id="a" x1="0.212" x2="0.899" y2="1" gradientUnits="objectBoundingBox"><stop offset="0" stop-color="#fecf92"/><stop offset="1" stop-color="#fd8d4b"/></linearGradient><linearGradient id="b" x1="0.5" x2="0.5" y2="1" gradientUnits="objectBoundingBox"><stop offset="0" stop-color="#fff" stop-opacity="0.678"/><stop offset="1" stop-color="#fff"/></linearGradient></defs><g transform="translate(-307 -671)"><rect width="28" height="28" rx="10" transform="translate(307 671)" fill="url(#a)"/><path d="M15.271,6H4.363A1.362,1.362,0,0,0,3.007,7.363L3,15.544a1.367,1.367,0,0,0,1.363,1.363H15.271a1.367,1.367,0,0,0,1.363-1.363V7.363A1.367,1.367,0,0,0,15.271,6Zm0,2.727L9.817,12.135,4.363,8.727V7.363l5.454,3.409,5.454-3.409Z" transform="translate(310.982 674)" fill="url(#b)"/></g></svg>