<svg xmlns="http://www.w3.org/2000/svg" width="14" height="19.285" viewBox="0 0 14 19.285"><path d="M19.5,3H9.5a1.971,1.971,0,0,0-2,1.929V20.357a1.963,1.963,0,0,0,2,1.919l10,.01a1.971,1.971,0,0,0,2-1.929V4.929A1.971,1.971,0,0,0,19.5,3Zm-5,1.929a1.971,1.971,0,0,1,2,1.929,2,2,0,0,1-4,0A1.965,1.965,0,0,1,14.5,4.929Zm0,15.428a4.915,4.915,0,0,1-5-4.821,4.915,4.915,0,0,1,5-4.821,4.915,4.915,0,0,1,5,4.821A4.915,4.915,0,0,1,14.5,20.357Zm0-7.714a2.895,2.895,0,1,0,3,2.893A2.944,2.944,0,0,0,14.5,12.643Z" transform="translate(-7.5 -3)" fill="#adadad"/></svg>