<svg xmlns="http://www.w3.org/2000/svg" width="20" height="20" viewBox="0 0 20 20"><g transform="translate(0 -4.32)"><path d="M31.8,28.86a1.5,1.5,0,1,1-1.5-1.5,1.5,1.5,0,0,1,1.5,1.5Z" transform="translate(-12.174 -6.039)" fill="#adadad"/><path d="M10.919,28.86a1.5,1.5,0,1,1-1.5-1.5,1.5,1.5,0,0,1,1.5,1.5Z" transform="translate(-3.359 -6.039)" fill="#adadad"/><path d="M19.184,18.8H6.437l.272-.58a1.368,1.368,0,0,0,.1-.833l-.266-1.344,11.83-.808a1.056,1.056,0,0,0,.815-1.128V7a.974.974,0,0,0-.816-1.073H4.538l-.16-.806a.892.892,0,0,0-.79-.8H.816A.971.971,0,0,0,0,5.393.971.971,0,0,0,.816,6.465H2.958l2.18,11.019L4.28,19.31A1.367,1.367,0,0,0,4.262,20.4a.811.811,0,0,0,.712.55H19.184A.971.971,0,0,0,20,19.873a.971.971,0,0,0-.816-1.073Z" transform="translate(0 0)" fill="#adadad"/></g></svg>