<svg xmlns="http://www.w3.org/2000/svg" width="10.423" height="13.401" viewBox="0 0 10.423 13.401"><path d="M5.744,14.912A1.493,1.493,0,0,0,7.233,16.4h5.956a1.493,1.493,0,0,0,1.489-1.489V7.467a1.493,1.493,0,0,0-1.489-1.489H7.233A1.493,1.493,0,0,0,5.744,7.467ZM7.978,7.467h4.467a.747.747,0,0,1,.744.744v5.956a.747.747,0,0,1-.744.744H7.978a.747.747,0,0,1-.744-.744V8.211A.747.747,0,0,1,7.978,7.467Zm4.839-3.722-.529-.529A.751.751,0,0,0,11.767,3H8.655a.751.751,0,0,0-.521.216l-.529.529H5.744a.744.744,0,1,0,0,1.489h8.934a.744.744,0,1,0,0-1.489Z" transform="translate(-5 -3)" fill="#ed702d"/></svg>