<svg xmlns="http://www.w3.org/2000/svg" width="246.339" height="180.307" viewBox="0 0 246.339 180.307"><g transform="translate(-105.755 -118.249)"><path d="M63.3,476c3.9,16.661,12.15,31.062,25.191,38.043,27.1,14.507,88.222,7.026,133.839-1.572a104.456,104.456,0,0,0,59.4-33.956Z" transform="translate(45.118 -254.224)" fill="#ed702d" opacity="0.1"/><path d="M324.276,64.157H299.247a2.163,2.163,0,0,1,0-4.327h4.327a2.163,2.163,0,0,1,0-4.327h-3.09a2.163,2.163,0,0,1,0-4.327h13.063a34.568,34.568,0,0,0-10.189-2.809c-35.62-4.576-48.338-1.549-52.824,1.572a49.883,49.883,0,0,1-18.309,8.025c-21.978,4.533-63.079,9.99-100.331-1.747-18.515-5.838-32.277,4.024-40.524,20.5H328.621a38.658,38.658,0,0,0-2.939-13.077A2.151,2.151,0,0,1,324.276,64.157Z" transform="translate(23.35 79.202)" fill="#ed702d" opacity="0.1"/><path d="M51.979,321.15a110.26,110.26,0,0,0,.97,29.066L272.7,358.252a103.286,103.286,0,0,0,15.268-23.284Zm86.913,20.736h-4.327a2.163,2.163,0,1,1,0,4.327H109.536a2.163,2.163,0,1,1,0-4.327h4.327a2.163,2.163,0,0,1,0-4.327h-3.09a2.163,2.163,0,1,1,0-4.327H135.8a2.163,2.163,0,0,1,0,4.327h3.09a2.163,2.163,0,0,1,0,4.327Z" transform="translate(54.314 -134.144)" fill="#ed702d" opacity="0.1"/><path d="M299.653,183.34,59.739,189.178A95.812,95.812,0,0,0,54,213.951H295.449a102.491,102.491,0,0,0,3.487-15.792A74.833,74.833,0,0,0,299.653,183.34ZM102.706,202.461H98.379a2.163,2.163,0,0,1,0,4.327H73.35a2.163,2.163,0,0,1,0-4.327h4.327a2.163,2.163,0,0,1,0-4.327h-3.09a2.163,2.163,0,1,1,0-4.327H99.617a2.163,2.163,0,1,1,0,4.327h3.09a2.163,2.163,0,0,1,0,4.327Z" transform="translate(52.329 -27.277)" fill="#ed702d" opacity="0.1"/><g transform="translate(256.389 215.916)" opacity="0.1"><path d="M729,531.429s6.332-15.605,18.156-21.394A25.518,25.518,0,0,0,758.744,498.8a42.929,42.929,0,0,0,2.9-7.3" transform="translate(-727.498 -482.16)" fill="none" stroke="#0a0e42" stroke-miterlimit="10" stroke-width="2"/><path d="M881.2,455.548c-1.233,1.549-7.612,3.817-7.612,3.817s.768-6.736,2-8.274a3.593,3.593,0,0,1,5.613,4.464Z" transform="translate(-839.623 -449.901)" fill="#6c63ff"/><path d="M868.521,505.82c-1.877.631-8.461-.939-8.461-.939s4.3-5.227,6.177-5.858a3.593,3.593,0,0,1,2.284,6.8Z" transform="translate(-829.131 -487.9)" fill="#6c63ff"/><path d="M821.29,569.9c-1.938-.4-6.83-5.081-6.83-5.081s6.35-2.342,8.29-1.94a3.593,3.593,0,0,1-1.459,7.019Z" transform="translate(-793.77 -537.476)" fill="#6c63ff"/><path d="M767.662,609.439c-1.978-.07-7.592-3.853-7.592-3.853s5.865-3.375,7.843-3.312a3.593,3.593,0,1,1-.251,7.165Z" transform="translate(-751.592 -568.06)" fill="#6c63ff"/><path d="M832.735,492.813c.254,1.965,4.54,7.2,4.54,7.2s2.822-6.152,2.571-8.117a3.593,3.593,0,0,0-7.111.916Z" transform="translate(-807.936 -480.217)" fill="#6c63ff"/><path d="M772.2,535.081c.829,1.8,6.487,5.512,6.487,5.512s.853-6.716.025-8.512a3.593,3.593,0,1,0-6.512,3Z" transform="translate(-760.664 -511.844)" fill="#6c63ff"/><path d="M722.381,592.508c.512,1.913,5.463,6.529,5.463,6.529s1.976-6.473,1.462-8.386a3.593,3.593,0,0,0-6.925,1.857Z" transform="translate(-722.312 -557.16)" fill="#6c63ff"/><path d="M881.2,455.548c-1.233,1.549-7.612,3.817-7.612,3.817s.768-6.736,2-8.274a3.593,3.593,0,0,1,5.613,4.464Z" transform="translate(-839.623 -449.901)" opacity="0.25"/><path d="M868.521,505.82c-1.877.631-8.461-.939-8.461-.939s4.3-5.227,6.177-5.858a3.593,3.593,0,0,1,2.284,6.8Z" transform="translate(-829.131 -487.9)" opacity="0.25"/><path d="M821.29,569.9c-1.938-.4-6.83-5.081-6.83-5.081s6.35-2.342,8.29-1.94a3.593,3.593,0,0,1-1.459,7.019Z" transform="translate(-793.77 -537.476)" opacity="0.25"/><path d="M767.662,609.439c-1.978-.07-7.592-3.853-7.592-3.853s5.865-3.375,7.843-3.312a3.593,3.593,0,1,1-.251,7.165Z" transform="translate(-751.592 -568.06)" opacity="0.25"/><path d="M832.735,492.813c.254,1.965,4.54,7.2,4.54,7.2s2.822-6.152,2.571-8.117a3.593,3.593,0,0,0-7.111.916Z" transform="translate(-807.936 -480.217)" opacity="0.25"/><path d="M772.2,535.081c.829,1.8,6.487,5.512,6.487,5.512s.853-6.716.025-8.512a3.593,3.593,0,1,0-6.512,3Z" transform="translate(-760.664 -511.844)" opacity="0.25"/><path d="M722.381,592.508c.512,1.913,5.463,6.529,5.463,6.529s1.976-6.473,1.462-8.386a3.593,3.593,0,0,0-6.925,1.857Z" transform="translate(-722.312 -557.16)" opacity="0.25"/></g><g transform="translate(149.491 163.001)" opacity="0.1"><path d="M761.647,531.429s-6.332-15.605-18.156-21.394A25.519,25.519,0,0,1,731.9,498.8a42.928,42.928,0,0,1-2.9-7.3" transform="translate(-720.918 -482.16)" fill="none" stroke="#0a0e42" stroke-miterlimit="10" stroke-width="2"/><path d="M874.242,455.548c1.233,1.549,7.612,3.817,7.612,3.817s-.768-6.736-2-8.274a3.593,3.593,0,0,0-5.613,4.464Z" transform="translate(-873.59 -449.901)" fill="#6c63ff"/><path d="M862.291,505.82c1.877.631,8.46-.939,8.46-.939s-4.3-5.227-6.177-5.858a3.593,3.593,0,0,0-2.283,6.8Z" transform="translate(-859.449 -487.9)" fill="#6c63ff"/><path d="M818.548,569.9c1.938-.4,6.83-5.081,6.83-5.081s-6.35-2.342-8.29-1.94a3.593,3.593,0,0,0,1.459,7.019Z" transform="translate(-803.838 -537.476)" fill="#6c63ff"/><path d="M764.026,609.439c1.978-.07,7.591-3.853,7.591-3.853s-5.865-3.375-7.843-3.312a3.593,3.593,0,1,0,.251,7.165Z" transform="translate(-737.865 -568.06)" fill="#6c63ff"/><path d="M839.855,492.813c-.254,1.965-4.54,7.2-4.54,7.2s-2.823-6.152-2.571-8.117a3.593,3.593,0,0,1,7.111.916Z" transform="translate(-822.423 -480.217)" fill="#6c63ff"/><path d="M778.642,535.081c-.829,1.8-6.487,5.512-6.487,5.512s-.853-6.716-.025-8.512a3.593,3.593,0,1,1,6.512,3Z" transform="translate(-747.949 -511.844)" fill="#6c63ff"/><path d="M729.323,592.508c-.512,1.913-5.463,6.529-5.463,6.529s-1.976-6.473-1.462-8.386a3.593,3.593,0,0,1,6.925,1.857Z" transform="translate(-687.16 -557.16)" fill="#6c63ff"/><path d="M874.242,455.548c1.233,1.549,7.612,3.817,7.612,3.817s-.768-6.736-2-8.274a3.593,3.593,0,0,0-5.613,4.464Z" transform="translate(-873.59 -449.901)" opacity="0.25"/><path d="M862.291,505.82c1.877.631,8.46-.939,8.46-.939s-4.3-5.227-6.177-5.858a3.593,3.593,0,0,0-2.283,6.8Z" transform="translate(-859.449 -487.9)" opacity="0.25"/><path d="M818.548,569.9c1.938-.4,6.83-5.081,6.83-5.081s-6.35-2.342-8.29-1.94a3.593,3.593,0,0,0,1.459,7.019Z" transform="translate(-803.838 -537.476)" opacity="0.25"/><path d="M764.026,609.439c1.978-.07,7.591-3.853,7.591-3.853s-5.865-3.375-7.843-3.312a3.593,3.593,0,1,0,.251,7.165Z" transform="translate(-737.865 -568.06)" opacity="0.25"/><path d="M839.855,492.813c-.254,1.965-4.54,7.2-4.54,7.2s-2.823-6.152-2.571-8.117a3.593,3.593,0,0,1,7.111.916Z" transform="translate(-822.423 -480.217)" opacity="0.25"/><path d="M778.642,535.081c-.829,1.8-6.487,5.512-6.487,5.512s-.853-6.716-.025-8.512a3.593,3.593,0,1,1,6.512,3Z" transform="translate(-747.949 -511.844)" opacity="0.25"/><path d="M729.323,592.508c-.512,1.913-5.463,6.529-5.463,6.529s-1.976-6.473-1.462-8.386a3.593,3.593,0,0,1,6.925,1.857Z" transform="translate(-687.16 -557.16)" opacity="0.25"/></g><g transform="translate(246.947 182.922)" opacity="0.1"><path d="M709,400.225s.8-16.822,10.034-26.206a25.519,25.519,0,0,0,7.185-14.449,42.918,42.918,0,0,0,.321-7.841" transform="translate(-702.548 -340.779)" fill="none" stroke="#0a0e42" stroke-miterlimit="10" stroke-width="2"/><path d="M789.051,307.96c-.649,1.87-5.917,6.121-5.917,6.121s-1.5-6.6-.855-8.469a3.593,3.593,0,1,1,6.772,2.349Z" transform="translate(-759.247 -302.957)" fill="#6c63ff"/><path d="M793.234,357.338c-1.572,1.217-8.294,1.922-8.294,1.922s2.324-6.359,3.884-7.576a3.593,3.593,0,1,1,4.41,5.654Z" transform="translate(-761.437 -340.039)" fill="#6c63ff"/><path d="M765.358,433.734c-1.962.263-8.128-2.528-8.128-2.528s5.216-4.316,7.185-4.578a3.593,3.593,0,1,1,.952,7.107Z" transform="translate(-739.949 -398.804)" fill="#6c63ff"/><path d="M729.39,489.042c-1.891.591-8.44-1.123-8.44-1.123s4.41-5.135,6.3-5.726a3.593,3.593,0,0,1,2.14,6.844Z" transform="translate(-711.815 -441.869)" fill="#6c63ff"/><path d="M751.716,361.949c.9,1.769,6.673,5.288,6.673,5.288s.622-6.736-.267-8.51a3.593,3.593,0,0,0-6.406,3.222Z" transform="translate(-735.449 -344.826)" fill="#6c63ff"/><path d="M709.736,423.061c1.379,1.421,7.948,3.049,7.948,3.049s-1.421-6.617-2.8-8.038a3.593,3.593,0,0,0-5.149,4.991Z" transform="translate(-702.451 -391.499)" fill="#6c63ff"/><path d="M680.747,492.692c1.123,1.635,7.32,4.349,7.32,4.349s-.283-6.763-1.4-8.4a3.593,3.593,0,0,0-5.917,4.042Z" transform="translate(-680.265 -445.903)" fill="#6c63ff"/></g><g transform="translate(160.666 118.249)" opacity="0.1"><path d="M726.6,400.225s-.8-16.822-10.034-26.206a25.519,25.519,0,0,1-7.185-14.449,42.918,42.918,0,0,1-.321-7.841" transform="translate(-699.68 -340.779)" fill="none" stroke="#0a0e42" stroke-miterlimit="10" stroke-width="2"/><path d="M782.4,307.96c.649,1.87,5.917,6.121,5.917,6.121s1.5-6.6.856-8.469a3.593,3.593,0,1,0-6.772,2.349Z" transform="translate(-778.841 -302.957)" fill="#6c63ff"/><path d="M786.51,357.338c1.572,1.217,8.294,1.922,8.294,1.922s-2.324-6.359-3.885-7.576a3.593,3.593,0,1,0-4.41,5.654Z" transform="translate(-784.94 -340.039)" fill="#6c63ff"/><path d="M760.586,433.734c1.962.263,8.128-2.528,8.128-2.528s-5.216-4.316-7.185-4.578a3.593,3.593,0,1,0-.952,7.107Z" transform="translate(-752.628 -398.804)" fill="#6c63ff"/><path d="M723.255,489.042c1.891.591,8.44-1.123,8.44-1.123s-4.41-5.135-6.3-5.726a3.593,3.593,0,0,0-2.14,6.844Z" transform="translate(-707.463 -441.869)" fill="#6c63ff"/><path d="M758.312,361.949c-.9,1.769-6.673,5.288-6.673,5.288s-.622-6.736.267-8.51a3.593,3.593,0,0,1,6.406,3.222Z" transform="translate(-741.211 -344.826)" fill="#6c63ff"/><path d="M716.823,423.061c-1.379,1.421-7.949,3.049-7.949,3.049s1.421-6.617,2.8-8.038a3.593,3.593,0,0,1,5.149,4.991Z" transform="translate(-690.741 -391.499)" fill="#6c63ff"/><path d="M687.585,492.692c-1.123,1.635-7.32,4.349-7.32,4.349s.283-6.763,1.4-8.4a3.593,3.593,0,0,1,5.917,4.042Z" transform="translate(-654.699 -445.903)" fill="#6c63ff"/></g><rect width="1.572" height="22.229" transform="translate(187.826 166.753)" fill="#535461"/><rect width="1.572" height="12.574" transform="translate(187.826 196.617)" fill="#535461"/><rect width="70.729" height="153.582" rx="7" transform="translate(188.949 144.973)" fill="#535461"/><rect width="70.729" height="139.885" rx="8" transform="translate(188.949 152.159)" fill="#fff"/><rect width="11.676" height="1.572" rx="0.786" transform="translate(218.588 148.342)" fill="#eaeaf3"/><ellipse cx="1.123" cy="1.123" rx="1.123" ry="1.123" transform="translate(233.183 148.117)" fill="#eaeaf3"/><text transform="translate(198.372 253.818)" fill="#ed702d" font-size="19" font-family="Larsseit-Bold, Larsseit" font-weight="700"><tspan x="-3.41" y="0">*</tspan></text><text transform="translate(208.372 253.818)" fill="#ed702d" font-size="19" font-family="Larsseit-Bold, Larsseit" font-weight="700"><tspan x="-3.41" y="0">*</tspan></text><text transform="translate(218.372 253.818)" fill="#ed702d" font-size="19" font-family="Larsseit-Bold, Larsseit" font-weight="700"><tspan x="-3.41" y="0">*</tspan></text><text transform="translate(229.371 253.818)" fill="#ed702d" font-size="19" font-family="Larsseit-Bold, Larsseit" font-weight="700"><tspan x="-3.41" y="0">*</tspan></text><text transform="translate(239.371 253.818)" fill="#ed702d" font-size="19" font-family="Larsseit-Bold, Larsseit" font-weight="700"><tspan x="-3.41" y="0">*</tspan></text><text transform="translate(249.372 253.818)" fill="#ed702d" font-size="19" font-family="Larsseit-Bold, Larsseit" font-weight="700"><tspan x="-3.41" y="0">*</tspan></text><g transform="translate(203.125 182.556)"><path d="M41.216,20.353v1.758A19.108,19.108,0,1,1,29.885,4.646" transform="translate(-3 -2.991)" fill="none" stroke="#26bc00" stroke-linecap="round" stroke-linejoin="round" stroke-width="2"/><path d="M38.34,6,19.232,25.127,13.5,19.395" transform="translate(-0.124 -2.166)" fill="none" stroke="#26bc00" stroke-linecap="round" stroke-linejoin="round" stroke-width="2"/></g></g></svg>