<svg xmlns="http://www.w3.org/2000/svg" width="20" height="20" viewBox="0 0 20 20"><path d="M9.57,10.056a11.511,11.511,0,0,0-.915-4.261,13.139,13.139,0,0,0-7.27,8.741A10.039,10.039,0,0,0,3.679,17.8,13.461,13.461,0,0,1,9.57,10.056ZM8.082,4.638a11.459,11.459,0,0,0-2.315-2.85A9.973,9.973,0,0,0,.727,12.358,14.594,14.594,0,0,1,8.082,4.638Zm7.565,6.656A13.151,13.151,0,0,0,11.716.634,9.745,9.745,0,0,0,7.728.977,13.459,13.459,0,0,1,11.5,9.956a11.494,11.494,0,0,0,4.149,1.338Zm-5.028.383A11.545,11.545,0,0,0,7.385,14.6a13.149,13.149,0,0,0,11.19,1.927,9.963,9.963,0,0,0,1.7-3.624,13.555,13.555,0,0,1-3.262.419A13.522,13.522,0,0,1,10.619,11.677ZM6.655,15.7a11.466,11.466,0,0,0-1.294,3.395A9.964,9.964,0,0,0,17.014,18.2,14.543,14.543,0,0,1,6.655,15.7Zm7.27-14.538a14.552,14.552,0,0,1,3.008,10.224,11.558,11.558,0,0,0,3.617-.572c0-.081.012-.161.012-.242a9.991,9.991,0,0,0-6.637-9.41Z" transform="translate(-0.563 -0.563)" fill="#adadad"/></svg>