<svg xmlns="http://www.w3.org/2000/svg" width="20.2" height="20.205" viewBox="0 0 20.2 20.205"><g transform="translate(0.1 0.105)"><path d="M19.609,13.75H11.844a1.993,1.993,0,0,1,1.945-2.422h1.523a2.343,2.343,0,0,0,1.295-4.3,2.343,2.343,0,0,0-1.295-4.3h-.478a.391.391,0,1,0,0,.781h.478a1.562,1.562,0,0,1,0,3.125H10.073a2.745,2.745,0,0,1-1.336-.348L4.766,4.068V1.057l4.3,2.409a.4.4,0,0,0,.191.05h2.061a.391.391,0,0,0,0-.781H9.36L4.566.05a.4.4,0,0,0-.389,0,.392.392,0,0,0-.193.337V2.812H.781V.391A.391.391,0,0,0,0,.391V19.609A.391.391,0,0,0,.391,20H19.609A.391.391,0,0,0,20,19.609V14.141a.391.391,0,0,0-.391-.391Zm-4.3,2.344a1.563,1.563,0,1,1-1.562,1.563A1.564,1.564,0,0,1,15.312,16.094Zm2.344,1.563a2.329,2.329,0,0,0-.38-1.278,1.529,1.529,0,0,1,.947-.285,1.981,1.981,0,0,1,1,.317v2.808H17.057A2.334,2.334,0,0,0,17.656,17.656ZM.781,16.409a1.927,1.927,0,0,1,.977-.315,1.455,1.455,0,0,1,.99.328,3.793,3.793,0,0,0,1.745.676,3.69,3.69,0,0,0,1.715-.657,1.575,1.575,0,0,1,1.02-.348,1.674,1.674,0,0,1,.52.071,6.724,6.724,0,0,0,2.911,3.054H.781ZM7.109,8.984a2.334,2.334,0,0,0,.6,1.565,6.6,6.6,0,0,0-.6,2.771c0,.144.005.288.014.43h-.8V5.838L8.3,6.944A2.345,2.345,0,0,0,7.109,8.984ZM.781,13.75v-.781h3.2v.781Zm3.2-6.25H.781V6.719h3.2Zm0,.781v.781H.781V8.281Zm0,1.563v.781H.781V9.844Zm0,1.562v.781H.781v-.781Zm.781-6.443.781.438V13.75H4.766Zm-.781.974H.781V5.156h3.2Zm-3.2,8.594H7.22a6.623,6.623,0,0,0,.2.787c-.061,0-.123-.006-.188-.006a2.328,2.328,0,0,0-1.467.489,2.889,2.889,0,0,1-1.267.516,3,3,0,0,1-1.3-.537,2.22,2.22,0,0,0-1.435-.467,2.476,2.476,0,0,0-.977.216Zm18.438,0v1a2.536,2.536,0,0,0-1-.219,2.36,2.36,0,0,0-1.481.486h0a2.331,2.331,0,0,0-1.427-.487H13.789a1.978,1.978,0,0,1-1.409-.584,2.019,2.019,0,0,1-.173-.2Zm-8.2-1.211a2.773,2.773,0,0,0,2.56,2.765,2.339,2.339,0,0,0-.012,3.129A5.905,5.905,0,0,1,7.891,13.32a5.836,5.836,0,0,1,.454-2.272,2.329,2.329,0,0,0,1.109.28h2.409a2.765,2.765,0,0,0-.847,1.992Zm4.3-5.9a1.563,1.563,0,0,1,0,3.125H9.453a1.563,1.563,0,1,1,0-3.125ZM3.984,3.594v.781H.781V3.594Z" transform="translate(0 0)" fill="#adadad" stroke="#707070" stroke-width="0.2"/><path d="M325.1,70.67a.335.335,0,1,0-.344-.335A.34.34,0,0,0,325.1,70.67Z" transform="translate(-311.984 -67.799)" fill="#adadad"/></g></svg>