<svg xmlns="http://www.w3.org/2000/svg" width="20" height="20" viewBox="0 0 20 20"><path d="M19.379,15.065l.556,1.12a.625.625,0,0,1-.282.838L17.1,18.307a1.25,1.25,0,0,1-1.687-.588L12.956,12.5H7.5a1.25,1.25,0,0,1-1.237-1.073C4.939,2.16,5.015,2.736,5,2.5A2.5,2.5,0,1,1,7.866,4.973L8.048,6.25h5.077a.625.625,0,0,1,.625.625v1.25a.625.625,0,0,1-.625.625H8.406L8.584,10H13.75a1.25,1.25,0,0,1,1.131.718L17.128,15.5l1.413-.717a.625.625,0,0,1,.838.282ZM12.162,13.75h-.957A4.375,4.375,0,1,1,4.7,9.33L4.33,6.739a6.875,6.875,0,1,0,8.839,9.152Z" fill="#adadad"/></svg>