<svg xmlns="http://www.w3.org/2000/svg" width="19.981" height="16" viewBox="0 0 19.981 16"><path d="M19.823,6.639a13.207,13.207,0,0,0-19.664,0,.626.626,0,0,0-.011.821L1.217,8.672a.462.462,0,0,0,.7.014,10.894,10.894,0,0,1,16.149,0,.462.462,0,0,0,.7-.014l1.069-1.213a.626.626,0,0,0-.011-.821Zm-9.832,7.04a2.156,2.156,0,0,0-2,2.286,2.156,2.156,0,0,0,2,2.286,2.156,2.156,0,0,0,2-2.286A2.156,2.156,0,0,0,9.991,13.679Zm6.328-2.985a8.7,8.7,0,0,0-12.655,0,.621.621,0,0,0-.018.827l1.075,1.214a.464.464,0,0,0,.688.029,6.376,6.376,0,0,1,9.163,0,.464.464,0,0,0,.688-.029l1.075-1.214A.621.621,0,0,0,16.318,10.693Z" transform="translate(0 -2.25)" fill="#ed702d"/></svg>